<?xml version="1.0" encoding="utf-8"?><svg xmlns="http://www.w3.org/2000/svg" xmlns:xlink="http://www.w3.org/1999/xlink"><symbol viewBox="0 0 109.93 103.15" id="24hours" xmlns="http://www.w3.org/2000/svg"><g data-name="Слой 2"><g data-name="Layer 1"><path class="aaapcls-1" d="M51.58 103.15a51.58 51.58 0 1151.57-51.57v8.68h-3.88v-8.68a47.69 47.69 0 10-47.69 47.69z"/><path class="aaapcls-1" d="M101.21 62.58l-8.71-8.72 2.75-2.75 5.96 5.97 5.97-5.97 2.75 2.75-8.72 8.72zm1.95 40.57h-3.89v-8.63H86.53a1.95 1.95 0 01-1.48-3.2L99.73 74a2 2 0 013.43 1.26zM90.73 90.63h8.54v-10z"/><path class="aaapcls-1" d="M99.27 90.63h6.48v3.89h-6.48zm-27.42 12.52h-6.59a1.94 1.94 0 01-1.94-1.94v-6.47a8.42 8.42 0 018.41-8.43h4.32a4.54 4.54 0 100-9.07h-4.32a4.52 4.52 0 00-4.53 4.54h-3.88a8.4 8.4 0 018.41-8.42h4.32a8.42 8.42 0 010 16.84h-4.32a4.52 4.52 0 00-4.53 4.54v4.53h4.65z"/><path class="aaapcls-1" d="M69.91 99.27h14.56v3.89H69.91zM51.58 58.7a7.13 7.13 0 117.12-7.12 7.14 7.14 0 01-7.12 7.12zm0-10.36a3.24 3.24 0 103.24 3.24 3.24 3.24 0 00-3.24-3.24z"/><path class="aaapcls-1" d="M35.54 38.287l2.751-2.75 10.996 10.995-2.75 2.75zM56.76 49.63H72.3v3.89H56.76zM49.63 15.3h3.89v5.89h-3.89zM15.31 49.63h5.89v3.89h-5.89z"/><path class="aaapcls-1" d="M53.52 89.79h-1.94A38.22 38.22 0 1189.8 51.58v1.94H82v-3.89h3.89a34.33 34.33 0 10-36.26 36.22V82h3.89z"/></g></g></symbol><symbol viewBox="0 0 492.004 492.004" id="arrow" xmlns="http://www.w3.org/2000/svg"><path d="M382.678 226.804L163.73 7.86C158.666 2.792 151.906 0 144.698 0s-13.968 2.792-19.032 7.86l-16.124 16.12c-10.492 10.504-10.492 27.576 0 38.064L293.398 245.9l-184.06 184.06c-5.064 5.068-7.86 11.824-7.86 19.028 0 7.212 2.796 13.968 7.86 19.04l16.124 16.116c5.068 5.068 11.824 7.86 19.032 7.86s13.968-2.792 19.032-7.86L382.678 265c5.076-5.084 7.864-11.872 7.848-19.088.016-7.244-2.772-14.028-7.848-19.108z"/></symbol><symbol viewBox="0 0 111.84 105.85" id="async" xmlns="http://www.w3.org/2000/svg"><g data-name="Слой 2"><g data-name="Layer 1"><path class="acamcls-1" d="M73.74 105.85H38.1V94.07h3.89v7.89h27.86v-7.89h3.89v11.78z"/><path class="acamcls-1" d="M30.98 101.96h49.87v3.89H30.98zM111.84 77H0V5.75A5.75 5.75 0 015.75 0h100.34a5.75 5.75 0 015.75 5.75zm-108-3.89H108V5.75a1.85 1.85 0 00-.55-1.32 1.83 1.83 0 00-1.31-.54H5.75a1.88 1.88 0 00-1.87 1.86z"/><path class="acamcls-1" d="M106.09 89.71H5.75A5.75 5.75 0 010 84V73.13h111.84V84a5.74 5.74 0 01-5.75 5.75zM3.88 77v7a1.86 1.86 0 00.55 1.32 1.84 1.84 0 001.32.55h100.34a1.83 1.83 0 001.31-.54A1.86 1.86 0 00108 84v-7zm87.35-28.34H76.4v-20.3h14.83v3.89H80.29v12.52h10.94v3.89z"/><path class="acamcls-1" d="M76.4 36.57h9.36v3.89H76.4zM48 48.66h-2.75a6.06 6.06 0 01-6-6v-8.2a6 6 0 016-6H48a6.06 6.06 0 016 6v8.2a6.08 6.08 0 01-6 6zm-2.75-16.41a2.12 2.12 0 00-1.52.63 2.14 2.14 0 00-.63 1.53v8.2a2.14 2.14 0 00.63 1.53 2.12 2.12 0 001.52.63H48a2.16 2.16 0 001.53-.63 2.18 2.18 0 00.63-1.53v-8.2a2.18 2.18 0 00-.63-1.53 2.14 2.14 0 00-1.53-.63zM29.39 48.66h-2.73a6.06 6.06 0 01-6.05-6v-8.2a6 6 0 016.05-6h2.73a6 6 0 016 6v1.94h-3.84v-1.99a2.15 2.15 0 00-2.16-2.16h-2.73a2.15 2.15 0 00-2.16 2.16v8.2a2.15 2.15 0 002.16 2.16h2.73a2.15 2.15 0 002.16-2.16v-1.94h3.89v1.94a6.06 6.06 0 01-6 6zm37.2 0H57.8v-20.3h8.79a6 6 0 016 6v8.2a6.06 6.06 0 01-6 6zm-4.9-3.89h4.9a2.15 2.15 0 002.15-2.16v-8.2a2.14 2.14 0 00-.63-1.53 2.12 2.12 0 00-1.52-.63h-4.9zm.06-35.27h3.88v3.89h-3.88zm-7.77 0h3.89v3.89h-3.89zm-7.78 0h3.89v3.89H46.2zm15.55 54.13h3.88v3.89h-3.88zm-7.77 0h3.89v3.89h-3.89zm-7.78 0h3.89v3.89H46.2zm56.14-40.1h-3.89V13.39H69.52V9.5h32.82v14.03zm-88.96 0H9.5V9.5h32.82v3.89H13.38v10.14zm88.96 43.99H69.52v-3.89h28.93V53.48h3.89v14.04zm-60.02 0H9.5V53.48h3.88v10.15h28.94v3.89z"/></g></g></symbol><symbol viewBox="0 0 246.027 246.027" id="attention" xmlns="http://www.w3.org/2000/svg"><path d="M242.751 196.508l-98.814-171.15c-4.367-7.564-12.189-12.081-20.924-12.081s-16.557 4.516-20.924 12.081L3.276 196.508c-4.368 7.564-4.368 16.596 0 24.161S15.465 232.75 24.2 232.75h197.629c8.734 0 16.556-4.516 20.923-12.08 4.367-7.565 4.366-16.597-.001-24.162zm-119.737 8.398c-8.672 0-15.727-7.055-15.727-15.727 0-8.671 7.055-15.726 15.727-15.726s15.727 7.055 15.727 15.726c-.001 8.673-7.056 15.727-15.727 15.727zm15.833-67.226c0 8.73-7.103 15.833-15.833 15.833s-15.833-7.103-15.833-15.833V65.013a7.5 7.5 0 017.5-7.5h16.667a7.5 7.5 0 017.5 7.5v72.667z"/></symbol><symbol viewBox="0 0 459.334 459.334" id="bell" xmlns="http://www.w3.org/2000/svg"><path d="M175.216 404.514c-.001.12-.009.239-.009.359 0 30.078 24.383 54.461 54.461 54.461s54.461-24.383 54.461-54.461c0-.12-.008-.239-.009-.359H175.216zm228.333-68.076l-49.015-72.002v-89.83c0-60.581-43.144-111.079-100.381-122.459V24.485C254.152 10.963 243.19 0 229.667 0s-24.485 10.963-24.485 24.485v27.663c-57.237 11.381-100.381 61.879-100.381 122.459v89.83l-49.015 72.002a24.76 24.76 0 0020.468 38.693H383.08a24.761 24.761 0 0020.469-38.694z"/></symbol><symbol viewBox="0 0 109.13 109.96" id="brilliant" xmlns="http://www.w3.org/2000/svg"><g data-name="Слой 2"><g data-name="Layer 1"><path class="afavcls-1" d="M54.56 106.55L0 52l23.55-23.54h62L109.13 52zM5.5 52l49.06 49.07L103.64 52 84 32.35H25.16z"/><path class="afavcls-1" d="M54.56 110L34.61 50h39.9zM40 53.93l14.56 43.72 14.56-43.72z"/><path class="afavcls-1" d="M40.74 53.93H2.75v-3.89h31.13L22.69 31.41l3.33-2 14.72 24.52z"/><path class="afavcls-1" d="M75.85 53.93H33.27L54.56 27.3zM41.35 50h26.42L54.56 33.52z"/><path class="afavcls-1" d="M37.08 55.38L22.69 31.41l3.33-2 11.52 19.18 15.5-19.4 3.04 2.43-19 23.76z"/><path class="afavcls-1" d="M72.04 55.38l-19-23.76 3.04-2.42 15.5 19.39L83.1 29.41l3.33 2-14.39 23.97z"/><path class="afavcls-1" d="M106.39 53.93H68.38L83.1 29.41l3.33 2-11.18 18.63h31.14v3.89zM52.62 0h3.89v12.96h-3.89zm10.964 14.355L68.54 2.381l3.594 1.488-4.957 11.974zm9.578 5.495l9.162-9.166 2.751 2.75-9.162 9.165zM37.006 3.874l3.593-1.489 4.96 11.974-3.594 1.489zm-12.944 9.573l2.751-2.75 9.156 9.159-2.752 2.75z"/></g></g></symbol><symbol viewBox="0 0 30 19" id="burger" xmlns="http://www.w3.org/2000/svg"><path d="M1.5 0h27a1.5 1.5 0 110 3h-27a1.5 1.5 0 010-3zm0 8h27a1.5 1.5 0 010 3h-27a1.5 1.5 0 010-3zm0 8h22a1.5 1.5 0 010 3h-22a1.5 1.5 0 110-3z"/></symbol><symbol viewBox="0 0 488.152 488.152" id="calendar" xmlns="http://www.w3.org/2000/svg"><path d="M177.854 269.311c0-6.115-4.96-11.069-11.08-11.069h-38.665c-6.113 0-11.074 4.954-11.074 11.069v38.66c0 6.123 4.961 11.079 11.074 11.079h38.665c6.12 0 11.08-4.956 11.08-11.079v-38.66zm96.629 0c0-6.115-4.961-11.069-11.069-11.069h-38.67c-6.113 0-11.074 4.954-11.074 11.069v38.66c0 6.123 4.961 11.079 11.074 11.079h38.67c6.108 0 11.069-4.956 11.069-11.079v-38.66zm96.634 0c0-6.115-4.961-11.069-11.074-11.069h-38.665c-6.12 0-11.08 4.954-11.08 11.069v38.66c0 6.123 4.96 11.079 11.08 11.079h38.665c6.113 0 11.074-4.956 11.074-11.079v-38.66zM177.854 365.95c0-6.125-4.96-11.075-11.08-11.075h-38.665c-6.113 0-11.074 4.95-11.074 11.075v38.653c0 6.119 4.961 11.074 11.074 11.074h38.665c6.12 0 11.08-4.956 11.08-11.074V365.95zm96.629 0c0-6.125-4.961-11.075-11.069-11.075h-38.67c-6.113 0-11.074 4.95-11.074 11.075v38.653c0 6.119 4.961 11.074 11.074 11.074h38.67c6.108 0 11.069-4.956 11.069-11.074V365.95zm96.634 0c0-6.125-4.961-11.075-11.069-11.075h-38.67c-6.12 0-11.08 4.95-11.08 11.075v38.653c0 6.119 4.96 11.074 11.08 11.074h38.67c6.108 0 11.069-4.956 11.069-11.074V365.95z"/><path d="M440.254 54.354v59.05c0 26.69-21.652 48.198-48.338 48.198h-30.493c-26.688 0-48.627-21.508-48.627-48.198V54.142h-137.44v59.262c0 26.69-21.938 48.198-48.622 48.198H96.235c-26.685 0-48.336-21.508-48.336-48.198v-59.05c-23.323.703-42.488 20.002-42.488 43.723v346.061c0 24.167 19.588 44.015 43.755 44.015h389.82c24.131 0 43.755-19.889 43.755-44.015V98.077c0-23.721-19.164-43.02-42.487-43.723zm-14.163 368.234c0 10.444-8.468 18.917-18.916 18.917H80.144c-10.448 0-18.916-8.473-18.916-18.917V243.835c0-10.448 8.467-18.921 18.916-18.921h327.03c10.448 0 18.916 8.473 18.916 18.921l.001 178.753z"/><path d="M96.128 129.945h30.162c9.155 0 16.578-7.412 16.578-16.567V16.573C142.868 7.417 135.445 0 126.29 0H96.128C86.972 0 79.55 7.417 79.55 16.573v96.805c0 9.155 7.422 16.567 16.578 16.567zm264.907 0h30.162c9.149 0 16.572-7.412 16.572-16.567V16.573C407.77 7.417 400.347 0 391.197 0h-30.162c-9.154 0-16.577 7.417-16.577 16.573v96.805c0 9.155 7.423 16.567 16.577 16.567z"/></symbol><symbol viewBox="0 0 111.88 74.06" id="cash" xmlns="http://www.w3.org/2000/svg"><g data-name="Слой 2"><g data-name="Layer 1"><path class="aiaucls-1" d="M0 70.17h74.85v3.89H0zm0-8.77h51.65v3.89H0zm0-8.77h44.45v3.89H0zm0-8.77h40.87v3.89H0zm0-8.78h39.76v3.89H0zm0-8.76h40.87v3.89H0zm0-8.78h44.45v3.89H0zm0-8.77h51.65v3.89H0zM0 0h74.85v3.89H0z"/><path class="aiaucls-1" d="M74.85 74.06a37 37 0 1137-37 37.07 37.07 0 01-37 37zm0-70.17A33.14 33.14 0 10108 37 33.17 33.17 0 0074.85 3.89z"/><path class="aiaucls-1" d="M74.85 66.75A29.72 29.72 0 11104.57 37a29.75 29.75 0 01-29.72 29.75zm0-55.55A25.83 25.83 0 10100.68 37a25.86 25.86 0 00-25.83-25.8z"/><path class="aiaucls-1" d="M76.76 50.46h-3.83a7.68 7.68 0 01-7.68-7.69h3.88a3.81 3.81 0 003.8 3.8h3.83a3.8 3.8 0 000-7.6h-3.83a7.69 7.69 0 010-15.37h3.83a7.68 7.68 0 017.69 7.69h-3.89a3.79 3.79 0 00-3.8-3.8h-3.83a3.8 3.8 0 000 7.6h3.83a7.69 7.69 0 010 15.37z"/><path class="aiaucls-1" d="M72.91 20.95h3.89v4.6h-3.89zm0 27.57h3.89v4.59h-3.89z"/></g></g></symbol><symbol viewBox="0 0 107.95 98.16" id="chart" xmlns="http://www.w3.org/2000/svg"><g data-name="Слой 2"><g data-name="Layer 1"><path class="ajawcls-1" d="M52.61 83.31a33.29 33.29 0 01-4.24-.44L49 79a29.39 29.39 0 003.76.39zm4.25-.08l-.32-3.88a31.46 31.46 0 003.74-.53l.79 3.8a35 35 0 01-4.21.61zm8.32-1.74l-1.26-3.67a30.07 30.07 0 003.48-1.45l1.71 3.49a31.92 31.92 0 01-3.93 1.63zm7.63-3.73l-2.13-3.25a31.78 31.78 0 003-2.26l2.51 3a35.17 35.17 0 01-3.38 2.51zm6.48-5.5l-2.86-2.63a30.44 30.44 0 002.38-2.93L82 69a33.87 33.87 0 01-2.71 3.26zM6.8 49a46.91 46.91 0 0011.6 31l32.35-32.35V1.91A47.29 47.29 0 006.8 49zm40.06-3L18.74 74.17A43.33 43.33 0 0146.86 6.28z"/><path class="ajawcls-1" d="M55.41 52.31L23.06 84.66a47.21 47.21 0 0078.09-32.35zM54 92.37a43.26 43.26 0 01-25.15-8.05L57 56.2h39.78A43.48 43.48 0 0154 92.37zm45.69-55.45c-.38-1.43-.83-2.84-1.34-4.22l-13 13h5.56zm-34.87 8.8h5.56L93.29 22.8c-.74-1.1-1.52-2.17-2.35-3.2zm36.33 0a47.27 47.27 0 00-.61-4.94l-5 4.94zM97 29.38c-.57-1.26-1.21-2.48-1.89-3.68l-20 20h5.55zM70.36 4.71c-1.38-.51-2.79-1-4.23-1.34l-8.79 8.8v5.56zm13.1 7.41c-1-.83-2.1-1.61-3.21-2.35L57.34 32.68v5.56zM77.36 8c-1.2-.68-2.42-1.32-3.68-1.89L57.34 22.43V28zm11.42 9.06c-.89-1-1.82-1.89-2.78-2.78L57.34 42.94v2.78h2.78zM57.34 7.47l4.94-4.95a47.27 47.27 0 00-4.94-.61z"/><path class="ajawcls-1" d="M107.95 90.3h-15.5l-7.25-7.25 2.74-2.75 6.12 6.12h13.89v3.88zm-14.7 3.98h14.7v3.89h-14.7zM20.01 17.86l-6.12-6.11H0V7.86h15.51l7.25 7.25-2.75 2.75zM0 0h14.7v3.89H0z"/></g></g></symbol><symbol viewBox="0 0 81.16 121.68" id="click" xmlns="http://www.w3.org/2000/svg"><g data-name="Слой 2"><g data-name="Layer 1"><path class="akaicls-1" d="M40 37.73l-1.85-3.42a11 11 0 10-10.45 0l-1.85 3.42a14.9 14.9 0 1114.15 0z"/><path class="akaicls-1" d="M76 102.13H26.77a2 2 0 01-1.95-1.95A16.75 16.75 0 008.09 83.45a8.09 8.09 0 010-16.18 32.55 32.55 0 0116.73 4.57V24.61a8.1 8.1 0 0116.19 0v21.86a8.09 8.09 0 019.93 1.19 6 6 0 01.42.46c.14-.16.29-.31.44-.46a8.08 8.08 0 0111.43 0c.15.15.29.31.43.47.14-.16.28-.32.44-.47a8 8 0 015.71-2.37 8.09 8.09 0 018.09 8.09v46.8a1.94 1.94 0 01-1.9 1.95zm-47.38-3.89H74V53.38a4.22 4.22 0 00-4.2-4.21 4.27 4.27 0 00-4.22 4.21 1.94 1.94 0 01-3.88 0 4.2 4.2 0 00-4.2-4.22 4.23 4.23 0 00-4.21 4.22 1.95 1.95 0 01-3.89 0 4.2 4.2 0 00-4.2-4.22 4.23 4.23 0 00-3 1.24 4.17 4.17 0 00-1.22 3 1.95 1.95 0 11-3.89 0V24.61a4.21 4.21 0 00-8.41 0v50.88A1.95 1.95 0 0125.59 77a28.71 28.71 0 00-17.5-5.89 4.21 4.21 0 000 8.41 20.66 20.66 0 0120.53 18.72zM68.4 116.3a5.37 5.37 0 115.36-5.37 5.38 5.38 0 01-5.36 5.37zm0-6.85a1.48 1.48 0 101.48 1.48 1.49 1.49 0 00-1.48-1.48z"/><path class="akaicls-1" d="M81.16 121.69h-3.89v-19.56H25.45v19.56h-3.89V98.24h59.6v23.45zM30.97 0h3.89v7.07h-3.89zM18.92 4.26l3.368-1.946 3.532 6.113-3.368 1.946zm-8.291 9.727l1.945-3.369 6.114 3.531-1.946 3.369zM8.3 22.67h7.07v3.89H8.3zm2.328 12.571l6.122-3.536 1.946 3.369-6.122 3.536zm36.515-.177l1.946-3.368 6.113 3.531-1.946 3.368zM50.46 22.67h7.07v3.89h-7.07zm-3.322-8.512l6.113-3.532 1.946 3.368-6.113 3.532zm-7.139-5.715l3.53-6.114 3.369 1.945-3.53 6.114z"/></g></g></symbol><symbol viewBox="0 0 443.294 443.294" id="clock" xmlns="http://www.w3.org/2000/svg"><path d="M221.647 0C99.433 0 0 99.433 0 221.647s99.433 221.647 221.647 221.647 221.647-99.433 221.647-221.647S343.861 0 221.647 0zm0 415.588c-106.941 0-193.941-87-193.941-193.941s87-193.941 193.941-193.941 193.941 87 193.941 193.941-87 193.941-193.941 193.941z"/><path d="M235.5 83.118h-27.706v144.265l87.176 87.176 19.589-19.589-79.059-79.059z"/></symbol><symbol viewBox="0 0 97.16 97.16" id="clock-circular-outline" xmlns="http://www.w3.org/2000/svg"><path d="M48.58 0C21.793 0 0 21.793 0 48.58s21.793 48.58 48.58 48.58 48.58-21.793 48.58-48.58S75.367 0 48.58 0zm0 86.823c-21.087 0-38.244-17.155-38.244-38.243S27.493 10.337 48.58 10.337 86.824 27.492 86.824 48.58 69.667 86.823 48.58 86.823z"/><path d="M73.898 47.08H52.066V20.83a4 4 0 00-8 0v30.25a4 4 0 004 4h25.832a4 4 0 000-8z"/></symbol><symbol viewBox="0 0 329.269 329" id="close" xmlns="http://www.w3.org/2000/svg"><path d="M194.8 164.77L323.013 36.555c8.343-8.34 8.343-21.825 0-30.164-8.34-8.34-21.825-8.34-30.164 0L164.633 134.605 36.422 6.391c-8.344-8.34-21.824-8.34-30.164 0-8.344 8.34-8.344 21.824 0 30.164l128.21 128.215L6.259 292.984c-8.344 8.34-8.344 21.825 0 30.164a21.266 21.266 0 0015.082 6.25c5.46 0 10.922-2.09 15.082-6.25l128.21-128.214 128.216 128.214a21.273 21.273 0 0015.082 6.25c5.46 0 10.922-2.09 15.082-6.25 8.343-8.34 8.343-21.824 0-30.164zm0 0"/></symbol><symbol viewBox="0 0 561 561" id="copy-content" xmlns="http://www.w3.org/2000/svg"><path d="M395.25 0h-306c-28.05 0-51 22.95-51 51v357h51V51h306V0zm76.5 102h-280.5c-28.05 0-51 22.95-51 51v357c0 28.05 22.95 51 51 51h280.5c28.05 0 51-22.95 51-51V153c0-28.05-22.95-51-51-51zm0 408h-280.5V153h280.5v357z"/></symbol><symbol viewBox="0 0 442.533 442.533" id="correct-symbol" xmlns="http://www.w3.org/2000/svg"><path d="M434.539 98.499l-38.828-38.828c-5.324-5.328-11.799-7.993-19.41-7.993-7.618 0-14.093 2.665-19.417 7.993L169.59 247.248l-83.939-84.225c-5.33-5.33-11.801-7.992-19.412-7.992-7.616 0-14.087 2.662-19.417 7.992L7.994 201.852C2.664 207.181 0 213.654 0 221.269c0 7.609 2.664 14.088 7.994 19.416l103.351 103.349 38.831 38.828c5.327 5.332 11.8 7.994 19.414 7.994 7.611 0 14.084-2.669 19.414-7.994l38.83-38.828L434.539 137.33c5.325-5.33 7.994-11.802 7.994-19.417.004-7.611-2.669-14.084-7.994-19.414z"/></symbol><symbol viewBox="0 0 95.939 95.939" id="cross-remove-sign" xmlns="http://www.w3.org/2000/svg"><path d="M62.819 47.97l32.533-32.534a2 2 0 000-2.828L83.333.586a2.002 2.002 0 00-2.828 0L47.97 33.121 15.435.586c-.75-.75-2.078-.75-2.828 0L.587 12.608a2 2 0 000 2.828L33.121 47.97.587 80.504a2 2 0 000 2.828l12.02 12.021a2 2 0 002.828 0L47.97 62.818l32.535 32.535a2 2 0 002.828 0l12.02-12.021a2 2 0 000-2.828L62.819 47.97z"/></symbol><symbol viewBox="0 0 297 297" id="cursor" xmlns="http://www.w3.org/2000/svg"><path d="M294.077 251.199l-59.105-59.107 42.167-24.356a9.93 9.93 0 00-1.288-17.825L87.82 74.905a9.93 9.93 0 00-12.905 12.903l74.994 188.053a9.934 9.934 0 0017.827 1.289l24.354-42.167 59.101 59.107a9.932 9.932 0 0014.046 0l28.841-28.845c3.878-3.879 3.878-10.167-.001-14.046zM43.61 29.552c-3.879-3.876-10.166-3.877-14.047 0-3.878 3.879-3.878 10.168 0 14.047l22.069 22.069a9.9 9.9 0 007.023 2.909 9.9 9.9 0 007.022-2.909c3.879-3.879 3.879-10.167 0-14.046L43.61 29.552zm7.479 68.663c0-5.484-4.447-9.932-9.933-9.932H9.946c-5.485 0-9.933 4.447-9.933 9.932s4.447 9.933 9.933 9.933h31.21c5.486-.001 9.933-4.448 9.933-9.933zm-4.026 30.654L24.991 150.94c-3.878 3.879-3.878 10.168 0 14.046a9.905 9.905 0 007.023 2.909c2.541 0 5.084-.97 7.023-2.909l22.071-22.07c3.879-3.879 3.879-10.168 0-14.047-3.878-3.876-10.164-3.877-14.045 0zm51.159-77.791c5.485 0 9.933-4.447 9.933-9.933V9.932c0-5.485-4.447-9.932-9.933-9.932-5.484 0-9.932 4.446-9.932 9.932v31.214c0 5.485 4.447 9.932 9.932 9.932zm37.672 12.928a9.9 9.9 0 007.023-2.909l22.068-22.069c3.879-3.879 3.879-10.168 0-14.047-3.879-3.877-10.168-3.877-14.046 0l-22.068 22.07c-3.879 3.879-3.879 10.168 0 14.046a9.903 9.903 0 007.023 2.909z"/></symbol><symbol viewBox="0 0 548.172 548.172" id="desktop-monitor" xmlns="http://www.w3.org/2000/svg"><path d="M534.75 49.965c-8.945-8.945-19.694-13.422-32.261-13.422H45.681c-12.562 0-23.313 4.477-32.264 13.422C4.471 58.913 0 69.663 0 82.226v310.633c0 12.566 4.471 23.315 13.417 32.265 8.951 8.945 19.702 13.414 32.264 13.414h155.318c0 7.231-1.524 14.661-4.57 22.269-3.044 7.614-6.09 14.273-9.136 19.981-3.042 5.715-4.565 9.897-4.565 12.56 0 4.948 1.807 9.24 5.424 12.847 3.615 3.621 7.898 5.435 12.847 5.435h146.179c4.949 0 9.233-1.813 12.848-5.435 3.62-3.606 5.427-7.898 5.427-12.847 0-2.468-1.526-6.611-4.571-12.415-3.046-5.801-6.092-12.566-9.134-20.267-3.046-7.71-4.569-15.085-4.569-22.128h155.318c12.56 0 23.309-4.469 32.254-13.414 8.949-8.949 13.422-19.698 13.422-32.265V82.226c.003-12.563-4.474-23.313-13.423-32.261zm-23.123 269.803c0 2.475-.903 4.613-2.711 6.424-1.81 1.804-3.952 2.707-6.427 2.707H45.681c-2.473 0-4.615-.903-6.423-2.707-1.807-1.817-2.712-3.949-2.712-6.424V82.226c0-2.475.902-4.615 2.712-6.423 1.809-1.805 3.951-2.712 6.423-2.712h456.815c2.471 0 4.617.904 6.42 2.712 1.808 1.809 2.711 3.949 2.711 6.423v237.542z"/></symbol><symbol viewBox="0 0 367.2 367.2" id="document" xmlns="http://www.w3.org/2000/svg"><path d="M271.6 76C255.2 76 242 62.4 242 46.4V0H60c-5.6 0-10.4 4.8-10.4 10.4v346.4c0 5.6 4.8 10.4 10.4 10.4h247.6c5.6 0 10-4.8 10-10.4V76h-46zM136 185.2c-4.4 4-10.8 5.6-20 5.6h-13.2v20.4c0 12-14.4 12-14.4 0V156c0-6.4 2.8-8.8 9.2-8.8 8 0 24.8-.4 31.2 1.2 17.6 4.8 17.6 28.4 7.2 36.8zm79.2 9.2c-2.4 12.4-10.4 21.6-23.2 23.6l-27.6.8c-7.6 0-9.2-3.2-9.2-10.4V156c0-6.4 2.8-8.8 8.8-8.8 8.8 0 24-.8 31.6 1.2 18.4 4.8 23.6 28 19.6 46zm61.6-37.6c-1.2 1.2-2.8 1.6-5.2 1.6h-28.4v18.4h24c8.8 0 8.8 10.8 0 10.8h-24v23.6c0 10.4-9.2 10.4-12.4 6.8-1.2-1.6-2-4-2-6.8V156c0-6.4 2.8-8.8 8.8-8.8h34c8 0 8 7.2 5.2 9.6z"/><path d="M112.8 158h-9.6v22h-.4c10.4 0 25.6 2 25.6-11.2 0-8.8-6-10.8-15.6-10.8zm66.4 1.2h-9.6v48.4c6 0 16 .4 20.8-1.2 13.6-4.8 12.8-31.2 8-39.2-4.4-7.2-10.8-8-19.2-8zm92.4-100.8h33.6l-46-46V46c0 7.2 5.6 12.4 12.4 12.4z"/></symbol><symbol viewBox="0 0 511.613 511.613" id="dollar-symbol" xmlns="http://www.w3.org/2000/svg"><path d="M385.261 311.475c-2.471-8.367-5.469-15.649-8.99-21.833-3.519-6.19-8.559-12.228-15.13-18.134-6.563-5.903-12.467-10.657-17.702-14.271-5.232-3.617-12.419-7.661-21.557-12.137-9.13-4.475-16.364-7.805-21.689-9.995-5.332-2.187-13.045-5.185-23.134-8.992-8.945-3.424-15.605-6.042-19.987-7.849-4.377-1.809-10.133-4.377-17.271-7.71-7.135-3.328-12.465-6.28-15.987-8.848-3.521-2.568-7.279-5.708-11.277-9.419-3.998-3.711-6.805-7.661-8.424-11.848-1.615-4.188-2.425-8.757-2.425-13.706 0-12.94 5.708-23.507 17.128-31.689 11.421-8.182 26.174-12.275 44.257-12.275 7.99 0 16.136 1.093 24.41 3.284s15.365 4.659 21.266 7.421c5.906 2.762 11.471 5.808 16.707 9.137 5.235 3.332 8.945 5.852 11.136 7.565 2.189 1.714 3.576 2.855 4.141 3.427 2.478 1.903 5.041 2.568 7.706 1.999 2.854-.19 5.045-1.715 6.571-4.567l23.13-41.684c2.283-3.805 1.811-7.422-1.427-10.85a97.672 97.672 0 00-4.291-3.997c-1.708-1.524-5.421-4.283-11.136-8.282a137.803 137.803 0 00-18.124-10.706c-6.379-3.138-14.661-6.328-24.845-9.562-10.178-3.239-20.697-5.426-31.549-6.567V9.136c0-2.663-.855-4.853-2.563-6.567C282.493.859 280.303 0 277.634 0h-38.546c-2.474 0-4.615.903-6.423 2.712s-2.712 3.949-2.712 6.424v51.391c-29.884 5.708-54.152 18.461-72.805 38.256-18.651 19.796-27.98 42.823-27.98 69.092 0 7.803.812 15.226 2.43 22.265 1.616 7.045 3.616 13.374 5.996 18.988 2.378 5.618 5.758 11.136 10.135 16.562 4.377 5.424 8.518 10.088 12.419 13.988 3.903 3.899 8.995 7.945 15.274 12.131 6.283 4.19 11.66 7.571 16.134 10.139 4.475 2.56 10.422 5.52 17.843 8.843 7.423 3.333 13.278 5.852 17.561 7.569 4.283 1.711 10.135 4.093 17.561 7.132 10.277 3.997 17.892 7.091 22.84 9.281 4.952 2.19 11.231 5.235 18.849 9.137 7.611 3.898 13.176 7.468 16.7 10.705 3.521 3.237 6.708 7.234 9.565 11.991s4.288 9.801 4.288 15.133c0 15.037-5.853 26.645-17.562 34.823-11.704 8.187-25.27 12.279-40.685 12.279a99.747 99.747 0 01-21.124-2.279c-24.744-4.955-47.869-16.851-69.377-35.693l-.571-.571c-1.714-2.088-3.999-2.946-6.851-2.563-3.046.38-5.236 1.523-6.567 3.43l-29.408 38.54c-2.856 3.806-2.663 7.707.572 11.704.953 1.143 2.618 2.86 4.996 5.14 2.384 2.289 6.81 5.852 13.278 10.715 6.47 4.856 13.513 9.418 21.128 13.706 7.614 4.281 17.272 8.514 28.98 12.703 11.708 4.182 23.839 7.131 36.402 8.843v49.963c0 2.478.905 4.617 2.712 6.427 1.809 1.811 3.949 2.711 6.423 2.711h38.546c2.669 0 4.859-.855 6.57-2.566s2.563-3.901 2.563-6.571v-49.963c30.269-4.948 54.87-17.939 73.806-38.972 18.938-21.033 28.41-46.11 28.41-75.229-.01-9.515-1.245-18.461-3.743-26.841z"/></symbol><symbol viewBox="0 0 511.626 511.626" id="envelope" xmlns="http://www.w3.org/2000/svg"><path d="M49.106 178.729c6.472 4.567 25.981 18.131 58.528 40.685 32.548 22.554 57.482 39.92 74.803 52.099 1.903 1.335 5.946 4.237 12.131 8.71 6.186 4.476 11.326 8.093 15.416 10.852 4.093 2.758 9.041 5.852 14.849 9.277 5.806 3.422 11.279 5.996 16.418 7.7 5.14 1.718 9.898 2.569 14.275 2.569h.575c4.377 0 9.137-.852 14.277-2.569 5.137-1.704 10.615-4.281 16.416-7.7 5.804-3.429 10.752-6.52 14.845-9.277 4.093-2.759 9.229-6.376 15.417-10.852 6.184-4.477 10.232-7.375 12.135-8.71 17.508-12.179 62.051-43.11 133.615-92.79 13.894-9.703 25.502-21.411 34.827-35.116 9.332-13.699 13.993-28.07 13.993-43.105 0-12.564-4.523-23.319-13.565-32.264-9.041-8.947-19.749-13.418-32.117-13.418H45.679c-14.655 0-25.933 4.948-33.832 14.844C3.949 79.562 0 91.934 0 106.779c0 11.991 5.236 24.985 15.703 38.974 10.466 13.99 21.604 24.983 33.403 32.976z"/><path d="M483.072 209.275c-62.424 42.251-109.824 75.087-142.177 98.501-10.849 7.991-19.65 14.229-26.409 18.699-6.759 4.473-15.748 9.041-26.98 13.702-11.228 4.668-21.692 6.995-31.401 6.995h-.578c-9.707 0-20.177-2.327-31.405-6.995-11.228-4.661-20.223-9.229-26.98-13.702-6.755-4.47-15.559-10.708-26.407-18.699-25.697-18.842-72.995-51.68-141.896-98.501C17.987 202.047 8.375 193.762 0 184.437v226.685c0 12.57 4.471 23.319 13.418 32.265 8.945 8.949 19.701 13.422 32.264 13.422h420.266c12.56 0 23.315-4.473 32.261-13.422 8.949-8.949 13.418-19.694 13.418-32.265V184.437c-8.186 9.132-17.7 17.417-28.555 24.838z"/></symbol><symbol viewBox="0 0 480.008 480" id="erotic" xmlns="http://www.w3.org/2000/svg"><path d="M440.004.004h-400C17.922.03.03 17.922.004 40.004v320c.027 22.082 17.918 39.973 40 40h110.922l-26.664 32H48.004a7.995 7.995 0 00-5 1.754l-40 32a8 8 0 005 14.246h464a8 8 0 005-14.246l-40-32a7.995 7.995 0 00-5-1.754h-76.258l-26.664-32h110.922c22.082-.027 39.973-17.918 40-40v-320c-.027-22.082-17.918-39.973-40-40zm9.191 464H30.812l20-16h378.399zm-114.27-32H145.083l26.664-32h136.516zm129.079-72c0 13.254-10.746 24-24 24h-400c-13.254 0-24-10.746-24-24v-320c0-13.254 10.746-24 24-24h400c13.254 0 24 10.746 24 24zm0 0"/><path d="M440.004 32.004h-400a8 8 0 00-8 8v320a8 8 0 008 8h400a8 8 0 008-8v-320a8 8 0 00-8-8zm-8 16v48h-384v-48zM177.758 305.707a78.947 78.947 0 0010.773-70.129l-3.96-12.125a55.12 55.12 0 0051.44-20.914c14.313 18.309 38.462 25.848 60.65 18.938l-4.657 13.726a78.87 78.87 0 0010.496 70.938 62.525 62.525 0 0110.93 45.863H166.578a62.902 62.902 0 0111.18-46.297zm151.847 46.297a78.456 78.456 0 00-14.027-55.2 62.809 62.809 0 01-8.375-56.511l10.48-30.969c19.512-17.664 24-46.57 10.77-69.32l-13.84 8c9.746 16.809 6 38.191-8.875 50.691-14.875 12.496-36.582 12.496-51.46 0-14.876-12.5-18.622-33.882-8.876-50.691l-13.855-8a55.468 55.468 0 00-4.238 46.785 40 40 0 01-70.242 2.086 39.998 39.998 0 01.335-40.871l-13.855-8a55.889 55.889 0 0022.234 77.457l7.543 23.086a63.127 63.127 0 01-8.863 56.258 78.467 78.467 0 00-13.992 55.199H48.004v-240h384v240zm0 0"/><path d="M64.004 64.004h16v16h-16zm32 0h16v16h-16zm32 0h16v16h-16zm272 0h16v16h-16zm-168 216h16v16h-16zm0 0"/></symbol><symbol viewBox="0 0 125.67 66.53" id="eye" xmlns="http://www.w3.org/2000/svg"><g data-name="Слой 2"><g data-name="Layer 1"><path class="axaqcls-1" d="M62.84 66.53a76.17 76.17 0 01-62-32.14L0 33.26l.79-1.12a76 76 0 01124.09 0l.79 1.12-.79 1.13a76.16 76.16 0 01-62.04 32.14zM4.78 33.26a72.25 72.25 0 0058.06 29.38 72.24 72.24 0 0058.05-29.38 72.06 72.06 0 00-116.11 0z"/><path class="axaqcls-1" d="M62.84 66.53A33.27 33.27 0 1196.1 33.26a33.3 33.3 0 01-33.26 33.27zm0-62.64a29.38 29.38 0 1029.38 29.37A29.41 29.41 0 0062.84 3.89z"/><path class="axaqcls-1" d="M62.83 45.84a12.58 12.58 0 1112.58-12.58 12.6 12.6 0 01-12.58 12.58zm0-21.27a8.7 8.7 0 108.7 8.69 8.7 8.7 0 00-8.7-8.69zm-5.37-9.84L56.37 11a23.2 23.2 0 016.47-.92V14a19.12 19.12 0 00-5.38.73zM43.53 33.27h-3.89A23.14 23.14 0 0152 12.76l1.82 3.44a19.25 19.25 0 00-10.29 17.07z"/></g></g></symbol><symbol viewBox="0 0 111.88 74.06" id="fast" xmlns="http://www.w3.org/2000/svg"><g data-name="Слой 2"><g data-name="Layer 1"><path class="ayaucls-1" d="M0 70.17h74.85v3.89H0zm0-8.77h51.65v3.89H0zm0-8.77h44.45v3.89H0zm0-8.77h40.87v3.89H0zm0-8.78h39.76v3.89H0zm0-8.76h40.87v3.89H0zm0-8.78h44.45v3.89H0zm0-8.77h51.65v3.89H0zM0 0h74.85v3.89H0z"/><path class="ayaucls-1" d="M74.85 74.06a37 37 0 1137-37 37.07 37.07 0 01-37 37zm0-70.17A33.14 33.14 0 10108 37 33.17 33.17 0 0074.85 3.89z"/><path class="ayaucls-1" d="M74.85 66.75A29.72 29.72 0 11104.57 37a29.75 29.75 0 01-29.72 29.75zm0-55.55A25.83 25.83 0 10100.68 37a25.86 25.86 0 00-25.83-25.8z"/><path class="ayaucls-1" d="M76.76 50.46h-3.83a7.68 7.68 0 01-7.68-7.69h3.88a3.81 3.81 0 003.8 3.8h3.83a3.8 3.8 0 000-7.6h-3.83a7.69 7.69 0 010-15.37h3.83a7.68 7.68 0 017.69 7.69h-3.89a3.79 3.79 0 00-3.8-3.8h-3.83a3.8 3.8 0 000 7.6h3.83a7.69 7.69 0 010 15.37z"/><path class="ayaucls-1" d="M72.91 20.95h3.89v4.6h-3.89zm0 27.57h3.89v4.59h-3.89z"/></g></g></symbol><symbol viewBox="0 0 957.599 957.6" id="file" xmlns="http://www.w3.org/2000/svg"><path d="M817.9 108.4h-28v687.901c0 45.699-37.2 82.898-82.899 82.898H197.7v25.5c0 29.201 23.7 52.9 52.9 52.9h567.2c29.2 0 52.899-23.699 52.899-52.9V161.3c.001-29.2-23.599-52.9-52.799-52.9z"/><path d="M423.3 849.199h283.6c29.2 0 52.9-23.699 52.9-52.898V52.9c0-29.2-23.7-52.9-52.9-52.9H329v17.5c.199 1.8.3 3.7.3 5.6V168c0 41.1-33.4 74.5-74.5 74.5H109.9c-1.5 0-3.1-.1-4.6-.2H86.9v554.001c0 29.199 23.7 52.898 52.9 52.898h283.5zM434 669.4H249.1c-13.8 0-25-11.201-25-25 0-13.801 11.2-25 25-25h185c13.8 0 25 11.199 25 25 0 13.799-11.3 25-25.1 25zm185-127.599H249.1c-13.8 0-25-11.201-25-25 0-13.801 11.2-25 25-25H619c13.8 0 25 11.199 25 25 0 13.799-11.2 25-25 25zM249.1 356.3H619c13.8 0 25 11.2 25 25s-11.2 25-25 25H249.1c-13.8 0-25-11.2-25-25s11.2-25 25-25z"/><path d="M109.9 212.5h145.3c24.2-.2 43.8-19.8 44-44V23.1c0-13.4-11-22.3-22.399-22.3-5.5 0-11 2-15.6 6.6L94.1 174.5c-14 14-4.1 38 15.8 38z"/></symbol><symbol viewBox="0 0 512 512" id="films" xmlns="http://www.w3.org/2000/svg"><g fill-rule="evenodd" clip-rule="evenodd"><path d="M452.9 211H141.4l299.2-86.7c2.3-.7 4.3-2.2 5.5-4.4 1.2-2.1 1.4-4.6.8-6.9l-15.7-54.1c-6.3-21.6-26.4-36.7-48.9-36.7-4.7 0-9.5.7-14.1 2L87.3 105.6c-13 3.8-23.8 12.4-30.3 24.3-6.6 11.9-8.1 25.6-4.3 38.6L68 221.3v217.5c0 28 22.8 50.8 50.8 50.8h109.7c5 0 9.1-4.1 9.1-9.1s-4.1-9.1-9.1-9.1H118.7c-18 0-32.6-14.6-32.6-32.6V314.7h357.5V439c0 18-14.6 32.6-32.6 32.6H301.5c-5 0-9.1 4.1-9.1 9.1s4.1 9.1 9.1 9.1h109.7c28 0 50.8-22.8 50.8-50.8V220.1c0-5-4.1-9.1-9.1-9.1zm-161.3 85.2l39-67.6h50.7l-39 67.6h-50.7zm-71.5 0l39-67.6h50.7l-39 67.6h-50.7zm-71.6 0l39-67.6h50.7l-39 67.6h-50.7zm34.2-118l-65-62.4 48.7-14.1c.3.5.7 1 1.2 1.4l65 62.4-48.7 14.1c-.3-.5-.7-1-1.2-1.4zM305.1 63.3l65 62.4-48.7 14.1c-.3-.5-.7-1-1.2-1.4l-65-62.4 48.7-14.1c.3.5.7 1 1.2 1.4zm-68.7 19.9l65 62.4-48.7 14.1c-.3-.5-.7-1-1.2-1.4l-65-62.4 48.7-14.1c.3.5.7 1 1.2 1.4zm136.9-41.4c2.9-.8 6-1.3 9-1.3 14.4 0 27.3 9.7 31.3 23.5l13.1 45.3-36.6 10.6c-.3-.5-.7-1-1.2-1.4l-65-62.4 49.4-14.3zm-300.4 97c4.2-7.6 11.1-13.2 19.4-15.6l5.4-1.6c.3.5.7 1 1.2 1.4l65 62.4-80.6 23.4-13.1-45.3c-2.5-8.3-1.5-17.1 2.7-24.7zm13.3 89.8H167l-39 67.6H86.2v-67.6zm277.1 67.6l39-67.6h41.8v67.6h-80.8z"/><path d="M328 392.1c0-3.3-1.7-6.3-4.6-7.9l-80.2-46.3c-3.6-2.1-8.4-1.5-11.4 1.8-1.6 1.7-2.3 4-2.3 6.3v92.2c0 2.2.7 4.4 2.2 6.1 1.9 2.1 4.4 3.2 7 3.2 1.6 0 3.2-.4 4.6-1.2l80.2-46.3c2.8-1.6 4.5-4.6 4.5-7.9zm-80.2 30.5v-61l52.8 30.5-52.8 30.5zm17.1 48.9c-5 0-9.1 4.1-9.1 9.1s4.1 9.1 9.1 9.1 9.1-4.1 9.1-9.1-4-9.1-9.1-9.1z"/></g></symbol><symbol viewBox="0 0 515.556 515.556" id="fingerprint" xmlns="http://www.w3.org/2000/svg"><path d="M257.778 193.333c-17.795 0-32.222 14.428-32.222 32.222v96.667c0 17.795 14.428 32.222 32.222 32.222S290 340.017 290 322.222v-96.667c0-17.794-14.428-32.222-32.222-32.222zm7 205.334c-17.795 0-32.222 14.428-32.222 32.222v64.444c0 17.81 14.428 32.222 32.222 32.222S297 513.144 297 495.334V430.89c0-17.796-14.428-32.223-32.222-32.223z"/><path d="M257.778 96.667c-71.068 0-128.889 57.821-128.889 128.889V290c0 17.795 14.428 32.222 32.222 32.222s32.222-14.428 32.222-32.222v-64.444c0-35.542 28.902-64.444 64.444-64.444s64.444 28.902 64.444 64.444v225.556c0 17.81 14.428 32.222 32.222 32.222 17.795 0 32.222-14.412 32.222-32.222V225.556c.002-71.069-57.819-128.889-128.887-128.889zm-92.667 268.778c-17.795 0-32.222 14.428-32.222 32.222v64.444c0 17.81 14.428 32.222 32.222 32.222s32.222-14.412 32.222-32.222v-64.444c0-17.795-14.427-32.222-32.222-32.222zM95.408 115.704c-16.19-7.363-35.306-.33-42.732 15.859-13.562 29.61-20.454 61.235-20.454 93.992v161.111c0 17.795 14.428 32.222 32.222 32.222s32.222-14.428 32.222-32.222V225.555c0-23.427 4.909-46.005 14.601-67.119 7.411-16.174.315-35.306-15.859-42.732z"/><path d="M163.817 94.669c27.471-19.777 59.976-30.224 93.961-30.224 88.832 0 161.111 72.28 161.111 161.111 0 17.795 14.428 32.222 32.222 32.222s32.222-14.428 32.222-32.222C483.334 101.182 382.151 0 257.778 0c-47.578 0-93.08 14.648-131.595 42.355-14.443 10.384-17.732 30.523-7.348 44.966 10.384 14.428 30.508 17.732 44.982 7.348zM451.111 290c-17.795 0-32.222 14.428-32.222 32.222v64.444c0 17.795 14.428 32.222 32.222 32.222 17.795 0 32.222-14.428 32.222-32.222v-64.444c.001-17.794-14.427-32.222-32.222-32.222z"/></symbol><symbol viewBox="0 0 64 64" id="games" xmlns="http://www.w3.org/2000/svg"><path d="M32 28V4a3 3 0 00-3-3H5a3 3 0 00-3 3v24a3 3 0 003 3h24a3 3 0 003-3zm-2 0a1 1 0 01-1 1H5a1 1 0 01-1-1V4a1 1 0 011-1h24a1 1 0 011 1zm29.308 4.96l-23.845-2.727a3 3 0 00-3.321 2.64l-2.727 23.845a3 3 0 002.64 3.322L55.9 62.767a3.13 3.13 0 00.347.019 3 3 0 002.975-2.659l2.727-23.845a3 3 0 00-2.641-3.322zM57.233 59.9a1 1 0 01-1.106.88l-23.845-2.728a1 1 0 01-.88-1.107L34.129 33.1a1 1 0 01.992-.887.9.9 0 01.115.007l23.845 2.727a1 1 0 01.879 1.107z"/><path d="M46.363 40.539A6 6 0 1045 52.461a5.863 5.863 0 00.685.039 6 6 0 00.678-11.961zm3.292 6.415a4 4 0 11-6.463-3.585 4 4 0 016.463 3.585zM16 12a4 4 0 104 4 4 4 0 00-4-4zm0 6a2 2 0 112-2 2 2 0 01-2 2zm-6-5a4 4 0 10-4-4 4 4 0 004 4zm0-6a2 2 0 11-2 2 2 2 0 012-2zm14 12a4 4 0 104 4 4 4 0 00-4-4zm0 6a2 2 0 112-2 2 2 0 01-2 2zM7 26H6a1 1 0 000 2h1a1 1 0 000-2zm8 0h-5a1 1 0 000 2h5a1 1 0 000-2z"/></symbol><symbol viewBox="0 0 354.796 354.796" id="give-money" xmlns="http://www.w3.org/2000/svg"><path d="M265.442 109.092c-10.602-4.25-13.665-6.82-13.665-11.461 0-3.714 2.813-8.053 10.744-8.053 7.015 0 12.395 2.766 12.443 2.79a3.911 3.911 0 001.83.463 3.695 3.695 0 003.456-2.367l1.927-4.926c.671-1.795-.347-3.359-1.645-3.92-4.319-1.88-12.76-3.335-12.846-3.35-.136-.024-.609-.125-.609-.678l-.027-7.146c0-2.152-1.797-3.904-4.003-3.904h-3.457c-2.204 0-4 1.751-4 3.905l.009 7.513c0 .576-.624.826-.852.879-10.655 2.538-17.314 10.343-17.314 20.188 0 12.273 10.145 17.819 21.099 21.982 8.757 3.438 12.329 6.924 12.329 12.037 0 5.564-5.059 9.45-12.307 9.45-6.189 0-14.565-3.923-14.648-3.963a3.913 3.913 0 00-1.688-.382 3.74 3.74 0 00-3.537 2.457l-1.84 4.982c-.654 1.86.353 3.37 1.642 4.042 5.144 2.679 15.098 4.249 15.541 4.318.119.017.725.23.725.784v7.48c0 2.152 1.797 3.904 4.004 3.904h3.572c2.208 0 4.005-1.751 4.005-3.904v-7.872c0-.736.543-.801.655-.828 11.351-2.55 18.343-10.855 18.343-21.283-.003-10.711-5.951-17.632-19.886-23.137z"/><path d="M260.979 22.509c-51.816 0-93.818 42.005-93.818 93.818 0 51.814 42.002 93.82 93.818 93.82 51.814 0 93.817-42.006 93.817-93.82 0-51.813-42.003-93.818-93.817-93.818zm0 165.895c-39.808 0-72.076-32.271-72.076-72.076s32.268-72.075 72.076-72.075c39.806 0 72.073 32.27 72.073 72.075s-32.267 72.076-72.073 72.076zm74.754 67.206c-19.95 11.011-47.389 21.192-74.753 25.484-24.346 3.818-70.148-5.39-70.148-16.265 0-4.121 40.17 10.154 64.469 3.671 18.633-4.971 15.988-22.401 5.853-24.7-10.076-2.287-69.108-23.913-94.323-24.659-11.878-.351-41.203 4.131-55.393 6.442-4.861.791-7.909.704-8.213 5.356-1.412 21.62-4.195 65.832-5.712 88.926-.032.488.646 7.05 6.061 2.432 5.927-5.054 14.24-10.656 21.929-8.912 12.063 2.737 116.424 21.856 130.819 18.51 20.593-4.787 78.888-39.334 90.065-50.072 17.324-16.647 3.857-34.222-10.654-26.213zM74.426 224.74l-54.672-2.694c-4.221-.208-8.532 2.973-9.581 7.066L.232 319.367c-1.048 4.094 1.55 7.578 5.773 7.741l60.59-.006c4.224.163 7.942-3.151 8.266-7.365l6.654-86.958a7.458 7.458 0 00-7.089-8.039zM42.24 315.145c-8.349 0-15.116-6.768-15.116-15.116 0-8.349 6.768-15.116 15.116-15.116s15.116 6.768 15.116 15.116c0 8.349-6.767 15.116-15.116 15.116z"/></symbol><symbol viewBox="0 0 512 512" id="gmail" xmlns="http://www.w3.org/2000/svg"><g fill="#f2f2f2"><path d="M484.973 122.808l-32.685 328.209H59.712L33.379 129.16 256 253.802z"/><path d="M473.886 60.983L256 265.659 38.114 60.983H256z"/></g><path d="M59.712 155.493v295.524H24.139C10.812 451.017 0 440.206 0 426.878V111.967l39 1.063 20.712 42.463z" fill="#f14336"/><path d="M512 111.967v314.912c0 13.327-10.812 24.139-24.152 24.139h-35.56V155.493l19.692-46.525 40.02 2.999z" fill="#d32e2a"/><path d="M512 85.122v26.845l-59.712 43.526L256 298.561 59.712 155.493 0 111.967V85.122c0-13.327 10.812-24.139 24.139-24.139h13.975L256 219.792 473.886 60.983h13.962c13.34 0 24.152 10.811 24.152 24.139z" fill="#f14336"/><path fill="#d32e2a" d="M59.712 155.493L0 146.235v-34.268z"/></symbol><symbol viewBox="0 0 512 512" id="help" xmlns="http://www.w3.org/2000/svg"><path d="M512 346.5c0-63.535-36.45-120.238-91.04-147.82-1.694 121.82-100.46 220.586-222.28 222.28C226.262 475.55 282.965 512 346.5 512c29.79 0 58.758-7.934 84.21-23.008l80.567 22.285-22.285-80.566C504.066 405.258 512 376.289 512 346.5zm0 0"/><path d="M391 195.5C391 87.7 303.3 0 195.5 0S0 87.7 0 195.5c0 35.133 9.352 69.34 27.11 99.371L.718 390.277l95.41-26.386C126.16 381.648 160.367 391 195.5 391 303.3 391 391 303.3 391 195.5zM165.5 150h-30c0-33.086 26.914-60 60-60s60 26.914 60 60c0 16.793-7.11 32.934-19.512 44.277L210.5 217.605V241h-30v-36.605l35.234-32.25c6.297-5.762 9.766-13.625 9.766-22.145 0-16.543-13.457-30-30-30s-30 13.457-30 30zm15 121h30v30h-30zm0 0"/></symbol><symbol viewBox="0 0 107.99 110.11" id="highProfit" xmlns="http://www.w3.org/2000/svg"><g data-name="Слой 2"><g data-name="Layer 1"><path class="bgaocls-1" d="M26.36 71.25H14.7V58.67h11.66zm-7.78-3.89h3.89v-4.8h-3.89zm24.51 3.89H31.43V52.7h11.66zm-7.77-3.89h3.88V56.59h-3.88zm24.5 3.89H48.17V46.73h11.65zm-7.77-3.89h3.89V50.62h-3.89zm24.51 3.89H64.9V40.76h11.66zm-7.77-3.89h3.88V44.65h-3.88zm24.5 3.89H81.63V34.79h11.66zm-7.77-3.89h3.89V38.68h-3.89zM108 86.48H0V75.13h108zM3.89 82.6H104.1V79H3.89zm60.68-71.25H43.42V0h21.15zM47.3 7.47h13.39V3.89H47.3zm55.48 14.43H98.9V11.35H88.35V7.47h14.43V21.9z"/><path class="bgaocls-1" d="M102.78 79.02H5.2V7.47h75.87v3.88H9.09v63.78H98.9V29.18h3.88v49.84zm-50.73 5.52h3.89v23.63h-3.89z"/><path class="bgaocls-1" d="M30.05 106.23h47.89v3.89H30.05zM8.52 53.37l-2.75-2.75 18.41-18.41 8.52 8.52L49.73 23.7l8.52 8.51 17.04-17.03 8.52 8.52L99.47 8.04l2.75 2.74-18.41 18.41-8.52-8.52-17.04 17.04-8.52-8.52L32.7 46.23l-8.52-8.52L8.52 53.37z"/></g></g></symbol><symbol viewBox="0 0 495.398 495.398" id="home-icon-silhouette" xmlns="http://www.w3.org/2000/svg"><path d="M487.083 225.514l-75.08-75.08v-86.73c0-15.682-12.708-28.391-28.413-28.391-15.669 0-28.377 12.709-28.377 28.391v29.941L299.31 37.74c-27.639-27.624-75.694-27.575-103.27.05L8.312 225.514c-11.082 11.104-11.082 29.071 0 40.158 11.087 11.101 29.089 11.101 40.172 0l187.71-187.729c6.115-6.083 16.893-6.083 22.976-.018l187.742 187.747a28.337 28.337 0 0020.081 8.312c7.271 0 14.541-2.764 20.091-8.312 11.086-11.086 11.086-29.053-.001-40.158z"/><path d="M257.561 131.836c-5.454-5.451-14.285-5.451-19.723 0L72.712 296.913a13.977 13.977 0 00-4.085 9.877v120.401c0 28.253 22.908 51.16 51.16 51.16h81.754v-126.61h92.299v126.61h81.755c28.251 0 51.159-22.907 51.159-51.159V306.79c0-3.713-1.465-7.271-4.085-9.877L257.561 131.836z"/></symbol><symbol viewBox="0 0 117.24 120.91" id="keyboard" xmlns="http://www.w3.org/2000/svg"><g data-name="Слой 2"><g data-name="Layer 1"><path class="biakcls-1" d="M113.4 68.07h-11.33v-3.89h11.33l-.05-41.51H3.83v41.51h7.51v3.89H3.83A3.84 3.84 0 010 64.23V22.67a3.82 3.82 0 013.83-3.83H113.4a3.82 3.82 0 013.84 3.83v41.56a3.86 3.86 0 01-3.84 3.84z"/><path class="biakcls-1" d="M41.62 64.18h34.01v3.89H41.62z"/><path class="biakcls-1" d="M77.56 83.13h-3.88V54.79a5.72 5.72 0 1111.44 0v18.89h-3.89V54.79a1.84 1.84 0 00-.53-1.3 1.89 1.89 0 00-2.6 0 1.85 1.85 0 00-.54 1.3z"/><path class="biakcls-1" d="M92.68 73.68h-3.89V67a1.81 1.81 0 00-.54-1.3 1.88 1.88 0 00-2.59 0 1.81 1.81 0 00-.54 1.3v6.69h-3.89V67a5.73 5.73 0 0111.45 0z"/><path class="biakcls-1" d="M100.23 73.68h-3.88V67a1.81 1.81 0 00-.54-1.3 1.89 1.89 0 00-2.6 0 1.84 1.84 0 00-.53 1.3v6.69h-3.89V67a5.72 5.72 0 1111.44 0z"/><path class="biakcls-1" d="M102.12 107.68h-3.88v-6l5.66-15.11V69.9a1.86 1.86 0 00-.53-1.3 1.89 1.89 0 00-2.6 0 1.87 1.87 0 00-.54 1.3v3.78h-3.88V69.9a5.72 5.72 0 1111.44 0v17.36l-5.67 15.11zm-22.67 0h-3.88v-4.88c-2.14-2.28-9.45-10.57-9.45-17.74v-7.6a5.72 5.72 0 1111.44 0h-3.88a1.82 1.82 0 00-.54-1.3 1.89 1.89 0 00-2.6 0 1.86 1.86 0 00-.53 1.3v7.6c0 5.49 6.41 13.11 8.87 15.58l.57.57z"/><path class="biakcls-1" d="M104 120.91h-3.88v-11.34l-22.62.06v11.28h-3.82v-11.34a3.76 3.76 0 011.12-2.7 3.81 3.81 0 012.71-1.13h22.67a3.82 3.82 0 013.83 3.83zM43.56 83.13h-3.89V58.57a1.81 1.81 0 00-.54-1.3 1.87 1.87 0 00-2.59 0 1.81 1.81 0 00-.54 1.3v15.11h-3.88V58.57a5.72 5.72 0 1111.44 0z"/><path class="biakcls-1" d="M36 73.68h-3.88V54.79a1.85 1.85 0 00-.54-1.3 1.89 1.89 0 00-2.6 0 1.84 1.84 0 00-.53 1.3v18.89h-3.89V54.79a5.72 5.72 0 1111.44 0z"/><path class="biakcls-1" d="M28.45 73.68h-3.89V58.57a1.81 1.81 0 00-.54-1.3 1.88 1.88 0 00-2.59 0 1.81 1.81 0 00-.54 1.3v15.11H17V58.57a5.73 5.73 0 0111.45 0z"/><path class="biakcls-1" d="M19 107.68h-3.89v-5.31L9.45 87.26V62.34a5.72 5.72 0 0111.44 0v11.34H17V62.34a1.82 1.82 0 00-.54-1.3 1.87 1.87 0 00-2.59 0 1.78 1.78 0 00-.54 1.29v24.22L19 101.66zm22.67 0h-3.89v-6.47l.57-.57c2.47-2.47 8.88-10.09 8.88-15.58v-7.6a1.82 1.82 0 00-.54-1.3 1.88 1.88 0 00-2.59 0 1.82 1.82 0 00-.54 1.3h-3.89a5.73 5.73 0 0111.45 0v7.6c0 7.17-7.31 15.46-9.45 17.74z"/><path class="biakcls-1" d="M43.56 120.91h-3.89v-11.34l-22.61.06.05 11.28h-3.89v-11.34a3.84 3.84 0 013.84-3.83h22.67a3.84 3.84 0 013.83 3.83zm17-100.13h-3.88V17a1.84 1.84 0 00-1.84-1.83H43.51a5.73 5.73 0 010-11.45h22.66A1.83 1.83 0 0068 1.89V0h3.9v1.89a5.67 5.67 0 01-1.68 4 5.66 5.66 0 01-4 1.68H43.51a1.79 1.79 0 00-1.3.54 1.82 1.82 0 00-.54 1.3 1.78 1.78 0 00.54 1.29 1.81 1.81 0 001.3.54h11.33A5.74 5.74 0 0160.56 17zM11.39 26.4h3.78v3.89h-3.78zm7.56 0h3.78v3.89h-3.78zm7.55 0h3.78v3.89H26.5zm7.56 0h3.78v3.89h-3.78zm7.56 0h3.78v3.89h-3.78zm7.55 0h3.78v3.89h-3.78zm7.56 0h3.78v3.89h-3.78zm7.56 0h3.78v3.89h-3.78zm7.55 0h3.78v3.89h-3.78zm7.56 0h3.78v3.89H79.4zm7.56 0h3.78v3.89h-3.78zm7.55 0h3.78v3.89h-3.78zm7.56 0h3.78v3.89h-3.78zM7.61 33.95h3.78v3.89H7.61zm7.56 0h3.78v3.89h-3.78zm7.55 0h3.78v3.89h-3.78zm7.56 0h3.78v3.89h-3.78zm7.56 0h3.78v3.89h-3.78zm7.55 0h3.78v3.89h-3.78zm7.56 0h3.78v3.89h-3.78zm7.56 0h3.78v3.89h-3.78zm7.55 0h3.78v3.89h-3.78zm7.56 0h3.78v3.89h-3.78zm7.56 0h3.78v3.89h-3.78zm7.55 0h3.78v3.89h-3.78zm7.56 0h3.78v3.89h-3.78zm7.56 0h3.78v3.89h-3.78zm-94.46 7.56h3.78v3.89h-3.78zm7.56 0h3.78v3.89h-3.78zm7.55 0h3.78v3.89H26.5zm7.56 0h3.78v3.89h-3.78zm7.56 0h3.78v3.89h-3.78zm7.55 0h3.78v3.89h-3.78zm7.56 0h3.78v3.89h-3.78zm7.56 0h3.78v3.89h-3.78zm7.55 0h3.78v3.89h-3.78zm7.56 0h3.78v3.89H79.4zm7.56 0h3.78v3.89h-3.78zm7.55 0h3.78v3.89h-3.78zm7.56 0h3.78v3.89h-3.78zM7.61 49.07h3.78v3.89H7.61zm7.56 0h3.78v3.89h-3.78zm30.22 0h3.78v3.89h-3.78zm7.56 0h3.78v3.89h-3.78zm7.56 0h3.78v3.89h-3.78zm7.55 0h3.78v3.89h-3.78zm30.23 0h3.78v3.89h-3.78zm-7.56 0h3.78v3.89h-3.78zm15.12 0h3.78v3.89h-3.78zm-56.68 7.55h18.89v3.89H49.17z"/></g></g></symbol><symbol viewBox="0 0 492 492" id="left-arrow" xmlns="http://www.w3.org/2000/svg"><path d="M464.344 207.418l.768.168H135.888l103.496-103.724c5.068-5.064 7.848-11.924 7.848-19.124 0-7.2-2.78-14.012-7.848-19.088L223.28 49.538c-5.064-5.064-11.812-7.864-19.008-7.864-7.2 0-13.952 2.78-19.016 7.844L7.844 226.914C2.76 231.998-.02 238.77 0 245.974c-.02 7.244 2.76 14.02 7.844 19.096l177.412 177.412c5.064 5.06 11.812 7.844 19.016 7.844 7.196 0 13.944-2.788 19.008-7.844l16.104-16.112c5.068-5.056 7.848-11.808 7.848-19.008 0-7.196-2.78-13.592-7.848-18.652L134.72 284.406h329.992c14.828 0 27.288-12.78 27.288-27.6v-22.788c0-14.82-12.828-26.6-27.656-26.6z"/></symbol><symbol viewBox="0 0 94.4 111.84" id="money-tree" xmlns="http://www.w3.org/2000/svg"><g data-name="Слой 2"><g data-name="Layer 1"><path class="bkarcls-1" d="M94.29 54.38H.11V0h94.18zM4 50.5h86.4V3.89H4z"/><path class="bkarcls-1" d="M78.44 47.58H16v-1.94a7.11 7.11 0 00-7.1-7.1H6.91v-22.7h1.94A7.1 7.1 0 0016 8.74V6.8h62.44v1.94a7.11 7.11 0 007.1 7.1h1.95v22.7h-1.95a7.11 7.11 0 00-7.1 7.1zM19.67 43.7h55.06a11 11 0 018.87-8.87V19.56a11 11 0 01-8.87-8.87H19.67a11 11 0 01-8.87 8.87v15.27a11 11 0 018.87 8.87z"/><path class="bkarcls-1" d="M70.53 25.25h4.32v3.89h-4.32zm-50.98 0h4.32v3.89h-4.32zM47.2 41.23a14 14 0 1114-14 14.06 14.06 0 01-14 14zm0-24.23a10.15 10.15 0 1010.15 10.19A10.16 10.16 0 0047.2 17zm-1.95 35.44h3.89v57.46h-3.89z"/><path class="bkarcls-1" d="M0 107.95h94.4v3.89H0zm75.93-26.89H53.46V70.91a10.16 10.16 0 0110.16-10.15h22.46v10.15a10.14 10.14 0 01-10.15 10.15zm-18.58-3.89h18.58a6.25 6.25 0 006.26-6.26v-6.27H63.62a6.28 6.28 0 00-6.27 6.27zM40.93 97.48H18.47A10.16 10.16 0 018.32 87.32V77.17h22.46a10.16 10.16 0 0110.15 10.15zM12.2 81.06v6.26a6.27 6.27 0 006.27 6.27h18.58v-6.27a6.27 6.27 0 00-6.27-6.26z"/></g></g></symbol><symbol viewBox="0 0 80.13 80.13" id="multiple-users-silhouette" xmlns="http://www.w3.org/2000/svg"><path d="M48.355 17.922c3.705 2.323 6.303 6.254 6.776 10.817a11.69 11.69 0 004.966 1.112c6.491 0 11.752-5.261 11.752-11.751 0-6.491-5.261-11.752-11.752-11.752-6.429.002-11.644 5.169-11.742 11.574zm-7.699 24.062c6.491 0 11.752-5.262 11.752-11.752s-5.262-11.751-11.752-11.751c-6.49 0-11.754 5.262-11.754 11.752s5.264 11.751 11.754 11.751zm4.985.801h-9.972c-8.297 0-15.047 6.751-15.047 15.048v12.195l.031.191.84.263c7.918 2.474 14.797 3.299 20.459 3.299 11.059 0 17.469-3.153 17.864-3.354l.785-.397h.084V57.833c.003-8.297-6.747-15.048-15.044-15.048zm19.443-12.132h-9.895a14.483 14.483 0 01-4.47 10.088c7.375 2.193 12.771 9.032 12.771 17.11v3.758c9.77-.358 15.4-3.127 15.771-3.313l.785-.398h.084V45.699c0-8.296-6.75-15.046-15.046-15.046zm-45.049-.8c2.299 0 4.438-.671 6.25-1.814a14.544 14.544 0 015.467-9.276c.012-.22.033-.438.033-.66 0-6.491-5.262-11.752-11.75-11.752-6.492 0-11.752 5.261-11.752 11.752 0 6.488 5.26 11.75 11.752 11.75zm10.554 10.888a14.492 14.492 0 01-4.467-10.032c-.367-.027-.73-.056-1.104-.056h-9.971C6.75 30.653 0 37.403 0 45.699v12.197l.031.188.84.265c6.352 1.983 12.021 2.897 16.945 3.185v-3.683c.002-8.078 5.396-14.915 12.773-17.11z"/></symbol><symbol viewBox="0 0 111.84 116.16" id="note" xmlns="http://www.w3.org/2000/svg"><g data-name="Слой 2"><g data-name="Layer 1"><path class="bmalcls-1" d="M85.72 116.16H0V13.49h85.72v3.89H3.89v94.89h81.83v3.89z"/><path class="bmalcls-1" d="M85.72 17.38H0V0h85.72v3.89H3.89v9.6h81.83v3.89z"/><path class="bmalcls-1" d="M23.61 6.75h3.89v3.89h-3.89zm-7.78 0h3.89v3.89h-3.89zm-7.77 0h3.89v3.89H8.06zM85.72 108.1H8.06V21.56h77.66v3.88H11.95v78.77h73.77v3.89z"/><path class="bmalcls-1" d="M36.22 32.66h39.69v3.89H36.22zm0 8.63h19.85v3.89H36.22zm-12.21 4.32l-6.44-6.43 2.75-2.75 3.69 3.69 6.52-6.52 2.74 2.74-9.26 9.27zm12.21 4.32h39.69v3.89H36.22zm0 8.64h19.85v3.89H36.22zm-12.21 4.31l-6.44-6.43 2.75-2.75 3.69 3.69 6.52-6.52 2.74 2.75-9.26 9.26zm12.21 4.32h39.69v3.89H36.22zm0 8.64h19.85v3.89H36.22zm-4.53 3.88H19.16V67.2h12.53zm-8.64-3.88h4.75v-4.75h-4.75zm13.17 8.63h39.69v3.89H36.22zm0 8.64h19.85V97H36.22zM31.69 97H19.16V84.47h12.53zm-8.64-3.89h4.75v-4.75h-4.75zm77.13-77.67h3.89v75.21h-3.89z"/><path class="bmalcls-1" d="M102.13 115.94l-9.72-17v-83.5h3.89v82.47l5.83 10.2 5.82-10.2V15.44h3.89v83.5l-9.71 17z"/><path class="bmalcls-1" d="M108.52 99.8l-6.39-6.4-6.4 6.4-2.75-2.75 9.15-9.15 9.14 9.15-2.75 2.75zm3.32-82.42H92.41V5.83A5.84 5.84 0 0198.24 0H106a5.84 5.84 0 015.83 5.83zm-15.55-3.89H108V5.83a2 2 0 00-2-1.94h-7.76a2 2 0 00-1.95 1.94z"/></g></g></symbol><symbol viewBox="0 0 512.002 512.002" id="nutra" xmlns="http://www.w3.org/2000/svg"><path d="M329.941 74.505c-6.954-26.027-23.553-47.733-46.738-61.119A100.057 100.057 0 00233.245 0c-35.948 0-69.373 19.214-87.23 50.144l-63.284 109.61-.019.029-.016.031L19.41 269.427C-8.278 317.385 8.214 378.928 56.172 406.616A100.037 100.037 0 00106.123 420c32.786 0 63.559-15.872 82.316-42.457.172-.244.333-.495.482-.752l131.037-226.202c13.377-23.094 16.922-50.113 9.983-76.084zM171.846 366.366C156.807 387.435 132.272 400 106.123 400a80.012 80.012 0 01-39.951-10.705c-38.408-22.174-51.615-71.461-29.441-109.869l58.303-100.983 21.646 12.497c.002.001.003.003.005.003l.004.002 117.482 67.831-62.325 107.59zm130.805-225.804l-58.456 100.91-108.851-62.847 27.976-48.456c2.761-4.783 1.123-10.899-3.66-13.66-4.783-2.762-10.899-1.123-13.66 3.66l-27.976 48.456-12.991-7.5 58.301-100.98C177.631 35.382 204.419 20 233.245 20a80.02 80.02 0 0139.958 10.707c18.555 10.712 31.843 28.101 37.416 48.961 5.558 20.804 2.728 42.43-7.968 60.894zM462.253 342.82c-24.418-6.977-56.62-10.819-90.673-10.819-34.053 0-66.254 3.842-90.672 10.819-29.012 8.289-43.737 19.959-43.771 34.686 0 .018-.003.034-.003.051v88.888c0 14.778 14.704 26.473 43.702 34.758 24.372 6.964 56.599 10.799 90.742 10.799s66.37-3.835 90.742-10.799c28.999-8.285 43.702-19.98 43.702-34.758v-88.826a.625.625 0 00.004-.062c0-14.751-14.728-26.439-43.773-34.737zm-175.85 19.231c22.682-6.48 52.932-10.049 85.178-10.049 32.247 0 62.497 3.569 85.179 10.049 24.111 6.889 29.237 14.288 29.266 15.495l-.001.012v.017c-.041 1.22-5.183 8.608-29.265 15.489-22.682 6.48-52.932 10.049-85.179 10.049-32.246 0-62.496-3.569-85.178-10.049-24.179-6.908-29.267-14.331-29.267-15.506 0-1.175 5.088-8.599 29.267-15.507zm199.623 104.394c-.002 1.426-5.197 8.67-29.198 15.528-22.636 6.467-52.911 10.029-85.248 10.029-32.338 0-62.612-3.561-85.248-10.029-24.001-6.857-29.196-14.102-29.196-15.528V403.13c6.403 3.405 14.326 6.465 23.773 9.164 24.418 6.977 56.619 10.819 90.672 10.819s66.255-3.842 90.673-10.819c9.446-2.699 17.367-5.758 23.771-9.163v24.956c-14.348 7.1-32.246 12.85-52.205 16.731-5.422 1.054-8.962 6.303-7.908 11.725.929 4.777 5.114 8.093 9.806 8.093.633 0 1.275-.061 1.919-.186 17.812-3.463 34.238-8.363 48.389-14.377v16.372z"/><path d="M174.683 90.486c-4.783-2.761-10.898-1.123-13.66 3.66l-.162.281c-2.761 4.783-1.123 10.898 3.66 13.66a9.995 9.995 0 0013.66-3.66l.162-.281c2.762-4.783 1.123-10.898-3.66-13.66zm241.03 367.475a9.994 9.994 0 00-10.945-8.955l-.225.022c-5.498.52-9.533 5.4-9.012 10.898.49 5.177 4.846 9.057 9.943 9.057.315 0 .635-.015.955-.045l.329-.032c5.495-.549 9.505-5.45 8.955-10.945z"/></symbol><symbol viewBox="0 0 373.482 373.482" id="paper-clip" xmlns="http://www.w3.org/2000/svg"><path d="M355.488 84.873c-2.401-22.768-13.499-43.217-31.249-57.579l-10.213-8.266C298.863 6.757 279.765 0 260.246 0c-26.031 0-50.317 11.563-66.632 31.726L36.583 225.781c-14.386 17.773-20.989 40.088-18.591 62.831 2.398 22.741 13.51 43.188 31.288 57.576l10.213 8.266c15.161 12.271 34.258 19.028 53.772 19.028 3.013 0 6.061-.161 9.059-.479 22.604-2.383 42.957-13.367 57.251-30.859.048-.056.076-.089 105.94-130.895 18.854-23.303 15.236-57.602-8.063-76.458l-5.353-4.329a54.453 54.453 0 00-34.149-12.083c-16.527 0-31.947 7.343-42.307 20.145L89.902 269.192c-6.909 8.54-5.584 21.11 2.956 28.021a19.973 19.973 0 0012.521 4.434 19.852 19.852 0 0015.5-7.389L226.618 163.59c2.766-3.417 6.886-5.377 11.302-5.377 3.356 0 6.507 1.115 9.113 3.224l5.354 4.334a14.412 14.412 0 015.295 9.762c.406 3.862-.709 7.645-3.144 10.651L148.92 316.704c-8.721 10.77-21.703 16.945-35.618 16.946a45.824 45.824 0 01-28.744-10.171l-10.213-8.264c-9.504-7.693-15.445-18.625-16.726-30.781-1.282-12.157 2.247-24.088 9.938-33.59L224.589 56.791c8.721-10.776 21.707-16.957 35.628-16.957a45.828 45.828 0 0128.744 10.169l10.212 8.264c19.619 15.877 22.664 44.754 6.789 64.372a19.794 19.794 0 00-4.326 14.623 19.798 19.798 0 007.28 13.397 19.974 19.974 0 0012.522 4.436 19.85 19.85 0 0015.498-7.39c14.365-17.75 20.954-40.065 18.552-62.832z"/></symbol><symbol viewBox="0 0 482.14 482.14" id="pdf-file" xmlns="http://www.w3.org/2000/svg"><path d="M142.024 310.194c0-8.007-5.556-12.782-15.359-12.782-4.003 0-6.714.395-8.132.773v25.69c1.679.378 3.743.504 6.588.504 10.449 0 16.903-5.279 16.903-14.185zm60.685-12.513c-4.39 0-7.227.379-8.905.772v56.896c1.679.394 4.39.394 6.841.394 17.809.126 29.424-9.677 29.424-30.449.126-18.063-10.458-27.613-27.36-27.613z"/><path d="M315.458 0H121.811c-28.29 0-51.315 23.041-51.315 51.315v189.754h-5.012c-11.418 0-20.678 9.251-20.678 20.679v125.404c0 11.427 9.259 20.677 20.678 20.677h5.012v22.995c0 28.305 23.025 51.315 51.315 51.315h264.223c28.272 0 51.3-23.011 51.3-51.315V121.449L315.458 0zM99.053 284.379c6.06-1.024 14.578-1.796 26.579-1.796 12.128 0 20.772 2.315 26.58 6.965 5.548 4.382 9.292 11.615 9.292 20.127 0 8.51-2.837 15.745-7.999 20.646-6.714 6.32-16.643 9.157-28.258 9.157-2.585 0-4.902-.128-6.714-.379v31.096h-19.48v-85.816zm286.981 166.334H121.811c-10.954 0-19.874-8.92-19.874-19.889v-22.995h246.31c11.42 0 20.679-9.25 20.679-20.677V261.748c0-11.428-9.259-20.679-20.679-20.679h-246.31V51.315c0-10.938 8.921-19.858 19.874-19.858l181.89-.19V98.5c0 19.638 15.934 35.587 35.587 35.587l65.862-.189.741 296.925c0 10.97-8.904 19.89-19.857 19.89zm-211.969-80.912v-85.422c7.225-1.15 16.642-1.796 26.58-1.796 16.516 0 27.226 2.963 35.618 9.282 9.031 6.714 14.704 17.416 14.704 32.781 0 16.643-6.06 28.133-14.453 35.224-9.157 7.612-23.096 11.222-40.125 11.222-10.198 0-17.423-.646-22.324-1.291zm140.827-50.575v15.996h-31.23v34.973h-19.74v-86.966h53.16v16.122h-33.42v19.875h31.23z"/></symbol><symbol viewBox="0 0 512.002 512.002" id="pills" xmlns="http://www.w3.org/2000/svg"><path d="M329.941 74.505c-6.954-26.027-23.553-47.733-46.738-61.119A100.057 100.057 0 00233.245 0c-35.948 0-69.373 19.214-87.23 50.144l-63.284 109.61-.019.029-.016.031L19.41 269.427C-8.278 317.385 8.214 378.928 56.172 406.616A100.037 100.037 0 00106.123 420c32.786 0 63.559-15.872 82.316-42.457.172-.244.333-.495.482-.752l131.037-226.202c13.377-23.094 16.922-50.113 9.983-76.084zM171.846 366.366C156.807 387.435 132.272 400 106.123 400a80.012 80.012 0 01-39.951-10.705c-38.408-22.174-51.615-71.461-29.441-109.869l58.303-100.983 21.646 12.497c.002.001.003.003.005.003l.004.002 117.482 67.831-62.325 107.59zm130.805-225.804l-58.456 100.91-108.851-62.847 27.976-48.456c2.761-4.783 1.123-10.899-3.66-13.66-4.783-2.762-10.899-1.123-13.66 3.66l-27.976 48.456-12.991-7.5 58.301-100.98C177.631 35.382 204.419 20 233.245 20a80.02 80.02 0 0139.958 10.707c18.555 10.712 31.843 28.101 37.416 48.961 5.558 20.804 2.728 42.43-7.968 60.894zM462.253 342.82c-24.418-6.977-56.62-10.819-90.673-10.819-34.053 0-66.254 3.842-90.672 10.819-29.012 8.289-43.737 19.959-43.771 34.686 0 .018-.003.034-.003.051v88.888c0 14.778 14.704 26.473 43.702 34.758 24.372 6.964 56.599 10.799 90.742 10.799s66.37-3.835 90.742-10.799c28.999-8.285 43.702-19.98 43.702-34.758v-88.826a.625.625 0 00.004-.062c0-14.751-14.728-26.439-43.773-34.737zm-175.85 19.231c22.682-6.48 52.932-10.049 85.178-10.049 32.247 0 62.497 3.569 85.179 10.049 24.111 6.889 29.237 14.288 29.266 15.495l-.001.012v.017c-.041 1.22-5.183 8.608-29.265 15.489-22.682 6.48-52.932 10.049-85.179 10.049-32.246 0-62.496-3.569-85.178-10.049-24.179-6.908-29.267-14.331-29.267-15.506 0-1.175 5.088-8.599 29.267-15.507zm199.623 104.394c-.002 1.426-5.197 8.67-29.198 15.528-22.636 6.467-52.911 10.029-85.248 10.029-32.338 0-62.612-3.561-85.248-10.029-24.001-6.857-29.196-14.102-29.196-15.528V403.13c6.403 3.405 14.326 6.465 23.773 9.164 24.418 6.977 56.619 10.819 90.672 10.819s66.255-3.842 90.673-10.819c9.446-2.699 17.367-5.758 23.771-9.163v24.956c-14.348 7.1-32.246 12.85-52.205 16.731-5.422 1.054-8.962 6.303-7.908 11.725.929 4.777 5.114 8.093 9.806 8.093.633 0 1.275-.061 1.919-.186 17.812-3.463 34.238-8.363 48.389-14.377v16.372z"/><path d="M174.683 90.486c-4.783-2.761-10.898-1.123-13.66 3.66l-.162.281c-2.761 4.783-1.123 10.898 3.66 13.66a9.995 9.995 0 0013.66-3.66l.162-.281c2.762-4.783 1.123-10.898-3.66-13.66zm241.03 367.475a9.994 9.994 0 00-10.945-8.955l-.225.022c-5.498.52-9.533 5.4-9.012 10.898.49 5.177 4.846 9.057 9.943 9.057.315 0 .635-.015.955-.045l.329-.032c5.495-.549 9.505-5.45 8.955-10.945z"/></symbol><symbol viewBox="0 0 27 7" id="points" xmlns="http://www.w3.org/2000/svg"><path d="M3.5 0a3.5 3.5 0 110 7 3.5 3.5 0 010-7zm10 0a3.5 3.5 0 110 7 3.5 3.5 0 010-7zm10 0a3.5 3.5 0 110 7 3.5 3.5 0 010-7z"/></symbol><symbol viewBox="0 0 480.008 480" id="pornography" xmlns="http://www.w3.org/2000/svg"><path d="M440.004.004h-400C17.922.03.03 17.922.004 40.004v320c.027 22.082 17.918 39.973 40 40h110.922l-26.664 32H48.004a7.995 7.995 0 00-5 1.754l-40 32a8 8 0 005 14.246h464a8 8 0 005-14.246l-40-32a7.995 7.995 0 00-5-1.754h-76.258l-26.664-32h110.922c22.082-.027 39.973-17.918 40-40v-320c-.027-22.082-17.918-39.973-40-40zm9.191 464H30.812l20-16h378.399zm-114.27-32H145.083l26.664-32h136.516zm129.079-72c0 13.254-10.746 24-24 24h-400c-13.254 0-24-10.746-24-24v-320c0-13.254 10.746-24 24-24h400c13.254 0 24 10.746 24 24zm0 0"/><path d="M440.004 32.004h-400a8 8 0 00-8 8v320a8 8 0 008 8h400a8 8 0 008-8v-320a8 8 0 00-8-8zm-8 16v48h-384v-48zM177.758 305.707a78.947 78.947 0 0010.773-70.129l-3.96-12.125a55.12 55.12 0 0051.44-20.914c14.313 18.309 38.462 25.848 60.65 18.938l-4.657 13.726a78.87 78.87 0 0010.496 70.938 62.525 62.525 0 0110.93 45.863H166.578a62.902 62.902 0 0111.18-46.297zm151.847 46.297a78.456 78.456 0 00-14.027-55.2 62.809 62.809 0 01-8.375-56.511l10.48-30.969c19.512-17.664 24-46.57 10.77-69.32l-13.84 8c9.746 16.809 6 38.191-8.875 50.691-14.875 12.496-36.582 12.496-51.46 0-14.876-12.5-18.622-33.882-8.876-50.691l-13.855-8a55.468 55.468 0 00-4.238 46.785 40 40 0 01-70.242 2.086 39.998 39.998 0 01.335-40.871l-13.855-8a55.889 55.889 0 0022.234 77.457l7.543 23.086a63.127 63.127 0 01-8.863 56.258 78.467 78.467 0 00-13.992 55.199H48.004v-240h384v240zm0 0"/><path d="M64.004 64.004h16v16h-16zm32 0h16v16h-16zm32 0h16v16h-16zm272 0h16v16h-16zm-168 216h16v16h-16zm0 0"/></symbol><symbol id="pou" viewBox="0 0 428.91 340.98" xmlns="http://www.w3.org/2000/svg"><defs><style>.btcls-1{fill:none;stroke:#ddd;stroke-miterlimit:10}.btcls-2{fill:#fff}.btcls-2,.btcls-3,.btcls-5,.btcls-8,.btcls-9{fill-rule:evenodd}.btcls-3{fill:#ddd}.btcls-5{fill:#727272}.btcls-8{fill:#e5e5e5}.btcls-9{fill:#ececec}</style></defs><g id="btСлой_1"><g id="bt_243447002288" data-name="243447002288"><path class="btcls-1" d="M49.31 270.18H419a9.47 9.47 0 009.44-9.44V9.94A9.47 9.47 0 00419 .5H49.31a9.48 9.48 0 00-9.47 9.44v250.8a9.48 9.48 0 009.47 9.44z"/><path id="bt_1" data-name="1" class="btcls-2" d="M49.31 270.18H419a9.47 9.47 0 009.44-9.44V9.94A9.47 9.47 0 00419 .5H49.31a9.48 9.48 0 00-9.47 9.44v250.8a9.48 9.48 0 009.47 9.44z"/><path class="btcls-3" d="M428.41 33.07V9.94A9.47 9.47 0 00419 .5H49.31a9.48 9.48 0 00-9.47 9.44v23.13z"/><path d="M97.88 11.44h298.94c1.52 0 2.77.34 2.77.77v12.64c0 .42-1.25.76-2.77.76H97.88c-1.52 0-2.77-.34-2.77-.76V12.21c0-.43 1.25-.77 2.77-.77z" stroke-width="3.95" fill="#cfcfcf" stroke="#cfcfcf" fill-rule="evenodd"/><path class="btcls-5" d="M409.28 13.43h11.39a1 1 0 011 1 1 1 0 01-1 1h-11.39a1 1 0 01-1-1 1 1 0 011-1zm0 4.08h11.39a1 1 0 011 1 1 1 0 01-1 1h-11.39a1 1 0 01-1-1 1 1 0 011-1zm0 4.08h11.39a1 1 0 011 1 1 1 0 01-1 1h-11.39a1 1 0 01-1-1 1 1 0 011-1zM79.53 22a4.13 4.13 0 014.65-6.81l.56-1c0-.06.12 0 .15 0L86 16.86a.07.07 0 010 .11l-2.84.25a.07.07 0 010-.11l.56-1a3 3 0 10.77 4.53.56.56 0 01.73-.11.57.57 0 01.15.85 4.17 4.17 0 01-5.84.62zm-16.58-8.18l7.37 4.71-7.37 4.7v-9.41zm-6.5 0l-7.36 4.71 7.36 4.7v-9.41z"/><path d="M55.38 42.34h357.5c2.83 0 5.13 1.5 5.13 3.34V257.6c0 1.81-2.3 3.31-5.13 3.31H55.38c-2.84 0-5.13-1.5-5.13-3.31V45.68c0-1.84 2.29-3.34 5.13-3.34z" fill="#90bc33" fill-rule="evenodd"/><g id="bt_243447003312" data-name="243447003312"><path class="btcls-1" d="M9.94 340.48H379.6a9.48 9.48 0 009.47-9.44V80.24a9.51 9.51 0 00-9.47-9.47H9.94A9.5 9.5 0 00.5 80.24V331a9.47 9.47 0 009.44 9.48z"/><path id="bt_1_0" data-name="1 0" class="btcls-2" d="M9.94 340.48H379.6a9.48 9.48 0 009.47-9.44V80.24a9.51 9.51 0 00-9.47-9.47H9.94A9.5 9.5 0 00.5 80.24V331a9.47 9.47 0 009.44 9.48z"/><path class="btcls-3" d="M389.07 103.37V80.24a9.51 9.51 0 00-9.47-9.47H9.94A9.5 9.5 0 00.5 80.24v23.13z"/><path d="M57.19 81.74h301c1.53 0 2.78.34 2.78.76v12.62c0 .42-1.25.79-2.78.79h-301c-1.53 0-2.76-.37-2.76-.79V82.5c0-.42 1.23-.76 2.76-.76z" stroke-width="3.99" fill="#cfcfcf" stroke="#cfcfcf" fill-rule="evenodd"/><path class="btcls-5" d="M369.9 83.7h11.43a1 1 0 011 1 1 1 0 01-1 1H369.9a1 1 0 01-1-1 1 1 0 011-1zm0 4.11h11.43a1 1 0 011 1 1 1 0 01-1 1H369.9a1.07 1.07 0 01-1-1 1 1 0 011-1zm0 4.08h11.43a1 1 0 011 1 1 1 0 01-1 1H369.9a1 1 0 01-1-1 1 1 0 011-1zm-329.72.39a4.13 4.13 0 014.62-6.83l.6-.93a.08.08 0 01.14 0l1.08 2.63c0 .06 0 .09-.06.09l-2.83.25c-.06 0-.12 0-.09-.11l.57-.93A3 3 0 1045 91a.61.61 0 01.74-.11.56.56 0 01.14.85 4.12 4.12 0 01-5.7.54zm-16.61-8.16l7.37 4.71-7.37 4.67v-9.38zm-6.49 0l-7.37 4.71 7.37 4.67v-9.38z"/><g id="bt_243447002480" data-name="243447002480"><path class="btcls-8" d="M40.55 172.11H239a1 1 0 011 1v68.51a1 1 0 01-1 1H40.55a1 1 0 01-1-1V173.1a1 1 0 011-.99z"/><path class="btcls-9" d="M40.55 253.52H239a1 1 0 011 1v6.91a1 1 0 01-1 1H40.55a1 1 0 01-1-1v-6.91a1 1 0 011-1z"/><path class="btcls-8" d="M40.55 270h85.24a1 1 0 011 1v7a1 1 0 01-1 1H40.55a1 1 0 01-1-1v-6.89a1 1 0 011-1.11z"/><path class="btcls-9" d="M40.55 286.6H239a1 1 0 011 1v6.91a1 1 0 01-1 1H40.55a1 1 0 01-1-1v-6.91a1 1 0 011-1z"/><path class="btcls-8" d="M40.55 303.12h85.24a1 1 0 011 1V311a1 1 0 01-1 1H40.55a1 1 0 01-1-1v-6.92a1 1 0 011-.96zM255.93 263H349a1 1 0 011 1v47a1 1 0 01-1 1h-93.07a1 1 0 01-1-1v-47a1 1 0 011-1zm0-90.89h92.52a1 1 0 011 1V180a1 1 0 01-1 1h-92.52a1 1 0 01-1-1v-6.9a1 1 0 011-.99z"/><path class="btcls-9" d="M255.93 188.63h61a1 1 0 011 1v6.92a1 1 0 01-1 1h-61a1 1 0 01-1-1v-6.92a1 1 0 011-1z"/><path class="btcls-8" d="M255.93 205.16h92.52a1 1 0 011 1v45.44a1 1 0 01-1 1h-92.52a1 1 0 01-1-1v-45.42a1 1 0 011-1.02zM40.55 133.92h129.86a1 1 0 011 1v6.91a1 1 0 01-1 1H40.55a1 1 0 01-1-1v-6.91a1 1 0 011-1z"/><path class="btcls-9" d="M40.55 150.45h96.89a1 1 0 011 1v6.89a1 1 0 01-1 1H40.55a1 1 0 01-1-1v-6.89a1 1 0 011-1z"/><path class="btcls-8" d="M255.93 133.92h92.52a1 1 0 011 1v6.91a1 1 0 01-1 1h-92.52a1 1 0 01-1-1v-6.91a1 1 0 011-1z"/><path class="btcls-9" d="M255.93 150.45h61a1 1 0 011 1v6.89a1 1 0 01-1 1h-61a1 1 0 01-1-1v-6.89a1 1 0 011-1z"/></g></g></g></g></symbol><symbol viewBox="0 0 103.2 121.18" id="reports" xmlns="http://www.w3.org/2000/svg"><g data-name="Слой 2"><g data-name="Layer 1"><path class="buancls-1" d="M103.2 121.18H25.91V39.4h77.29zm-73.41-3.88h69.53v-74H29.79z"/><path class="buancls-1" d="M103.2 43.29H25.91V25.91h77.29zM29.79 39.4h69.53v-9.6H29.79z"/><path class="buancls-1" d="M52.46 32.66h3.89v3.89h-3.89zm-7.77 0h3.89v3.89h-3.89zm-7.77 0h3.89v3.89h-3.89zm0 17.62h12.09v3.89H36.92zm12.09 16.04h13v3.89h-13zm0 8.02h13v3.89h-13zm0 24.06h13v3.89h-13zm0 8.01h13v3.89h-13zM36.92 58.3h25.09v3.89H36.92zm0 24.06h12.09v3.89H36.92zm0 8.02h25.09v3.89H36.92zM67.1 66.32h13v3.89h-13zm0 8.02h25.09v3.89H67.1zm0-16.04h13v3.89h-13zm0 40.1h13v3.89h-13zm0 8.02h25.09v3.89H67.1zm0-16.04h13v3.89h-13z"/><path class="buancls-1" d="M21.38 108.23h-8.43V12.96h77.3v8.42h-3.89v-4.54H16.84v87.5h4.54v3.89z"/><path class="buancls-1" d="M8.42 95.28H0V0h77.3v8.42h-3.89V3.89H3.88v87.5h4.54v3.89zm94.78-84.7h-3.88V3.89h-6.69V0h10.57v10.58zm-92.62 110.6H0V110.6h3.88v6.7h6.7v3.88z"/></g></g></symbol><symbol viewBox="0 0 54 54" id="settings" xmlns="http://www.w3.org/2000/svg"><path d="M51.22 21h-5.052c-.812 0-1.481-.447-1.792-1.197s-.153-1.54.42-2.114l3.572-3.571a2.763 2.763 0 00.814-1.966c0-.743-.289-1.441-.814-1.967l-4.553-4.553c-1.05-1.05-2.881-1.052-3.933 0l-3.571 3.571a1.877 1.877 0 01-1.352.574c-.5 0-.997-.196-1.364-.539A1.873 1.873 0 0133 7.832V2.78A2.783 2.783 0 0030.22 0h-6.44A2.783 2.783 0 0021 2.78v5.052c0 1.218-.997 1.945-1.961 1.945-.354 0-.876-.1-1.351-.574l-3.571-3.571c-1.052-1.052-2.883-1.05-3.933 0l-4.553 4.553a2.764 2.764 0 00-.814 1.967c0 .742.289 1.44.814 1.966l3.572 3.571c.573.574.73 1.364.42 2.114S8.644 21 7.832 21H2.78A2.783 2.783 0 000 23.78v6.438A2.784 2.784 0 002.78 33h5.052c.812 0 1.481.447 1.792 1.197s.153 1.54-.42 2.114l-3.572 3.571a2.763 2.763 0 00-.814 1.966c0 .743.289 1.441.814 1.967l4.553 4.553c1.051 1.051 2.881 1.053 3.933 0l3.571-3.571a1.877 1.877 0 011.352-.574c.963 0 1.96.728 1.96 1.945v5.051A2.782 2.782 0 0023.78 54h6.439a2.784 2.784 0 002.78-2.781v-5.051c0-1.218.997-1.945 1.96-1.945.354 0 .877.1 1.352.574l3.571 3.571c1.052 1.052 2.883 1.05 3.933 0l4.553-4.553a2.764 2.764 0 00.814-1.967c0-.742-.289-1.44-.814-1.966l-3.572-3.571c-.573-.574-.73-1.364-.42-2.114S45.356 33 46.168 33h5.052A2.784 2.784 0 0054 30.219V23.78A2.783 2.783 0 0051.22 21zM34 27c0 3.859-3.141 7-7 7s-7-3.141-7-7 3.141-7 7-7 7 3.141 7 7z"/></symbol><symbol viewBox="0 0 111.84 111.87" id="settings-code" xmlns="http://www.w3.org/2000/svg"><g data-name="Слой 2"><g data-name="Layer 1"><path class="bwajcls-1" d="M55.92 85.94a30 30 0 1130-30 30 30 0 01-30 30zm0-56.13a26.13 26.13 0 1026.13 26.12 26.15 26.15 0 00-26.13-26.12z"/><path class="bwajcls-1" d="M61.61 111.87H50.26l-2.42-12A43.85 43.85 0 0141 98l-8.08 9.2-9.83-5.67L27 89.91a45.26 45.26 0 01-5-5l-11.67 3.88L4.67 79l9.18-8.1A43.91 43.91 0 0112 64L0 61.63V50.24l12-2.42A43.49 43.49 0 0113.85 41l-9.18-8.14 5.66-9.78L21.94 27a44.42 44.42 0 015-5l-3.88-11.69 9.83-5.66 8.11 9.2A44.58 44.58 0 0147.84 12l2.42-12h11.35L64 12a43.91 43.91 0 016.85 1.84L79 4.65l9.84 5.66-3.96 11.62a43.7 43.7 0 015.05 5l11.6-3.89 5.66 9.78L98 41a42.81 42.81 0 011.85 6.87l12 2.41v11.35L99.88 64A44.3 44.3 0 0198 70.9l9.19 8.1-5.66 9.81-11.6-3.91a45.35 45.35 0 01-5.05 5l3.92 11.61-9.8 5.69-8.11-9.2A45.16 45.16 0 0164 99.84zM53.44 108h5l2.32-11.55 1.35-.21a40.11 40.11 0 008.65-2.32L72 93.4l7.77 8.84 4.31-2.49-3.75-11.14 1.06-.85a40.89 40.89 0 006.38-6.37l.85-1.06 11.14 3.76 2.47-4.3L93.44 72l.49-1.27a40.42 40.42 0 002.34-8.68l.21-1.34L108 58.44v-5l-11.53-2.33-.2-1.34a40.74 40.74 0 00-2.33-8.67l-.5-1.27 8.79-7.77-2.47-4.29-11.14 3.75-.85-1.06a41.26 41.26 0 00-6.37-6.37l-1.07-.85 3.77-11.15-4.32-2.48L72 18.44 70.75 18a41 41 0 00-8.65-2.33l-1.35-.2-2.32-11.58h-5l-2.31 11.53-1.35.2A39.81 39.81 0 0041.11 18l-1.27.49-7.77-8.88-4.31 2.48 3.76 11.16-1.06.85a41.57 41.57 0 00-6.36 6.36l-.85 1.06-11.14-3.75-2.48 4.29 8.81 7.79-.5 1.27a40.61 40.61 0 00-2.32 8.64l-.2 1.34-11.53 2.32v5l11.52 2.31.2 1.34A40.14 40.14 0 0018 70.74l.44 1.26-8.81 7.79 2.48 4.3 11.14-3.76.85 1.06a41.57 41.57 0 006.36 6.36l1.07.85-3.77 11.15 4.31 2.49 7.76-8.84 1.27.5a40.9 40.9 0 008.67 2.33l1.34.2z"/><path class="bwajcls-1" d="M46.47 65.64l-9.7-9.7 9.7-9.71 2.75 2.75-6.96 6.95 6.96 6.96-2.75 2.75zm18.91 0l-2.75-2.75 6.96-6.96-6.96-6.95 2.75-2.75 9.7 9.7-9.7 9.71zm-13.871 4.117l4.999-28.323 3.83.676-4.998 28.323zM53.98 18.58h3.89v3.89h-3.89zm0 70.82h3.89v3.89h-3.89zM18.57 53.99h3.88v3.89h-3.88zm70.82 0h3.89v3.89h-3.89z"/></g></g></symbol><symbol viewBox="0 0 291.364 291.364" id="skype" xmlns="http://www.w3.org/2000/svg"><path d="M282.966 176.612a136.24 136.24 0 003.204-29.405c0-75.661-62.197-137.011-138.941-137.011-8.093 0-16.032.692-23.752 2.003C111.061 4.479 96.367 0 80.618 0 36.101 0 .032 35.577.032 79.475c0 14.657 4.051 28.385 11.07 40.193a135.273 135.273 0 00-2.813 27.539c0 75.688 62.197 134.753 138.932 134.753 8.694 0 17.197-.792 25.436-2.294 11.352 6.008 24.316 11.698 38.099 11.698 44.508 0 80.577-35.568 80.577-79.466a78.266 78.266 0 00-8.367-35.286z" fill="#00aff0"/><path d="M210.6 203.131c-5.362 7.62-13.21 13.61-23.542 17.916-10.333 4.342-22.568 6.491-36.724 6.491-16.978 0-30.98-2.95-42.023-8.858-7.811-4.242-14.174-9.923-19.072-17.006-4.88-7.083-7.328-13.983-7.328-20.693 0-3.878 1.466-7.21 4.397-9.969 2.931-2.795 6.673-4.169 11.198-4.169 3.678 0 6.8 1.065 9.331 3.241 2.549 2.158 4.725 5.353 6.509 9.604 2.194 5.053 4.552 9.268 7.11 12.645 2.531 3.377 6.118 6.181 10.724 8.375 4.625 2.176 10.697 3.286 18.198 3.286 10.324 0 18.717-2.203 25.181-6.637 6.445-4.415 9.686-9.959 9.686-16.578 0-5.244-1.748-9.532-5.226-12.782-3.487-3.277-7.984-5.781-13.501-7.501-5.508-1.739-12.882-3.578-22.131-5.517-12.354-2.649-22.705-5.781-31.025-9.331-8.33-3.578-14.957-8.43-19.837-14.575-4.898-6.172-7.338-13.819-7.338-22.95 0-8.721 2.576-16.45 7.747-23.214 5.162-6.773 12.618-11.971 22.413-15.613 9.777-3.641 21.285-5.453 34.494-5.453 10.56 0 19.7 1.211 27.411 3.605 7.711 2.422 14.093 5.626 19.172 9.623 5.089 3.997 8.812 8.184 11.152 12.581 2.349 4.37 3.523 8.685 3.523 12.836 0 3.814-1.457 7.274-4.388 10.324-2.931 3.059-6.591 4.597-10.97 4.597-3.997 0-7.028-.929-9.104-2.758-2.076-1.839-4.324-4.843-6.737-9.022-3.141-5.972-6.882-10.633-11.27-13.974-4.388-3.35-11.416-5.025-21.121-5.025-8.985 0-16.25 1.803-21.767 5.453-5.517 3.623-8.284 8.011-8.284 13.118 0 3.15.956 5.899 2.822 8.202 1.866 2.321 4.452 4.279 7.756 5.927a55.661 55.661 0 009.959 3.905c3.359.938 8.922 2.294 16.678 4.097 9.686 2.085 18.471 4.397 26.337 6.91 7.857 2.522 14.557 5.59 20.074 9.167 5.508 3.605 9.823 8.175 12.909 13.692 3.086 5.499 4.643 12.244 4.643 20.238.003 9.56-2.691 18.163-8.036 25.792z" fill="#fff"/></symbol><symbol viewBox="0 0 49.94 49.94" id="star" xmlns="http://www.w3.org/2000/svg"><path d="M48.856 22.73a3.56 3.56 0 00.906-3.671 3.56 3.56 0 00-2.892-2.438l-12.092-1.757a1.58 1.58 0 01-1.19-.865L28.182 3.043a3.56 3.56 0 00-3.212-1.996 3.56 3.56 0 00-3.211 1.996L16.352 14c-.23.467-.676.79-1.191.865L3.069 16.622A3.56 3.56 0 00.177 19.06a3.56 3.56 0 00.906 3.671l8.749 8.528c.373.364.544.888.456 1.4L8.224 44.701a3.506 3.506 0 00.781 2.904c1.066 1.267 2.927 1.653 4.415.871l10.814-5.686a1.619 1.619 0 011.472 0l10.815 5.686a3.544 3.544 0 001.666.417c1.057 0 2.059-.47 2.748-1.288a3.505 3.505 0 00.781-2.904l-2.065-12.042a1.582 1.582 0 01.456-1.4l8.749-8.529z"/></symbol><symbol viewBox="0 0 129.1 105.58" id="targeting" xmlns="http://www.w3.org/2000/svg"><g data-name="Слой 2"><g data-name="Layer 1"><path class="bzatcls-1" d="M39.26 80.16h3.89v25.42h-3.89zm48.07 0h3.89v25.42h-3.89z"/><path class="bzatcls-1" d="M41.2 93.61h48.07v3.89H41.2zm24.04-4.12A44.75 44.75 0 11110 44.74a44.79 44.79 0 01-44.76 44.75zm0-85.6a40.86 40.86 0 1040.85 40.85A40.9 40.9 0 0065.24 3.89z"/><path class="bzatcls-1" d="M65.24 78.39a33.65 33.65 0 1133.64-33.65 33.69 33.69 0 01-33.64 33.65zm0-63.4A29.76 29.76 0 1095 44.74 29.78 29.78 0 0065.24 15z"/><path class="bzatcls-1" d="M65.24 67.29a22.55 22.55 0 1122.54-22.55 22.57 22.57 0 01-22.54 22.55zm0-41.2a18.66 18.66 0 1018.65 18.65 18.68 18.68 0 00-18.65-18.65z"/><path class="bzatcls-1" d="M65.24 56.19a11.45 11.45 0 1111.44-11.45 11.46 11.46 0 01-11.44 11.45zm0-19a7.56 7.56 0 107.55 7.55 7.56 7.56 0 00-7.55-7.55zM2.75 42.8h19.69v3.89H2.75z"/><path class="bzatcls-1" d="M7.36 52.11L0 44.74l7.36-7.36 2.75 2.75-4.61 4.61 4.61 4.62-2.75 2.75zm57.88-9.31h56.5v3.89h-56.5z"/><path class="bzatcls-1" d="M118.64 52.11l-7.36-7.37 7.36-7.36 2.75 2.75-4.61 4.61 4.61 4.62-2.75 2.75z"/><path class="bzatcls-1" d="M126.35 52.11l-7.37-7.37 7.37-7.36 2.75 2.75-4.62 4.61 4.62 4.62-2.75 2.75z"/></g></g></symbol><symbol viewBox="0 0 24 24" id="telegram" xmlns="http://www.w3.org/2000/svg"><circle cx="12" cy="12" fill="#039be5" r="12"/><path d="M5.491 11.74l11.57-4.461c.537-.194 1.006.131.832.943l.001-.001-1.97 9.281c-.146.658-.537.818-1.084.508l-3-2.211-1.447 1.394c-.16.16-.295.295-.605.295l.213-3.053 5.56-5.023c.242-.213-.054-.333-.373-.121l-6.871 4.326-2.962-.924c-.643-.204-.657-.643.136-.953z" fill="#fff"/></symbol><symbol viewBox="0 -39 512 512" id="telegram-tr" xmlns="http://www.w3.org/2000/svg"><path d="M504.094 11.86C497.84 4.21 488.473 0 477.714 0c-5.847 0-12.042 1.23-18.41 3.664L25.907 169.105c-23 8.778-26.097 21.95-25.898 29.02s4.039 20.047 27.5 27.512c.14.043.281.086.422.125l89.898 25.726 48.617 139.024c6.63 18.953 21.508 30.726 38.836 30.726 10.926 0 21.672-4.578 31.078-13.234l55.606-51.2 80.652 64.942c.008.008.02.012.028.02l.765.617.215.168c8.965 6.953 18.75 10.625 28.309 10.629h.003c18.676 0 33.547-13.825 37.88-35.215l71.011-350.64c2.852-14.075.461-26.669-6.734-35.466zM147.902 246.601l173.442-88.606L213.348 272.75a14.975 14.975 0 00-3.641 6.684l-20.824 84.351zm68.133 139.332c-.719.66-1.441 1.25-2.164 1.793l19.32-78.25 35.145 28.3zm265.39-344.567l-71.01 350.645c-.685 3.355-2.868 11.164-8.481 11.164-2.774 0-6.258-1.512-9.825-4.258l-91.39-73.586a.173.173 0 00-.043-.031l-54.38-43.79 156.177-165.949a15 15 0 00-17.746-23.636L127.859 223.152l-91.12-26.07 433.265-165.39c3.66-1.399 6.215-1.692 7.71-1.692.919 0 2.552.11 3.157.855.797.973 1.813 4.29.555 10.512zm0 0"/></symbol><symbol viewBox="0 0 561 561" id="thumb-up-button" xmlns="http://www.w3.org/2000/svg"><path d="M0 535.5h102v-306H0v306zM561 255c0-28.05-22.95-51-51-51H349.35l25.5-117.3v-7.65c0-10.2-5.1-20.4-10.199-28.05L336.6 25.5 168.3 193.8c-10.2 7.65-15.3 20.4-15.3 35.7v255c0 28.05 22.95 51 51 51h229.5c20.4 0 38.25-12.75 45.9-30.6l76.5-181.051c2.55-5.1 2.55-12.75 2.55-17.85v-51H561V255z"/></symbol><symbol viewBox="0 0 98.89 119.62" id="timer" xmlns="http://www.w3.org/2000/svg"><g data-name="Слой 2"><g data-name="Layer 1"><path class="cdaxcls-1" d="M49.44 89.38a19.22 19.22 0 010-38.43v3.89a15.33 15.33 0 1015.33 15.33h3.89a19.23 19.23 0 01-19.22 19.21zM77 33.86a45.62 45.62 0 00-55 0l-2.35-3.1a49.51 49.51 0 0159.75 0z"/><path class="cdaxcls-1" d="M49.44 119.62A49.5 49.5 0 010 70.17 49 49 0 0110 40.3l3.1 2.35A45.56 45.56 0 1095 70.17a45.16 45.16 0 00-9.25-27.52l3.09-2.35a49 49 0 0110 29.87 49.5 49.5 0 01-49.4 49.45z"/><path class="cdaxcls-1" d="M49.44 111a40.81 40.81 0 1140.81-40.83A40.85 40.85 0 0149.44 111zm0-77.73a36.92 36.92 0 1036.92 36.9 37 37 0 00-36.92-36.92z"/><path class="cdaxcls-1" d="M75.546 41.322L87.757 29.11l2.751 2.751-12.212 12.212z"/><path class="cdaxcls-1" d="M83.184 27.268l2.75-2.751 9.157 9.157-2.75 2.75zM8.38 31.858l2.75-2.75 12.212 12.211-2.75 2.75z"/><path class="cdaxcls-1" d="M3.793 33.685l9.159-9.155 2.75 2.75-9.159 9.156zM47.5 7.99h3.89v14.68H47.5z"/><path class="cdaxcls-1" d="M58.94 16h-19a8 8 0 01-5.65-13.66A7.94 7.94 0 0139.94 0h19a8 8 0 018 8 8 8 0 01-8 8zm-19-12.09A4.1 4.1 0 0035.84 8a4.1 4.1 0 004.1 4.1h19A4.1 4.1 0 0063.05 8a4.11 4.11 0 00-4.11-4.1zm35.606 37.412L87.757 29.11l2.751 2.751-12.212 12.212zM8.38 31.858l2.75-2.75 12.212 12.211-2.75 2.75zM49.44 77.29a7.13 7.13 0 117.13-7.12 7.13 7.13 0 01-7.13 7.12zm0-10.36a3.24 3.24 0 103.24 3.24 3.25 3.25 0 00-3.24-3.24z"/><path class="cdaxcls-1" d="M54.63 68.23h18.09v3.89H54.63zm-7.13-30.4h3.89v4.32H47.5zm8.755 5.096l1.336-4.109 3.7 1.203-1.336 4.108zm8.277 3.478l2.551-3.486 3.14 2.297-2.552 3.486zm6.442 5.724l3.495-2.538 2.286 3.147-3.495 2.539zm4.511 7.537l4.11-1.332 1.2 3.7-4.11 1.333zm1.975 8.565h4.32v3.89h-4.32z"/></g></g></symbol><symbol viewBox="0 0 258.75 258.75" id="user" xmlns="http://www.w3.org/2000/svg"><circle cx="129.375" cy="60" r="60"/><path d="M129.375 150c-60.061 0-108.75 48.689-108.75 108.75h217.5c0-60.061-48.689-108.75-108.75-108.75z"/></symbol><symbol viewBox="0 0 512 512" id="video" xmlns="http://www.w3.org/2000/svg"><g fill-rule="evenodd" clip-rule="evenodd"><path d="M452.9 211H141.4l299.2-86.7c2.3-.7 4.3-2.2 5.5-4.4 1.2-2.1 1.4-4.6.8-6.9l-15.7-54.1c-6.3-21.6-26.4-36.7-48.9-36.7-4.7 0-9.5.7-14.1 2L87.3 105.6c-13 3.8-23.8 12.4-30.3 24.3-6.6 11.9-8.1 25.6-4.3 38.6L68 221.3v217.5c0 28 22.8 50.8 50.8 50.8h109.7c5 0 9.1-4.1 9.1-9.1s-4.1-9.1-9.1-9.1H118.7c-18 0-32.6-14.6-32.6-32.6V314.7h357.5V439c0 18-14.6 32.6-32.6 32.6H301.5c-5 0-9.1 4.1-9.1 9.1s4.1 9.1 9.1 9.1h109.7c28 0 50.8-22.8 50.8-50.8V220.1c0-5-4.1-9.1-9.1-9.1zm-161.3 85.2l39-67.6h50.7l-39 67.6h-50.7zm-71.5 0l39-67.6h50.7l-39 67.6h-50.7zm-71.6 0l39-67.6h50.7l-39 67.6h-50.7zm34.2-118l-65-62.4 48.7-14.1c.3.5.7 1 1.2 1.4l65 62.4-48.7 14.1c-.3-.5-.7-1-1.2-1.4zM305.1 63.3l65 62.4-48.7 14.1c-.3-.5-.7-1-1.2-1.4l-65-62.4 48.7-14.1c.3.5.7 1 1.2 1.4zm-68.7 19.9l65 62.4-48.7 14.1c-.3-.5-.7-1-1.2-1.4l-65-62.4 48.7-14.1c.3.5.7 1 1.2 1.4zm136.9-41.4c2.9-.8 6-1.3 9-1.3 14.4 0 27.3 9.7 31.3 23.5l13.1 45.3-36.6 10.6c-.3-.5-.7-1-1.2-1.4l-65-62.4 49.4-14.3zm-300.4 97c4.2-7.6 11.1-13.2 19.4-15.6l5.4-1.6c.3.5.7 1 1.2 1.4l65 62.4-80.6 23.4-13.1-45.3c-2.5-8.3-1.5-17.1 2.7-24.7zm13.3 89.8H167l-39 67.6H86.2v-67.6zm277.1 67.6l39-67.6h41.8v67.6h-80.8z" stroke="#fff" stroke-width="3" stroke-miterlimit="10"/><path d="M328 392.1c0-3.3-1.7-6.3-4.6-7.9l-80.2-46.3c-3.6-2.1-8.4-1.5-11.4 1.8-1.6 1.7-2.3 4-2.3 6.3v92.2c0 2.2.7 4.4 2.2 6.1 1.9 2.1 4.4 3.2 7 3.2 1.6 0 3.2-.4 4.6-1.2l80.2-46.3c2.8-1.6 4.5-4.6 4.5-7.9zm-80.2 30.5v-61l52.8 30.5-52.8 30.5z" stroke="#fff" stroke-width="4" stroke-miterlimit="10"/><path d="M264.9 471.5c-5 0-9.1 4.1-9.1 9.1s4.1 9.1 9.1 9.1 9.1-4.1 9.1-9.1-4-9.1-9.1-9.1z" fill="#050505"/></g></symbol><symbol viewBox="0 0 112.196 112.196" id="vk" xmlns="http://www.w3.org/2000/svg"><circle cx="56.098" cy="56.098" r="56.098" fill="#4d76a1"/><path d="M53.979 80.702h4.403s1.33-.146 2.009-.878c.625-.672.605-1.934.605-1.934s-.086-5.908 2.656-6.778c2.703-.857 6.174 5.71 9.853 8.235 2.782 1.911 4.896 1.492 4.896 1.492l9.837-.137s5.146-.317 2.706-4.363c-.2-.331-1.421-2.993-7.314-8.463-6.168-5.725-5.342-4.799 2.088-14.702 4.525-6.031 6.334-9.713 5.769-11.29-.539-1.502-3.867-1.105-3.867-1.105l-11.076.069s-.821-.112-1.43.252c-.595.357-.978 1.189-.978 1.189s-1.753 4.667-4.091 8.636c-4.932 8.375-6.904 8.817-7.71 8.297-1.875-1.212-1.407-4.869-1.407-7.467 0-8.116 1.231-11.5-2.397-12.376-1.204-.291-2.09-.483-5.169-.514-3.952-.041-7.297.012-9.191.94-1.26.617-2.232 1.992-1.64 2.071.732.098 2.39.447 3.269 1.644 1.135 1.544 1.095 5.012 1.095 5.012s.652 9.554-1.523 10.741c-1.493.814-3.541-.848-7.938-8.446-2.253-3.892-3.954-8.194-3.954-8.194s-.328-.804-.913-1.234c-.71-.521-1.702-.687-1.702-.687l-10.525.069s-1.58.044-2.16.731c-.516.611-.041 1.875-.041 1.875s8.24 19.278 17.57 28.993c8.555 8.907 18.27 8.322 18.27 8.322z" fill-rule="evenodd" clip-rule="evenodd" fill="#fff"/></symbol><symbol viewBox="0 0 112.196 112.196" id="vk2" xmlns="http://www.w3.org/2000/svg"><circle cx="56.098" cy="56.098" r="56.098" fill="#4d76a1"/><path d="M53.979 80.702h4.403s1.33-.146 2.009-.878c.625-.672.605-1.934.605-1.934s-.086-5.908 2.656-6.778c2.703-.857 6.174 5.71 9.853 8.235 2.782 1.911 4.896 1.492 4.896 1.492l9.837-.137s5.146-.317 2.706-4.363c-.2-.331-1.421-2.993-7.314-8.463-6.168-5.725-5.342-4.799 2.088-14.702 4.525-6.031 6.334-9.713 5.769-11.29-.539-1.502-3.867-1.105-3.867-1.105l-11.076.069s-.821-.112-1.43.252c-.595.357-.978 1.189-.978 1.189s-1.753 4.667-4.091 8.636c-4.932 8.375-6.904 8.817-7.71 8.297-1.875-1.212-1.407-4.869-1.407-7.467 0-8.116 1.231-11.5-2.397-12.376-1.204-.291-2.09-.483-5.169-.514-3.952-.041-7.297.012-9.191.94-1.26.617-2.232 1.992-1.64 2.071.732.098 2.39.447 3.269 1.644 1.135 1.544 1.095 5.012 1.095 5.012s.652 9.554-1.523 10.741c-1.493.814-3.541-.848-7.938-8.446-2.253-3.892-3.954-8.194-3.954-8.194s-.328-.804-.913-1.234c-.71-.521-1.702-.687-1.702-.687l-10.525.069s-1.58.044-2.16.731c-.516.611-.041 1.875-.041 1.875s8.24 19.278 17.57 28.993c8.555 8.907 18.27 8.322 18.27 8.322z" fill-rule="evenodd" clip-rule="evenodd" fill="#fff"/></symbol><symbol viewBox="0 0 455 455" id="webcam" xmlns="http://www.w3.org/2000/svg"><path d="M227.5 295c59.275 0 107.5-48.224 107.5-107.5S286.775 80 227.5 80C168.224 80 120 128.224 120 187.5S168.224 295 227.5 295zm0-200c51.005 0 92.5 41.495 92.5 92.5S278.505 280 227.5 280 135 238.505 135 187.5 176.495 95 227.5 95z"/><path d="M227.5 255c37.22 0 67.5-30.28 67.5-67.5S264.72 120 227.5 120 160 150.28 160 187.5s30.28 67.5 67.5 67.5zm0-120c28.948 0 52.5 23.551 52.5 52.5S256.448 240 227.5 240c-28.949 0-52.5-23.551-52.5-52.5s23.551-52.5 52.5-52.5z"/><path d="M227.5 224.986c10.026 0 19.443-3.896 26.517-10.969 14.621-14.621 14.621-38.412 0-53.033a7.5 7.5 0 00-10.607 10.606c8.773 8.773 8.773 23.047 0 31.82-4.24 4.24-9.89 6.576-15.909 6.576s-11.669-2.335-15.91-6.576a7.498 7.498 0 00-10.606 0 7.5 7.5 0 000 10.606c7.072 7.074 16.49 10.97 26.515 10.97z"/><path d="M227.5 375C330.888 375 415 290.888 415 187.5c0-74.563-43.753-139.095-106.931-169.285a7.518 7.518 0 00-1.547-.723C282.494 6.278 255.719 0 227.5 0c-28.223 0-55.004 6.28-79.035 17.498a7.547 7.547 0 00-1.523.712C83.759 48.397 40 112.932 40 187.5 40 290.888 124.112 375 227.5 375zM140.46 38.624c-.3 2.945-.46 5.907-.46 8.876 0 12.356 2.547 24.333 7.571 35.596a7.5 7.5 0 1013.699-6.109C157.109 67.658 155 57.737 155 47.5c0-5.901.728-11.768 2.149-17.489C178.645 20.37 202.456 15 227.5 15c25.044 0 48.855 5.37 70.351 15.01A72.538 72.538 0 01300 47.5c0 10.237-2.109 20.158-6.27 29.487a7.499 7.499 0 006.846 10.556 7.504 7.504 0 006.854-4.447C312.453 71.832 315 59.855 315 47.5c0-2.969-.16-5.931-.46-8.876C365.624 68.605 400 124.109 400 187.5c0 95.117-77.383 172.5-172.5 172.5S55 282.617 55 187.5c0-63.39 34.376-118.895 85.46-148.876z"/><path d="M356.568 351.5a7.501 7.501 0 00-10.329 10.879c22.522 21.38 38.691 48.063 47.125 77.622H61.634c8.435-29.559 24.604-56.242 47.125-77.622A7.5 7.5 0 0098.432 351.5c-26.982 25.615-45.575 58.237-53.77 94.34a7.5 7.5 0 007.314 9.16h351.047a7.5 7.5 0 007.314-9.159c-8.193-36.105-26.786-68.727-53.769-94.341zM227.5 55.5c4.411 0 8-3.589 8-8s-3.589-8-8-8-8 3.589-8 8 3.589 8 8 8z"/></symbol><symbol viewBox="0 0 111.84 105.85" id="withdrawl" xmlns="http://www.w3.org/2000/svg"><g data-name="Слой 2"><g data-name="Layer 1"><path class="cjamcls-1" d="M73.74 105.85H38.1V94.07h3.89v7.89h27.86v-7.89h3.89v11.78z"/><path class="cjamcls-1" d="M30.98 101.96h49.87v3.89H30.98zM111.84 77H0V5.75A5.75 5.75 0 015.75 0h100.34a5.75 5.75 0 015.75 5.75zm-108-3.89H108V5.75a1.85 1.85 0 00-.55-1.32 1.83 1.83 0 00-1.31-.54H5.75a1.88 1.88 0 00-1.87 1.86z"/><path class="cjamcls-1" d="M106.09 89.71H5.75A5.75 5.75 0 010 84V73.13h111.84V84a5.74 5.74 0 01-5.75 5.75zM3.88 77v7a1.86 1.86 0 00.55 1.32 1.84 1.84 0 001.32.55h100.34a1.83 1.83 0 001.31-.54A1.86 1.86 0 00108 84v-7zm87.35-28.34H76.4v-20.3h14.83v3.89H80.29v12.52h10.94v3.89z"/><path class="cjamcls-1" d="M76.4 36.57h9.36v3.89H76.4zM48 48.66h-2.75a6.06 6.06 0 01-6-6v-8.2a6 6 0 016-6H48a6.06 6.06 0 016 6v8.2a6.08 6.08 0 01-6 6zm-2.75-16.41a2.12 2.12 0 00-1.52.63 2.14 2.14 0 00-.63 1.53v8.2a2.14 2.14 0 00.63 1.53 2.12 2.12 0 001.52.63H48a2.16 2.16 0 001.53-.63 2.18 2.18 0 00.63-1.53v-8.2a2.18 2.18 0 00-.63-1.53 2.14 2.14 0 00-1.53-.63zM29.39 48.66h-2.73a6.06 6.06 0 01-6.05-6v-8.2a6 6 0 016.05-6h2.73a6 6 0 016 6v1.94h-3.84v-1.99a2.15 2.15 0 00-2.16-2.16h-2.73a2.15 2.15 0 00-2.16 2.16v8.2a2.15 2.15 0 002.16 2.16h2.73a2.15 2.15 0 002.16-2.16v-1.94h3.89v1.94a6.06 6.06 0 01-6 6zm37.2 0H57.8v-20.3h8.79a6 6 0 016 6v8.2a6.06 6.06 0 01-6 6zm-4.9-3.89h4.9a2.15 2.15 0 002.15-2.16v-8.2a2.14 2.14 0 00-.63-1.53 2.12 2.12 0 00-1.52-.63h-4.9zm.06-35.27h3.88v3.89h-3.88zm-7.77 0h3.89v3.89h-3.89zm-7.78 0h3.89v3.89H46.2zm15.55 54.13h3.88v3.89h-3.88zm-7.77 0h3.89v3.89h-3.89zm-7.78 0h3.89v3.89H46.2zm56.14-40.1h-3.89V13.39H69.52V9.5h32.82v14.03zm-88.96 0H9.5V9.5h32.82v3.89H13.38v10.14zm88.96 43.99H69.52v-3.89h28.93V53.48h3.89v14.04zm-60.02 0H9.5V53.48h3.88v10.15h28.94v3.89z"/></g></g></symbol><symbol viewBox="0 0 291.23 374" id="ya" xmlns="http://www.w3.org/2000/svg"><g data-name="Слой 2"><g data-name="Слой 1"><path class="ckahcls-1" d="M287.53 75.72L147 .82a7 7 0 00-6.65 0L3.63 75.76A7 7 0 000 81.9v97.84a202.57 202.57 0 00121.42 185.41l19 8.27a7 7 0 005.57 0l21.38-9.24A202.15 202.15 0 00291.23 177.8V81.9a7 7 0 00-3.7-6.18zM277.24 177.8a188.22 188.22 0 01-115.38 173.52h-.05l-18.61 8-16.2-7A188.57 188.57 0 0114 179.74V86.05L143.72 15l133.52 71.1z"/><path class="ckahcls-1" d="M186.1 82.54h-32c-31.4 0-58 23.91-58 70.32 0 27.85 12.9 48.38 35.89 58.5L89.09 289c-1.4 2.54 0 4.5 2.24 4.5h19.91c1.68 0 2.8-.56 3.37-2l39-76.23h14v76.23a2.1 2.1 0 002 2H187c1.68 0 2.24-.84 2.24-2.24V85.36c-.05-1.98-1.17-2.82-3.14-2.82zM167.6 197.3h-11.78c-18.5 0-36.45-13.5-36.45-47.25 0-35.17 16.83-49.51 33.93-49.51h14.3z"/></g></g></symbol><symbol viewBox="0 0 640.74 192.41" id="Ресурс_3" xmlns="http://www.w3.org/2000/svg"><defs><linearGradient id="cla" x1="-2.97" y1="189.22" x2="632.04" y2="16.51" gradientUnits="userSpaceOnUse"><stop offset=".02" stop-color="#d9752d"/><stop offset=".35" stop-color="#e3466d"/><stop offset=".69" stop-color="#fb8716"/><stop offset="1" stop-color="#e3466d"/></linearGradient></defs><g data-name="Слой 2"><g data-name="Thanks for the choice, good luck!"><path d="M0 191.85c.1-.54 11-54.54 80.85-54.54 35.74 0 46.2-10.23 57.28-21.06 10.06-9.85 20.47-20 50.24-21.92 21.3-1.36 35.54 1.21 47 3.27 22.21 4 35.61 6.44 76-21.47 45.34-31.35 64.78-9.47 85.36 13.7 8.16 9.18 16.59 18.68 26.91 24.89 3.74 2.26 7.17 2.81 10.49 1.68 11-3.75 19.54-25.49 28.55-48.52C474.46 37.7 487.85 3.5 511.13.44c28.15-3.69 40.69 16.47 51.75 34.26C570 46.11 576.1 56 585 57.42c22.83 3.73 52.61-43.64 52.91-44.11a1.51 1.51 0 112.56 1.59c-1.26 2-31.16 49.53-56 45.5-10.3-1.67-17.07-12.57-24.24-24.1-10.58-17-22.6-36.31-48.79-32.87C490 6.26 477 39.58 465.45 69c-9.67 24.73-18 46.08-30.39 50.28-4.14 1.41-8.53.75-13-2-10.71-6.44-19.3-16.11-27.6-25.47-20.53-23.1-38.24-43-81.4-13.22-41.39 28.62-56 26-78.23 22C223 98.43 209.5 96 188.57 97.34c-28.66 1.82-38.22 11.17-48.33 21.06-11 10.78-22.43 21.93-59.39 21.93-67.27 0-77.49 49.95-77.88 52.08" fill="url(#cla)" data-name="charts and graphics"/></g></g></symbol></svg>