<svg xmlns="http://www.w3.org/2000/svg" viewBox="0 0 109.93 103.15" id="resource_16"><g id="apСлой_2" data-name="Слой 2"><g id="apLayer_1" data-name="Layer 1"><path class="apcls-1" d="M51.58 103.15a51.58 51.58 0 1 1 51.57-51.57v8.68h-3.88v-8.68a47.69 47.69 0 1 0-47.69 47.69z"></path><path class="apcls-1" d="M101.21 62.58l-8.71-8.72 2.75-2.75 5.96 5.97 5.97-5.97 2.75 2.75-8.72 8.72zm1.95 40.57h-3.89v-8.63H86.53a1.95 1.95 0 0 1-1.48-3.2L99.73 74a2 2 0 0 1 3.43 1.26zM90.73 90.63h8.54v-10z"></path><path class="apcls-1" d="M99.27 90.63h6.48v3.89h-6.48zm-27.42 12.52h-6.59a1.94 1.94 0 0 1-1.94-1.94v-6.47a8.42 8.42 0 0 1 8.41-8.43h4.32a4.54 4.54 0 1 0 0-9.07h-4.32a4.52 4.52 0 0 0-4.53 4.54h-3.88a8.4 8.4 0 0 1 8.41-8.42h4.32a8.42 8.42 0 0 1 0 16.84h-4.32a4.52 4.52 0 0 0-4.53 4.54v4.53h4.65z"></path><path class="apcls-1" d="M69.91 99.27h14.56v3.89H69.91zM51.58 58.7a7.13 7.13 0 1 1 7.12-7.12 7.14 7.14 0 0 1-7.12 7.12zm0-10.36a3.24 3.24 0 1 0 3.24 3.24 3.24 3.24 0 0 0-3.24-3.24z"></path><path class="apcls-1" transform="rotate(-45 42.408 42.414)" d="M40.47 34.64h3.89v15.55h-3.89z"></path><path class="apcls-1" d="M56.76 49.63H72.3v3.89H56.76zM49.63 15.3h3.89v5.89h-3.89zM15.31 49.63h5.89v3.89h-5.89z"></path><path class="apcls-1" d="M53.52 89.79h-1.94A38.22 38.22 0 1 1 89.8 51.58v1.94H82v-3.89h3.89a34.33 34.33 0 1 0-36.26 36.22V82h3.89z"></path></g></g></svg>
