<svg xmlns="http://www.w3.org/2000/svg" viewBox="0 0 111.84 105.85" id="resource_13"><g id="amСлой_2" data-name="Слой 2"><g id="amLayer_1" data-name="Layer 1"><path class="amcls-1" d="M73.74 105.85H38.1V94.07h3.89v7.89h27.86v-7.89h3.89v11.78z"></path><path class="amcls-1" d="M30.98 101.96h49.87v3.89H30.98zM111.84 77H0V5.75A5.75 5.75 0 0 1 5.75 0h100.34a5.75 5.75 0 0 1 5.75 5.75zm-108-3.89H108V5.75a1.85 1.85 0 0 0-.55-1.32 1.83 1.83 0 0 0-1.31-.54H5.75a1.88 1.88 0 0 0-1.87 1.86z"></path><path class="amcls-1" d="M106.09 89.71H5.75A5.75 5.75 0 0 1 0 84V73.13h111.84V84a5.74 5.74 0 0 1-5.75 5.75zM3.88 77v7a1.86 1.86 0 0 0 .55 1.32 1.84 1.84 0 0 0 1.32.55h100.34a1.83 1.83 0 0 0 1.31-.54A1.86 1.86 0 0 0 108 84v-7zm87.35-28.34H76.4v-20.3h14.83v3.89H80.29v12.52h10.94v3.89z"></path><path class="amcls-1" d="M76.4 36.57h9.36v3.89H76.4zM48 48.66h-2.75a6.06 6.06 0 0 1-6-6v-8.2a6 6 0 0 1 6-6H48a6.06 6.06 0 0 1 6 6v8.2a6.08 6.08 0 0 1-6 6zm-2.75-16.41a2.12 2.12 0 0 0-1.52.63 2.14 2.14 0 0 0-.63 1.53v8.2a2.14 2.14 0 0 0 .63 1.53 2.12 2.12 0 0 0 1.52.63H48a2.16 2.16 0 0 0 1.53-.63 2.18 2.18 0 0 0 .63-1.53v-8.2a2.18 2.18 0 0 0-.63-1.53 2.14 2.14 0 0 0-1.53-.63zM29.39 48.66h-2.73a6.06 6.06 0 0 1-6.05-6v-8.2a6 6 0 0 1 6.05-6h2.73a6 6 0 0 1 6 6v1.94h-3.84v-1.99a2.15 2.15 0 0 0-2.16-2.16h-2.73a2.15 2.15 0 0 0-2.16 2.16v8.2a2.15 2.15 0 0 0 2.16 2.16h2.73a2.15 2.15 0 0 0 2.16-2.16v-1.94h3.89v1.94a6.06 6.06 0 0 1-6 6zm37.2 0H57.8v-20.3h8.79a6 6 0 0 1 6 6v8.2a6.06 6.06 0 0 1-6 6zm-4.9-3.89h4.9a2.15 2.15 0 0 0 2.15-2.16v-8.2a2.14 2.14 0 0 0-.63-1.53 2.12 2.12 0 0 0-1.52-.63h-4.9zm.06-35.27h3.88v3.89h-3.88zm-7.77 0h3.89v3.89h-3.89zm-7.78 0h3.89v3.89H46.2zm15.55 54.13h3.88v3.89h-3.88zm-7.77 0h3.89v3.89h-3.89zm-7.78 0h3.89v3.89H46.2zm56.14-40.1h-3.89V13.39H69.52V9.5h32.82v14.03zm-88.96 0H9.5V9.5h32.82v3.89H13.38v10.14zm88.96 43.99H69.52v-3.89h28.93V53.48h3.89v14.04zm-60.02 0H9.5V53.48h3.88v10.15h28.94v3.89z"></path></g></g></svg>
