<svg xmlns="http://www.w3.org/2000/svg" viewBox="0 0 109.13 109.96" id="resource_7"><g id="avСлой_2" data-name="Слой 2"><g id="avLayer_1" data-name="Layer 1"><path class="avcls-1" d="M54.56 106.55L0 52l23.55-23.54h62L109.13 52zM5.5 52l49.06 49.07L103.64 52 84 32.35H25.16z"></path><path class="avcls-1" d="M54.56 110L34.61 50h39.9zM40 53.93l14.56 43.72 14.56-43.72z"></path><path class="avcls-1" d="M40.74 53.93H2.75v-3.89h31.13L22.69 31.41l3.33-2 14.72 24.52z"></path><path class="avcls-1" d="M75.85 53.93H33.27L54.56 27.3zM41.35 50h26.42L54.56 33.52z"></path><path class="avcls-1" d="M37.08 55.38L22.69 31.41l3.33-2 11.52 19.18 15.5-19.4 3.04 2.43-19 23.76z"></path><path class="avcls-1" d="M72.04 55.38l-19-23.76 3.04-2.42 15.5 19.39L83.1 29.41l3.33 2-14.39 23.97z"></path><path class="avcls-1" d="M106.39 53.93H68.38L83.1 29.41l3.33 2-11.18 18.63h31.14v3.89zM52.62 0h3.89v12.96h-3.89z"></path><path class="avcls-1" transform="rotate(-67.51 67.85 9.119)" d="M61.38 7.18h12.96v3.89H61.38z"></path><path class="avcls-1" transform="rotate(-45.01 79.115 16.645)" d="M72.64 14.7H85.6v3.89H72.64z"></path><path class="avcls-1" transform="rotate(-22.5 41.275 9.125)" d="M39.34 2.64h3.89V15.6h-3.89z"></path><path class="avcls-1" transform="rotate(-44.99 30.023 16.648)" d="M28.07 10.17h3.89v12.95h-3.89z"></path></g></g></svg>
