<svg xmlns="http://www.w3.org/2000/svg" viewBox="0 0 107.95 98.16" id="resource_8"><g id="awСлой_2" data-name="Слой 2"><g id="awLayer_1" data-name="Layer 1"><path class="awcls-1" d="M52.61 83.31a33.29 33.29 0 0 1-4.24-.44L49 79a29.39 29.39 0 0 0 3.76.39zm4.25-.08l-.32-3.88a31.46 31.46 0 0 0 3.74-.53l.79 3.8a35 35 0 0 1-4.21.61zm8.32-1.74l-1.26-3.67a30.07 30.07 0 0 0 3.48-1.45l1.71 3.49a31.92 31.92 0 0 1-3.93 1.63zm7.63-3.73l-2.13-3.25a31.78 31.78 0 0 0 3-2.26l2.51 3a35.17 35.17 0 0 1-3.38 2.51zm6.48-5.5l-2.86-2.63a30.44 30.44 0 0 0 2.38-2.93L82 69a33.87 33.87 0 0 1-2.71 3.26zM6.8 49a46.91 46.91 0 0 0 11.6 31l32.35-32.35V1.91A47.29 47.29 0 0 0 6.8 49zm40.06-3L18.74 74.17A43.33 43.33 0 0 1 46.86 6.28z"></path><path class="awcls-1" d="M55.41 52.31L23.06 84.66a47.21 47.21 0 0 0 78.09-32.35zM54 92.37a43.26 43.26 0 0 1-25.15-8.05L57 56.2h39.78A43.48 43.48 0 0 1 54 92.37zm45.69-55.45c-.38-1.43-.83-2.84-1.34-4.22l-13 13h5.56zm-34.87 8.8h5.56L93.29 22.8c-.74-1.1-1.52-2.17-2.35-3.2zm36.33 0a47.27 47.27 0 0 0-.61-4.94l-5 4.94zM97 29.38c-.57-1.26-1.21-2.48-1.89-3.68l-20 20h5.55zM70.36 4.71c-1.38-.51-2.79-1-4.23-1.34l-8.79 8.8v5.56zm13.1 7.41c-1-.83-2.1-1.61-3.21-2.35L57.34 32.68v5.56zM77.36 8c-1.2-.68-2.42-1.32-3.68-1.89L57.34 22.43V28zm11.42 9.06c-.89-1-1.82-1.89-2.78-2.78L57.34 42.94v2.78h2.78zM57.34 7.47l4.94-4.95a47.27 47.27 0 0 0-4.94-.61z"></path><path class="awcls-1" d="M107.95 90.3h-15.5l-7.25-7.25 2.74-2.75 6.12 6.12h13.89v3.88zm-14.7 3.98h14.7v3.89h-14.7zM20.01 17.86l-6.12-6.11H0V7.86h15.51l7.25 7.25-2.75 2.75zM0 0h14.7v3.89H0z"></path></g></g></svg>
