<svg xmlns="http://www.w3.org/2000/svg" viewBox="0 0 81.16 121.68" id="resource_1"><g id="aiСлой_2" data-name="Слой 2"><g id="aiLayer_1" data-name="Layer 1"><path class="aicls-1" d="M40 37.73l-1.85-3.42a11 11 0 1 0-10.45 0l-1.85 3.42a14.9 14.9 0 1 1 14.15 0z"></path><path class="aicls-1" d="M76 102.13H26.77a2 2 0 0 1-1.95-1.95A16.75 16.75 0 0 0 8.09 83.45a8.09 8.09 0 0 1 0-16.18 32.55 32.55 0 0 1 16.73 4.57V24.61a8.1 8.1 0 0 1 16.19 0v21.86a8.09 8.09 0 0 1 9.93 1.19 6 6 0 0 1 .42.46c.14-.16.29-.31.44-.46a8.08 8.08 0 0 1 11.43 0c.15.15.29.31.43.47.14-.16.28-.32.44-.47a8 8 0 0 1 5.71-2.37 8.09 8.09 0 0 1 8.09 8.09v46.8a1.94 1.94 0 0 1-1.9 1.95zm-47.38-3.89H74V53.38a4.22 4.22 0 0 0-4.2-4.21 4.27 4.27 0 0 0-4.22 4.21 1.94 1.94 0 0 1-3.88 0 4.2 4.2 0 0 0-4.2-4.22 4.23 4.23 0 0 0-4.21 4.22 1.95 1.95 0 0 1-3.89 0 4.2 4.2 0 0 0-4.2-4.22 4.23 4.23 0 0 0-3 1.24 4.17 4.17 0 0 0-1.22 3 1.95 1.95 0 1 1-3.89 0V24.61a4.21 4.21 0 0 0-8.41 0v50.88A1.95 1.95 0 0 1 25.59 77a28.71 28.71 0 0 0-17.5-5.89 4.21 4.21 0 0 0 0 8.41 20.66 20.66 0 0 1 20.53 18.72zM68.4 116.3a5.37 5.37 0 1 1 5.36-5.37 5.38 5.38 0 0 1-5.36 5.37zm0-6.85a1.48 1.48 0 1 0 1.48 1.48 1.49 1.49 0 0 0-1.48-1.48z"></path><path class="aicls-1" d="M81.16 121.69h-3.89v-19.56H25.45v19.56h-3.89V98.24h59.6v23.45zM30.97 0h3.89v7.07h-3.89z"></path><path class="aicls-1" transform="rotate(-30.02 22.361 6.356)" d="M20.43 2.82h3.89v7.06h-3.89z"></path><path class="aicls-1" transform="rotate(-59.99 14.66 14.075)" d="M12.72 10.54h3.89v7.06h-3.89z"></path><path class="aicls-1" d="M8.3 22.67h7.07v3.89H8.3z"></path><path class="aicls-1" transform="rotate(-30.01 14.668 35.162)" d="M11.13 33.21h7.07v3.89h-7.07z"></path><path class="aicls-1" transform="rotate(-59.99 51.17 35.15)" d="M49.23 31.62h3.89v7.06h-3.89z"></path><path class="aicls-1" d="M50.46 22.67h7.07v3.89h-7.07z"></path><path class="aicls-1" transform="rotate(-30.02 51.171 14.08)" d="M47.64 12.13h7.06v3.89h-7.06z"></path><path class="aicls-1" transform="rotate(-60 43.452 6.358)" d="M39.92 4.41h7.06V8.3h-7.06z"></path></g></g></svg>
