<svg xmlns="http://www.w3.org/2000/svg" viewBox="0 0 480.008 480" id="pornography"><path d="M440.004.004h-400C17.922.03.03 17.922.004 40.004v320c.027 22.082 17.918 39.973 40 40h110.922l-26.664 32H48.004a7.995 7.995 0 0 0-5 1.754l-40 32a8 8 0 0 0 5 14.246h464a8 8 0 0 0 5-14.246l-40-32a7.995 7.995 0 0 0-5-1.754h-76.258l-26.664-32h110.922c22.082-.027 39.973-17.918 40-40v-320c-.027-22.082-17.918-39.973-40-40zm9.191 464H30.812l20-16h378.399zm-114.27-32H145.083l26.664-32h136.516zm129.079-72c0 13.254-10.746 24-24 24h-400c-13.254 0-24-10.746-24-24v-320c0-13.254 10.746-24 24-24h400c13.254 0 24 10.746 24 24zm0 0"></path><path d="M440.004 32.004h-400a8 8 0 0 0-8 8v320a8 8 0 0 0 8 8h400a8 8 0 0 0 8-8v-320a8 8 0 0 0-8-8zm-8 16v48h-384v-48zM177.758 305.707a78.947 78.947 0 0 0 10.773-70.129l-3.96-12.125a55.12 55.12 0 0 0 51.44-20.914c14.313 18.309 38.462 25.848 60.65 18.938l-4.657 13.726a78.87 78.87 0 0 0 10.496 70.938 62.525 62.525 0 0 1 10.93 45.863H166.578a62.902 62.902 0 0 1 11.18-46.297zm151.847 46.297a78.456 78.456 0 0 0-14.027-55.2 62.809 62.809 0 0 1-8.375-56.511l10.48-30.969c19.512-17.664 24-46.57 10.77-69.32l-13.84 8c9.746 16.809 6 38.191-8.875 50.691-14.875 12.496-36.582 12.496-51.46 0-14.876-12.5-18.622-33.882-8.876-50.691l-13.855-8a55.468 55.468 0 0 0-4.238 46.785 40 40 0 0 1-70.242 2.086 39.998 39.998 0 0 1 .335-40.871l-13.855-8a55.889 55.889 0 0 0 22.234 77.457l7.543 23.086a63.127 63.127 0 0 1-8.863 56.258 78.467 78.467 0 0 0-13.992 55.199H48.004v-240h384v240zm0 0"></path><path d="M64.004 64.004h16v16h-16zm32 0h16v16h-16zm32 0h16v16h-16zm272 0h16v16h-16zm-168 216h16v16h-16zm0 0"></path></svg>
