<svg xmlns="http://www.w3.org/2000/svg" viewBox="0 0 125.67 66.53" id="resource_2"><g id="aqСлой_2" data-name="Слой 2"><g id="aqLayer_1" data-name="Layer 1"><path class="aqcls-1" d="M62.84 66.53a76.17 76.17 0 0 1-62-32.14L0 33.26l.79-1.12a76 76 0 0 1 124.09 0l.79 1.12-.79 1.13a76.16 76.16 0 0 1-62.04 32.14zM4.78 33.26a72.25 72.25 0 0 0 58.06 29.38 72.24 72.24 0 0 0 58.05-29.38 72.06 72.06 0 0 0-116.11 0z"></path><path class="aqcls-1" d="M62.84 66.53A33.27 33.27 0 1 1 96.1 33.26a33.3 33.3 0 0 1-33.26 33.27zm0-62.64a29.38 29.38 0 1 0 29.38 29.37A29.41 29.41 0 0 0 62.84 3.89z"></path><path class="aqcls-1" d="M62.83 45.84a12.58 12.58 0 1 1 12.58-12.58 12.6 12.6 0 0 1-12.58 12.58zm0-21.27a8.7 8.7 0 1 0 8.7 8.69 8.7 8.7 0 0 0-8.7-8.69zm-5.37-9.84L56.37 11a23.2 23.2 0 0 1 6.47-.92V14a19.12 19.12 0 0 0-5.38.73zM43.53 33.27h-3.89A23.14 23.14 0 0 1 52 12.76l1.82 3.44a19.25 19.25 0 0 0-10.29 17.07z"></path></g></g></svg>
