<svg xmlns="http://www.w3.org/2000/svg" viewBox="0 0 111.88 74.06" id="resource_6"><g id="auСлой_2" data-name="Слой 2"><g id="auLayer_1" data-name="Layer 1"><path class="aucls-1" d="M0 70.17h74.85v3.89H0zm0-8.77h51.65v3.89H0zm0-8.77h44.45v3.89H0zm0-8.77h40.87v3.89H0zm0-8.78h39.76v3.89H0zm0-8.76h40.87v3.89H0zm0-8.78h44.45v3.89H0zm0-8.77h51.65v3.89H0zM0 0h74.85v3.89H0z"></path><path class="aucls-1" d="M74.85 74.06a37 37 0 1 1 37-37 37.07 37.07 0 0 1-37 37zm0-70.17A33.14 33.14 0 1 0 108 37 33.17 33.17 0 0 0 74.85 3.89z"></path><path class="aucls-1" d="M74.85 66.75A29.72 29.72 0 1 1 104.57 37a29.75 29.75 0 0 1-29.72 29.75zm0-55.55A25.83 25.83 0 1 0 100.68 37a25.86 25.86 0 0 0-25.83-25.8z"></path><path class="aucls-1" d="M76.76 50.46h-3.83a7.68 7.68 0 0 1-7.68-7.69h3.88a3.81 3.81 0 0 0 3.8 3.8h3.83a3.8 3.8 0 0 0 0-7.6h-3.83a7.69 7.69 0 0 1 0-15.37h3.83a7.68 7.68 0 0 1 7.69 7.69h-3.89a3.79 3.79 0 0 0-3.8-3.8h-3.83a3.8 3.8 0 0 0 0 7.6h3.83a7.69 7.69 0 0 1 0 15.37z"></path><path class="aucls-1" d="M72.91 20.95h3.89v4.6h-3.89zm0 27.57h3.89v4.59h-3.89z"></path></g></g></svg>
