<svg xmlns="http://www.w3.org/2000/svg" viewBox="0 0 512 512" id="video"><g fill-rule="evenodd" clip-rule="evenodd"><path d="M452.9 211H141.4l299.2-86.7c2.3-.7 4.3-2.2 5.5-4.4 1.2-2.1 1.4-4.6.8-6.9l-15.7-54.1c-6.3-21.6-26.4-36.7-48.9-36.7-4.7 0-9.5.7-14.1 2L87.3 105.6c-13 3.8-23.8 12.4-30.3 24.3-6.6 11.9-8.1 25.6-4.3 38.6L68 221.3v217.5c0 28 22.8 50.8 50.8 50.8h109.7c5 0 9.1-4.1 9.1-9.1s-4.1-9.1-9.1-9.1H118.7c-18 0-32.6-14.6-32.6-32.6V314.7h357.5V439c0 18-14.6 32.6-32.6 32.6H301.5c-5 0-9.1 4.1-9.1 9.1s4.1 9.1 9.1 9.1h109.7c28 0 50.8-22.8 50.8-50.8V220.1c0-5-4.1-9.1-9.1-9.1zm-161.3 85.2l39-67.6h50.7l-39 67.6h-50.7zm-71.5 0l39-67.6h50.7l-39 67.6h-50.7zm-71.6 0l39-67.6h50.7l-39 67.6h-50.7zm34.2-118l-65-62.4 48.7-14.1c.3.5.7 1 1.2 1.4l65 62.4-48.7 14.1c-.3-.5-.7-1-1.2-1.4zM305.1 63.3l65 62.4-48.7 14.1c-.3-.5-.7-1-1.2-1.4l-65-62.4 48.7-14.1c.3.5.7 1 1.2 1.4zm-68.7 19.9l65 62.4-48.7 14.1c-.3-.5-.7-1-1.2-1.4l-65-62.4 48.7-14.1c.3.5.7 1 1.2 1.4zm136.9-41.4c2.9-.8 6-1.3 9-1.3 14.4 0 27.3 9.7 31.3 23.5l13.1 45.3-36.6 10.6c-.3-.5-.7-1-1.2-1.4l-65-62.4 49.4-14.3zm-300.4 97c4.2-7.6 11.1-13.2 19.4-15.6l5.4-1.6c.3.5.7 1 1.2 1.4l65 62.4-80.6 23.4-13.1-45.3c-2.5-8.3-1.5-17.1 2.7-24.7zm13.3 89.8H167l-39 67.6H86.2v-67.6zm277.1 67.6l39-67.6h41.8v67.6h-80.8z" stroke-width="3" stroke-miterlimit="10"></path><path d="M328 392.1c0-3.3-1.7-6.3-4.6-7.9l-80.2-46.3c-3.6-2.1-8.4-1.5-11.4 1.8-1.6 1.7-2.3 4-2.3 6.3v92.2c0 2.2.7 4.4 2.2 6.1 1.9 2.1 4.4 3.2 7 3.2 1.6 0 3.2-.4 4.6-1.2l80.2-46.3c2.8-1.6 4.5-4.6 4.5-7.9zm-80.2 30.5v-61l52.8 30.5-52.8 30.5z" stroke-width="4" stroke-miterlimit="10"></path><path d="M264.9 471.5c-5 0-9.1 4.1-9.1 9.1s4.1 9.1 9.1 9.1 9.1-4.1 9.1-9.1-4-9.1-9.1-9.1z"></path></g></svg>
