<svg id="Capa_1" enable-background="new 0 0 515.556 515.556" height="512" viewBox="0 0 515.556 515.556" width="512" xmlns="http://www.w3.org/2000/svg"><path d="m257.778 193.333c-17.795 0-32.222 14.428-32.222 32.222v96.667c0 17.795 14.428 32.222 32.222 32.222s32.222-14.427 32.222-32.222v-96.667c0-17.794-14.428-32.222-32.222-32.222z"/><path id="path-1" d="m257.778 386.667c-17.795 0-32.222 14.428-32.222 32.222v64.444c0 17.81 14.428 32.222 32.222 32.222s32.222-14.411 32.222-32.221v-64.444c0-17.796-14.428-32.223-32.222-32.223z" transform="translate(7 12)"/><path d="m257.778 96.667c-71.068 0-128.889 57.821-128.889 128.889v64.444c0 17.795 14.428 32.222 32.222 32.222s32.222-14.428 32.222-32.222v-64.444c0-35.542 28.902-64.444 64.444-64.444s64.444 28.902 64.444 64.444v225.556c0 17.81 14.428 32.222 32.222 32.222 17.795 0 32.222-14.412 32.222-32.222v-225.556c.002-71.069-57.819-128.889-128.887-128.889z"/><path id="path-1_1_" d="m161.111 354.445c-17.795 0-32.222 14.428-32.222 32.222v64.444c0 17.81 14.428 32.222 32.222 32.222s32.222-14.412 32.222-32.222v-64.444c0-17.795-14.427-32.222-32.222-32.222z" transform="translate(4 11)"/><path d="m95.408 115.704c-16.19-7.363-35.306-.33-42.732 15.859-13.562 29.61-20.454 61.235-20.454 93.992v161.111c0 17.795 14.428 32.222 32.222 32.222s32.222-14.428 32.222-32.222v-161.111c0-23.427 4.909-46.005 14.601-67.119 7.411-16.174.315-35.306-15.859-42.732z"/><path d="m163.817 94.669c27.471-19.777 59.976-30.224 93.961-30.224 88.832 0 161.111 72.28 161.111 161.111 0 17.795 14.428 32.222 32.222 32.222s32.222-14.428 32.222-32.222c.001-124.374-101.182-225.556-225.555-225.556-47.578 0-93.08 14.648-131.595 42.355-14.443 10.384-17.732 30.523-7.348 44.966 10.384 14.428 30.508 17.732 44.982 7.348z"/><path d="m451.111 290c-17.795 0-32.222 14.428-32.222 32.222v64.444c0 17.795 14.428 32.222 32.222 32.222 17.795 0 32.222-14.428 32.222-32.222v-64.444c.001-17.794-14.427-32.222-32.222-32.222z"/></svg>