<svg xmlns="http://www.w3.org/2000/svg" viewBox="0 0 64 64" id="dice"><path d="M32 28V4a3 3 0 0 0-3-3H5a3 3 0 0 0-3 3v24a3 3 0 0 0 3 3h24a3 3 0 0 0 3-3zm-2 0a1 1 0 0 1-1 1H5a1 1 0 0 1-1-1V4a1 1 0 0 1 1-1h24a1 1 0 0 1 1 1zm29.308 4.96l-23.845-2.727a3 3 0 0 0-3.321 2.64l-2.727 23.845a3 3 0 0 0 2.64 3.322L55.9 62.767a3.13 3.13 0 0 0 .347.019 3 3 0 0 0 2.975-2.659l2.727-23.845a3 3 0 0 0-2.641-3.322zM57.233 59.9a1 1 0 0 1-1.106.88l-23.845-2.728a1 1 0 0 1-.88-1.107L34.129 33.1a1 1 0 0 1 .992-.887.9.9 0 0 1 .115.007l23.845 2.727a1 1 0 0 1 .879 1.107z"></path><path d="M46.363 40.539A6 6 0 1 0 45 52.461a5.863 5.863 0 0 0 .685.039 6 6 0 0 0 .678-11.961zm3.292 6.415a4 4 0 1 1-6.463-3.585 4 4 0 0 1 6.463 3.585zM16 12a4 4 0 1 0 4 4 4 4 0 0 0-4-4zm0 6a2 2 0 1 1 2-2 2 2 0 0 1-2 2zm-6-5a4 4 0 1 0-4-4 4 4 0 0 0 4 4zm0-6a2 2 0 1 1-2 2 2 2 0 0 1 2-2zm14 12a4 4 0 1 0 4 4 4 4 0 0 0-4-4zm0 6a2 2 0 1 1 2-2 2 2 0 0 1-2 2zM7 26H6a1 1 0 0 0 0 2h1a1 1 0 0 0 0-2zm8 0h-5a1 1 0 0 0 0 2h5a1 1 0 0 0 0-2z"></path></svg>
