<svg xmlns="http://www.w3.org/2000/svg" viewBox="0 0 107.99 110.11" id="resource_15"><g id="aoСлой_2" data-name="Слой 2"><g id="aoLayer_1" data-name="Layer 1"><path class="aocls-1" d="M26.36 71.25H14.7V58.67h11.66zm-7.78-3.89h3.89v-4.8h-3.89zm24.51 3.89H31.43V52.7h11.66zm-7.77-3.89h3.88V56.59h-3.88zm24.5 3.89H48.17V46.73h11.65zm-7.77-3.89h3.89V50.62h-3.89zm24.51 3.89H64.9V40.76h11.66zm-7.77-3.89h3.88V44.65h-3.88zm24.5 3.89H81.63V34.79h11.66zm-7.77-3.89h3.89V38.68h-3.89zM108 86.48H0V75.13h108zM3.89 82.6H104.1V79H3.89zm60.68-71.25H43.42V0h21.15zM47.3 7.47h13.39V3.89H47.3zm55.48 14.43H98.9V11.35H88.35V7.47h14.43V21.9z"></path><path class="aocls-1" d="M102.78 79.02H5.2V7.47h75.87v3.88H9.09v63.78H98.9V29.18h3.88v49.84zm-50.73 5.52h3.89v23.63h-3.89z"></path><path class="aocls-1" d="M30.05 106.23h47.89v3.89H30.05zM8.52 53.37l-2.75-2.75 18.41-18.41 8.52 8.52L49.73 23.7l8.52 8.51 17.04-17.03 8.52 8.52L99.47 8.04l2.75 2.74-18.41 18.41-8.52-8.52-17.04 17.04-8.52-8.52L32.7 46.23l-8.52-8.52L8.52 53.37z"></path></g></g></svg>
