<svg xmlns="http://www.w3.org/2000/svg" viewBox="0 0 117.24 120.91" id="resource_11"><g id="akСлой_2" data-name="Слой 2"><g id="akLayer_1" data-name="Layer 1"><path class="akcls-1" d="M113.4 68.07h-11.33v-3.89h11.33l-.05-41.51H3.83v41.51h7.51v3.89H3.83A3.84 3.84 0 0 1 0 64.23V22.67a3.82 3.82 0 0 1 3.83-3.83H113.4a3.82 3.82 0 0 1 3.84 3.83v41.56a3.86 3.86 0 0 1-3.84 3.84z"></path><path class="akcls-1" d="M41.62 64.18h34.01v3.89H41.62z"></path><path class="akcls-1" d="M77.56 83.13h-3.88V54.79a5.72 5.72 0 1 1 11.44 0v18.89h-3.89V54.79a1.84 1.84 0 0 0-.53-1.3 1.89 1.89 0 0 0-2.6 0 1.85 1.85 0 0 0-.54 1.3z"></path><path class="akcls-1" d="M92.68 73.68h-3.89V67a1.81 1.81 0 0 0-.54-1.3 1.88 1.88 0 0 0-2.59 0 1.81 1.81 0 0 0-.54 1.3v6.69h-3.89V67a5.73 5.73 0 0 1 11.45 0z"></path><path class="akcls-1" d="M100.23 73.68h-3.88V67a1.81 1.81 0 0 0-.54-1.3 1.89 1.89 0 0 0-2.6 0 1.84 1.84 0 0 0-.53 1.3v6.69h-3.89V67a5.72 5.72 0 1 1 11.44 0z"></path><path class="akcls-1" d="M102.12 107.68h-3.88v-6l5.66-15.11V69.9a1.86 1.86 0 0 0-.53-1.3 1.89 1.89 0 0 0-2.6 0 1.87 1.87 0 0 0-.54 1.3v3.78h-3.88V69.9a5.72 5.72 0 1 1 11.44 0v17.36l-5.67 15.11zm-22.67 0h-3.88v-4.88c-2.14-2.28-9.45-10.57-9.45-17.74v-7.6a5.72 5.72 0 1 1 11.44 0h-3.88a1.82 1.82 0 0 0-.54-1.3 1.89 1.89 0 0 0-2.6 0 1.86 1.86 0 0 0-.53 1.3v7.6c0 5.49 6.41 13.11 8.87 15.58l.57.57z"></path><path class="akcls-1" d="M104 120.91h-3.88v-11.34l-22.62.06v11.28h-3.82v-11.34a3.76 3.76 0 0 1 1.12-2.7 3.81 3.81 0 0 1 2.71-1.13h22.67a3.82 3.82 0 0 1 3.83 3.83zM43.56 83.13h-3.89V58.57a1.81 1.81 0 0 0-.54-1.3 1.87 1.87 0 0 0-2.59 0 1.81 1.81 0 0 0-.54 1.3v15.11h-3.88V58.57a5.72 5.72 0 1 1 11.44 0z"></path><path class="akcls-1" d="M36 73.68h-3.88V54.79a1.85 1.85 0 0 0-.54-1.3 1.89 1.89 0 0 0-2.6 0 1.84 1.84 0 0 0-.53 1.3v18.89h-3.89V54.79a5.72 5.72 0 1 1 11.44 0z"></path><path class="akcls-1" d="M28.45 73.68h-3.89V58.57a1.81 1.81 0 0 0-.54-1.3 1.88 1.88 0 0 0-2.59 0 1.81 1.81 0 0 0-.54 1.3v15.11H17V58.57a5.73 5.73 0 0 1 11.45 0z"></path><path class="akcls-1" d="M19 107.68h-3.89v-5.31L9.45 87.26V62.34a5.72 5.72 0 0 1 11.44 0v11.34H17V62.34a1.82 1.82 0 0 0-.54-1.3 1.87 1.87 0 0 0-2.59 0 1.78 1.78 0 0 0-.54 1.29v24.22L19 101.66zm22.67 0h-3.89v-6.47l.57-.57c2.47-2.47 8.88-10.09 8.88-15.58v-7.6a1.82 1.82 0 0 0-.54-1.3 1.88 1.88 0 0 0-2.59 0 1.82 1.82 0 0 0-.54 1.3h-3.89a5.73 5.73 0 0 1 11.45 0v7.6c0 7.17-7.31 15.46-9.45 17.74z"></path><path class="akcls-1" d="M43.56 120.91h-3.89v-11.34l-22.61.06.05 11.28h-3.89v-11.34a3.84 3.84 0 0 1 3.84-3.83h22.67a3.84 3.84 0 0 1 3.83 3.83zm17-100.13h-3.88V17a1.84 1.84 0 0 0-1.84-1.83H43.51a5.73 5.73 0 0 1 0-11.45h22.66A1.83 1.83 0 0 0 68 1.89V0h3.9v1.89a5.67 5.67 0 0 1-1.68 4 5.66 5.66 0 0 1-4 1.68H43.51a1.79 1.79 0 0 0-1.3.54 1.82 1.82 0 0 0-.54 1.3 1.78 1.78 0 0 0 .54 1.29 1.81 1.81 0 0 0 1.3.54h11.33A5.74 5.74 0 0 1 60.56 17zM11.39 26.4h3.78v3.89h-3.78zm7.56 0h3.78v3.89h-3.78zm7.55 0h3.78v3.89H26.5zm7.56 0h3.78v3.89h-3.78zm7.56 0h3.78v3.89h-3.78zm7.55 0h3.78v3.89h-3.78zm7.56 0h3.78v3.89h-3.78zm7.56 0h3.78v3.89h-3.78zm7.55 0h3.78v3.89h-3.78zm7.56 0h3.78v3.89H79.4zm7.56 0h3.78v3.89h-3.78zm7.55 0h3.78v3.89h-3.78zm7.56 0h3.78v3.89h-3.78zM7.61 33.95h3.78v3.89H7.61zm7.56 0h3.78v3.89h-3.78zm7.55 0h3.78v3.89h-3.78zm7.56 0h3.78v3.89h-3.78zm7.56 0h3.78v3.89h-3.78zm7.55 0h3.78v3.89h-3.78zm7.56 0h3.78v3.89h-3.78zm7.56 0h3.78v3.89h-3.78zm7.55 0h3.78v3.89h-3.78zm7.56 0h3.78v3.89h-3.78zm7.56 0h3.78v3.89h-3.78zm7.55 0h3.78v3.89h-3.78zm7.56 0h3.78v3.89h-3.78zm7.56 0h3.78v3.89h-3.78zm-94.46 7.56h3.78v3.89h-3.78zm7.56 0h3.78v3.89h-3.78zm7.55 0h3.78v3.89H26.5zm7.56 0h3.78v3.89h-3.78zm7.56 0h3.78v3.89h-3.78zm7.55 0h3.78v3.89h-3.78zm7.56 0h3.78v3.89h-3.78zm7.56 0h3.78v3.89h-3.78zm7.55 0h3.78v3.89h-3.78zm7.56 0h3.78v3.89H79.4zm7.56 0h3.78v3.89h-3.78zm7.55 0h3.78v3.89h-3.78zm7.56 0h3.78v3.89h-3.78zM7.61 49.07h3.78v3.89H7.61zm7.56 0h3.78v3.89h-3.78zm30.22 0h3.78v3.89h-3.78zm7.56 0h3.78v3.89h-3.78zm7.56 0h3.78v3.89h-3.78zm7.55 0h3.78v3.89h-3.78zm30.23 0h3.78v3.89h-3.78zm-7.56 0h3.78v3.89h-3.78zm15.12 0h3.78v3.89h-3.78zm-56.68 7.55h18.89v3.89H49.17z"></path></g></g></svg>
