<svg xmlns="http://www.w3.org/2000/svg" viewBox="0 0 94.4 111.84" id="resource_3"><g id="arСлой_2" data-name="Слой 2"><g id="arLayer_1" data-name="Layer 1"><path class="arcls-1" d="M94.29 54.38H.11V0h94.18zM4 50.5h86.4V3.89H4z"></path><path class="arcls-1" d="M78.44 47.58H16v-1.94a7.11 7.11 0 0 0-7.1-7.1H6.91v-22.7h1.94A7.1 7.1 0 0 0 16 8.74V6.8h62.44v1.94a7.11 7.11 0 0 0 7.1 7.1h1.95v22.7h-1.95a7.11 7.11 0 0 0-7.1 7.1zM19.67 43.7h55.06a11 11 0 0 1 8.87-8.87V19.56a11 11 0 0 1-8.87-8.87H19.67a11 11 0 0 1-8.87 8.87v15.27a11 11 0 0 1 8.87 8.87z"></path><path class="arcls-1" d="M70.53 25.25h4.32v3.89h-4.32zm-50.98 0h4.32v3.89h-4.32zM47.2 41.23a14 14 0 1 1 14-14 14.06 14.06 0 0 1-14 14zm0-24.23a10.15 10.15 0 1 0 10.15 10.19A10.16 10.16 0 0 0 47.2 17zm-1.95 35.44h3.89v57.46h-3.89z"></path><path class="arcls-1" d="M0 107.95h94.4v3.89H0zm75.93-26.89H53.46V70.91a10.16 10.16 0 0 1 10.16-10.15h22.46v10.15a10.14 10.14 0 0 1-10.15 10.15zm-18.58-3.89h18.58a6.25 6.25 0 0 0 6.26-6.26v-6.27H63.62a6.28 6.28 0 0 0-6.27 6.27zM40.93 97.48H18.47A10.16 10.16 0 0 1 8.32 87.32V77.17h22.46a10.16 10.16 0 0 1 10.15 10.15zM12.2 81.06v6.26a6.27 6.27 0 0 0 6.27 6.27h18.58v-6.27a6.27 6.27 0 0 0-6.27-6.26z"></path></g></g></svg>
