<svg xmlns="http://www.w3.org/2000/svg" viewBox="0 0 111.84 116.16" id="resource_12"><g id="alСлой_2" data-name="Слой 2"><g id="alLayer_1" data-name="Layer 1"><path class="alcls-1" d="M85.72 116.16H0V13.49h85.72v3.89H3.89v94.89h81.83v3.89z"></path><path class="alcls-1" d="M85.72 17.38H0V0h85.72v3.89H3.89v9.6h81.83v3.89z"></path><path class="alcls-1" d="M23.61 6.75h3.89v3.89h-3.89zm-7.78 0h3.89v3.89h-3.89zm-7.77 0h3.89v3.89H8.06zM85.72 108.1H8.06V21.56h77.66v3.88H11.95v78.77h73.77v3.89z"></path><path class="alcls-1" d="M36.22 32.66h39.69v3.89H36.22zm0 8.63h19.85v3.89H36.22zm-12.21 4.32l-6.44-6.43 2.75-2.75 3.69 3.69 6.52-6.52 2.74 2.74-9.26 9.27zm12.21 4.32h39.69v3.89H36.22zm0 8.64h19.85v3.89H36.22zm-12.21 4.31l-6.44-6.43 2.75-2.75 3.69 3.69 6.52-6.52 2.74 2.75-9.26 9.26zm12.21 4.32h39.69v3.89H36.22zm0 8.64h19.85v3.89H36.22zm-4.53 3.88H19.16V67.2h12.53zm-8.64-3.88h4.75v-4.75h-4.75zm13.17 8.63h39.69v3.89H36.22zm0 8.64h19.85V97H36.22zM31.69 97H19.16V84.47h12.53zm-8.64-3.89h4.75v-4.75h-4.75zm77.13-77.67h3.89v75.21h-3.89z"></path><path class="alcls-1" d="M102.13 115.94l-9.72-17v-83.5h3.89v82.47l5.83 10.2 5.82-10.2V15.44h3.89v83.5l-9.71 17z"></path><path class="alcls-1" d="M108.52 99.8l-6.39-6.4-6.4 6.4-2.75-2.75 9.15-9.15 9.14 9.15-2.75 2.75zm3.32-82.42H92.41V5.83A5.84 5.84 0 0 1 98.24 0H106a5.84 5.84 0 0 1 5.83 5.83zm-15.55-3.89H108V5.83a2 2 0 0 0-2-1.94h-7.76a2 2 0 0 0-1.95 1.94z"></path></g></g></svg>
