<svg xmlns="http://www.w3.org/2000/svg" viewBox="0 0 512.002 512.002" id="pills"><path d="M329.941 74.505c-6.954-26.027-23.553-47.733-46.738-61.119A100.057 100.057 0 0 0 233.245 0c-35.948 0-69.373 19.214-87.23 50.144l-63.284 109.61-.019.029-.016.031L19.41 269.427C-8.278 317.385 8.214 378.928 56.172 406.616A100.037 100.037 0 0 0 106.123 420c32.786 0 63.559-15.872 82.316-42.457.172-.244.333-.495.482-.752l131.037-226.202c13.377-23.094 16.922-50.113 9.983-76.084zM171.846 366.366C156.807 387.435 132.272 400 106.123 400a80.012 80.012 0 0 1-39.951-10.705c-38.408-22.174-51.615-71.461-29.441-109.869l58.303-100.983 21.646 12.497c.002.001.003.003.005.003l.004.002 117.482 67.831-62.325 107.59zm130.805-225.804l-58.456 100.91-108.851-62.847 27.976-48.456c2.761-4.783 1.123-10.899-3.66-13.66-4.783-2.762-10.899-1.123-13.66 3.66l-27.976 48.456-12.991-7.5 58.301-100.98C177.631 35.382 204.419 20 233.245 20a80.02 80.02 0 0 1 39.958 10.707c18.555 10.712 31.843 28.101 37.416 48.961 5.558 20.804 2.728 42.43-7.968 60.894zM462.253 342.82c-24.418-6.977-56.62-10.819-90.673-10.819-34.053 0-66.254 3.842-90.672 10.819-29.012 8.289-43.737 19.959-43.771 34.686 0 .018-.003.034-.003.051v88.888c0 14.778 14.704 26.473 43.702 34.758 24.372 6.964 56.599 10.799 90.742 10.799s66.37-3.835 90.742-10.799c28.999-8.285 43.702-19.98 43.702-34.758v-88.826a.625.625 0 0 0 .004-.062c0-14.751-14.728-26.439-43.773-34.737zm-175.85 19.231c22.682-6.48 52.932-10.049 85.178-10.049 32.247 0 62.497 3.569 85.179 10.049 24.111 6.889 29.237 14.288 29.266 15.495l-.001.012v.017c-.041 1.22-5.183 8.608-29.265 15.489-22.682 6.48-52.932 10.049-85.179 10.049-32.246 0-62.496-3.569-85.178-10.049-24.179-6.908-29.267-14.331-29.267-15.506 0-1.175 5.088-8.599 29.267-15.507zm199.623 104.394c-.002 1.426-5.197 8.67-29.198 15.528-22.636 6.467-52.911 10.029-85.248 10.029-32.338 0-62.612-3.561-85.248-10.029-24.001-6.857-29.196-14.102-29.196-15.528V403.13c6.403 3.405 14.326 6.465 23.773 9.164 24.418 6.977 56.619 10.819 90.672 10.819s66.255-3.842 90.673-10.819c9.446-2.699 17.367-5.758 23.771-9.163v24.956c-14.348 7.1-32.246 12.85-52.205 16.731-5.422 1.054-8.962 6.303-7.908 11.725.929 4.777 5.114 8.093 9.806 8.093.633 0 1.275-.061 1.919-.186 17.812-3.463 34.238-8.363 48.389-14.377v16.372z"></path><path d="M174.683 90.486c-4.783-2.761-10.898-1.123-13.66 3.66l-.162.281c-2.761 4.783-1.123 10.898 3.66 13.66a9.995 9.995 0 0 0 13.66-3.66l.162-.281c2.762-4.783 1.123-10.898-3.66-13.66zm241.03 367.475a9.994 9.994 0 0 0-10.945-8.955l-.225.022c-5.498.52-9.533 5.4-9.012 10.898.49 5.177 4.846 9.057 9.943 9.057.315 0 .635-.015.955-.045l.329-.032c5.495-.549 9.505-5.45 8.955-10.945z"></path></svg>
