<svg viewBox="0 0 480.00817 480" xmlns="http://www.w3.org/2000/svg"><path d="m440.003906.00390625h-400c-22.082031.02734375-39.972656 17.91796875-39.99999975 39.99999975v320c.02734375 22.082032 17.91796875 39.972656 39.99999975 40h110.921875l-26.664062 32h-76.257813c-1.816406 0-3.582031.617188-5 1.753906l-40 32c-2.652344 2.121094-3.679687 5.6875-2.550781 8.894532 1.125 3.207031 4.152344 5.351562 7.550781 5.351562h464c3.398438 0 6.425782-2.144531 7.550782-5.351562 1.128906-3.207032.101562-6.773438-2.550782-8.894532l-40-32c-1.417968-1.136718-3.183594-1.753906-5-1.753906h-76.257812l-26.664063-32h110.921875c22.082032-.027344 39.972656-17.917968 40-40v-320c-.027344-22.082031-17.917968-39.972656-40-39.99999975zm9.191406 463.99999975h-418.382812l20-16h378.398438zm-114.269531-32h-189.84375l26.664063-32h136.515625zm129.078125-72c0 13.253906-10.746094 24-24 24h-400c-13.253906 0-24-10.746094-24-24v-320c0-13.253906 10.746094-24 24-24h400c13.253906 0 24 10.746094 24 24zm0 0"/><path d="m440.003906 32.003906h-400c-4.417968 0-8 3.582032-8 8v320c0 4.417969 3.582032 8 8 8h400c4.417969 0 8-3.582031 8-8v-320c0-4.417968-3.582031-8-8-8zm-8 16v48h-384v-48zm-254.246094 257.703125c14.484376-20.351562 18.480469-46.363281 10.773438-70.128906l-3.960938-12.125c19.664063 2.804687 39.316407-5.183594 51.441407-20.914063 14.3125 18.308594 38.460937 25.847657 60.648437 18.9375l-4.65625 13.726563c-8.074218 23.960937-4.171875 50.339844 10.496094 70.9375 9.488281 13.273437 13.410156 29.734375 10.929688 45.863281h-146.851563c-2.484375-16.300781 1.527344-32.925781 11.179687-46.296875zm151.847657 46.296875c2.402343-19.507812-2.601563-39.207031-14.027344-55.199218-11.691406-16.402344-14.808594-37.421876-8.375-56.511719l10.480469-30.96875c19.511718-17.664063 24-46.570313 10.769531-69.320313l-13.839844 8c9.746094 16.808594 6 38.191406-8.875 50.691406-14.875 12.496094-36.582031 12.496094-51.460937 0-14.875-12.5-18.621094-33.882812-8.875-50.691406l-13.855469-8c-8.273437 14.195313-9.824219 31.332032-4.238281 46.785156-6.617188 13.074219-19.855469 21.480469-34.5 21.917969-14.648438.433594-28.359375-7.171875-35.742188-19.832031-7.382812-12.65625-7.253906-28.335938.335938-40.871094l-13.855469-8c-7.628906 13.152344-9.570313 28.847656-5.375 43.460938 4.195313 14.617187 14.164063 26.890625 27.609375 33.996094l7.542969 23.085937c6.152343 19.097656 2.863281 39.980469-8.863281 56.257813-11.410157 16-16.40625 35.695312-13.992188 55.199218h-102.464844v-240h384v240zm0 0"/><path d="m64.003906 64.003906h16v16h-16zm0 0"/><path d="m96.003906 64.003906h16v16h-16zm0 0"/><path d="m128.003906 64.003906h16v16h-16zm0 0"/><path d="m400.003906 64.003906h16v16h-16zm0 0"/><path d="m232.003906 280.003906h16v16h-16zm0 0"/></svg>