<svg id="Layer_1" data-name="Layer 1" xmlns="http://www.w3.org/2000/svg" viewBox="0 0 428.91 340.98"><defs><style>.cls-1{fill:none;stroke:#ddd;stroke-miterlimit:10;}.cls-2{fill:#fff;}.cls-2,.cls-3,.cls-4,.cls-5,.cls-6,.cls-7,.cls-8,.cls-9{fill-rule:evenodd;}.cls-3{fill:#ddd;}.cls-4,.cls-7{fill:#cfcfcf;stroke:#cfcfcf;}.cls-4{stroke-width:3.95px;}.cls-5{fill:#727272;}.cls-6{fill:#90bc33;}.cls-7{stroke-width:3.99px;}.cls-8{fill:#e5e5e5;}.cls-9{fill:#ececec;}</style></defs><title>pop</title><g id="Слой_1"><g id="_243447002288" data-name=" 243447002288"><path class="cls-1" d="M49.31,270.18H419a9.47,9.47,0,0,0,9.44-9.44V9.94A9.47,9.47,0,0,0,419,.5H49.31a9.48,9.48,0,0,0-9.47,9.44v250.8A9.48,9.48,0,0,0,49.31,270.18Z"/><path id="_1" data-name=" 1" class="cls-2" d="M49.31,270.18H419a9.47,9.47,0,0,0,9.44-9.44V9.94A9.47,9.47,0,0,0,419,.5H49.31a9.48,9.48,0,0,0-9.47,9.44v250.8A9.48,9.48,0,0,0,49.31,270.18Z"/><path class="cls-3" d="M428.41,33.07V9.94A9.47,9.47,0,0,0,419,.5H49.31a9.48,9.48,0,0,0-9.47,9.44V33.07Z"/><path class="cls-4" d="M97.88,11.44H396.82c1.52,0,2.77.34,2.77.77V24.85c0,.42-1.25.76-2.77.76H97.88c-1.52,0-2.77-.34-2.77-.76V12.21c0-.43,1.25-.77,2.77-.77Z"/><path class="cls-5" d="M409.28,13.43h11.39a1,1,0,0,1,1,1h0a1,1,0,0,1-1,1H409.28a1,1,0,0,1-1-1h0A1,1,0,0,1,409.28,13.43Zm0,4.08h11.39a1,1,0,0,1,1,1h0a1,1,0,0,1-1,1H409.28a1,1,0,0,1-1-1h0A1,1,0,0,1,409.28,17.51Zm0,4.08h11.39a1,1,0,0,1,1,1h0a1,1,0,0,1-1,1H409.28a1,1,0,0,1-1-1h0A1,1,0,0,1,409.28,21.59Z"/><path class="cls-5" d="M79.53,22a4.13,4.13,0,0,1,4.65-6.81l.56-1c0-.06.12,0,.15,0L86,16.86a.07.07,0,0,1,0,.11l-2.84.25a.07.07,0,0,1,0-.11l.56-1a3,3,0,1,0,.77,4.53.56.56,0,0,1,.73-.11.57.57,0,0,1,.15.85A4.17,4.17,0,0,1,79.53,22Z"/><polygon class="cls-5" points="62.95 13.82 70.32 18.53 62.95 23.23 62.95 18.53 62.95 13.82"/><polygon class="cls-5" points="56.45 13.82 49.09 18.53 56.45 23.23 56.45 18.53 56.45 13.82"/><path class="cls-6" d="M55.38,42.34h357.5c2.83,0,5.13,1.5,5.13,3.34V257.6c0,1.81-2.3,3.31-5.13,3.31H55.38c-2.84,0-5.13-1.5-5.13-3.31V45.68c0-1.84,2.29-3.34,5.13-3.34Z"/><g id="_243447003312" data-name=" 243447003312"><path class="cls-1" d="M9.94,340.48H379.6a9.48,9.48,0,0,0,9.47-9.44V80.24a9.51,9.51,0,0,0-9.47-9.47H9.94A9.5,9.5,0,0,0,.5,80.24V331A9.47,9.47,0,0,0,9.94,340.48Z"/><path id="_1_0" data-name=" 1 0" class="cls-2" d="M9.94,340.48H379.6a9.48,9.48,0,0,0,9.47-9.44V80.24a9.51,9.51,0,0,0-9.47-9.47H9.94A9.5,9.5,0,0,0,.5,80.24V331A9.47,9.47,0,0,0,9.94,340.48Z"/><path class="cls-3" d="M389.07,103.37V80.24a9.51,9.51,0,0,0-9.47-9.47H9.94A9.5,9.5,0,0,0,.5,80.24v23.13Z"/><path class="cls-7" d="M57.19,81.74h301c1.53,0,2.78.34,2.78.76V95.12c0,.42-1.25.79-2.78.79h-301c-1.53,0-2.76-.37-2.76-.79V82.5c0-.42,1.23-.76,2.76-.76Z"/><path class="cls-5" d="M369.9,83.7h11.43a1,1,0,0,1,1,1h0a1,1,0,0,1-1,1H369.9a1,1,0,0,1-1-1h0A1,1,0,0,1,369.9,83.7Zm0,4.11h11.43a1,1,0,0,1,1,1h0a1,1,0,0,1-1,1H369.9a1.07,1.07,0,0,1-1-1h0A1,1,0,0,1,369.9,87.81Zm0,4.08h11.43a1,1,0,0,1,1,1h0a1,1,0,0,1-1,1H369.9a1,1,0,0,1-1-1h0A1,1,0,0,1,369.9,91.89Z"/><path class="cls-5" d="M40.18,92.28a4.13,4.13,0,0,1,4.62-6.83l.6-.93a.08.08,0,0,1,.14,0l1.08,2.63c0,.06,0,.09-.06.09l-2.83.25c-.06,0-.12,0-.09-.11l.57-.93A3,3,0,1,0,45,91a.61.61,0,0,1,.74-.11.56.56,0,0,1,.14.85A4.12,4.12,0,0,1,40.18,92.28Z"/><polygon class="cls-5" points="23.57 84.12 30.94 88.83 23.57 93.5 23.57 88.83 23.57 84.12"/><polygon class="cls-5" points="17.08 84.12 9.71 88.83 17.08 93.5 17.08 88.83 17.08 84.12"/><g id="_243447002480" data-name=" 243447002480"><path class="cls-8" d="M40.55,172.11H239a1,1,0,0,1,1,1v68.51a1,1,0,0,1-1,1H40.55a1,1,0,0,1-1-1V173.1A1,1,0,0,1,40.55,172.11Z"/><path class="cls-9" d="M40.55,253.52H239a1,1,0,0,1,1,1v6.91a1,1,0,0,1-1,1H40.55a1,1,0,0,1-1-1v-6.91A1,1,0,0,1,40.55,253.52Z"/><path class="cls-8" d="M40.55,270h85.24a1,1,0,0,1,1,1V278a1,1,0,0,1-1,1H40.55a1,1,0,0,1-1-1v-6.89A1,1,0,0,1,40.55,270Z"/><path class="cls-9" d="M40.55,286.6H239a1,1,0,0,1,1,1v6.91a1,1,0,0,1-1,1H40.55a1,1,0,0,1-1-1v-6.91A1,1,0,0,1,40.55,286.6Z"/><path class="cls-8" d="M40.55,303.12h85.24a1,1,0,0,1,1,1V311a1,1,0,0,1-1,1H40.55a1,1,0,0,1-1-1v-6.92A1,1,0,0,1,40.55,303.12Z"/><path class="cls-8" d="M255.93,263H349a1,1,0,0,1,1,1v47a1,1,0,0,1-1,1H255.93a1,1,0,0,1-1-1V264A1,1,0,0,1,255.93,263Z"/><path class="cls-8" d="M255.93,172.11h92.52a1,1,0,0,1,1,1V180a1,1,0,0,1-1,1H255.93a1,1,0,0,1-1-1V173.1A1,1,0,0,1,255.93,172.11Z"/><path class="cls-9" d="M255.93,188.63h61a1,1,0,0,1,1,1v6.92a1,1,0,0,1-1,1h-61a1,1,0,0,1-1-1v-6.92A1,1,0,0,1,255.93,188.63Z"/><path class="cls-8" d="M255.93,205.16h92.52a1,1,0,0,1,1,1v45.44a1,1,0,0,1-1,1H255.93a1,1,0,0,1-1-1V206.18A1,1,0,0,1,255.93,205.16Z"/><path class="cls-8" d="M40.55,133.92H170.41a1,1,0,0,1,1,1v6.91a1,1,0,0,1-1,1H40.55a1,1,0,0,1-1-1v-6.91A1,1,0,0,1,40.55,133.92Z"/><path class="cls-9" d="M40.55,150.45h96.89a1,1,0,0,1,1,1v6.89a1,1,0,0,1-1,1H40.55a1,1,0,0,1-1-1v-6.89A1,1,0,0,1,40.55,150.45Z"/><path class="cls-8" d="M255.93,133.92h92.52a1,1,0,0,1,1,1v6.91a1,1,0,0,1-1,1H255.93a1,1,0,0,1-1-1v-6.91A1,1,0,0,1,255.93,133.92Z"/><path class="cls-9" d="M255.93,150.45h61a1,1,0,0,1,1,1v6.89a1,1,0,0,1-1,1h-61a1,1,0,0,1-1-1v-6.89A1,1,0,0,1,255.93,150.45Z"/></g></g></g></g></svg>
