<svg xmlns="http://www.w3.org/2000/svg" viewBox="0 0 103.2 121.18" id="resource_14"><g id="anСлой_2" data-name="Слой 2"><g id="anLayer_1" data-name="Layer 1"><path class="ancls-1" d="M103.2 121.18H25.91V39.4h77.29zm-73.41-3.88h69.53v-74H29.79z"></path><path class="ancls-1" d="M103.2 43.29H25.91V25.91h77.29zM29.79 39.4h69.53v-9.6H29.79z"></path><path class="ancls-1" d="M52.46 32.66h3.89v3.89h-3.89zm-7.77 0h3.89v3.89h-3.89zm-7.77 0h3.89v3.89h-3.89zm0 17.62h12.09v3.89H36.92zm12.09 16.04h13v3.89h-13zm0 8.02h13v3.89h-13zm0 24.06h13v3.89h-13zm0 8.01h13v3.89h-13zM36.92 58.3h25.09v3.89H36.92zm0 24.06h12.09v3.89H36.92zm0 8.02h25.09v3.89H36.92zM67.1 66.32h13v3.89h-13zm0 8.02h25.09v3.89H67.1zm0-16.04h13v3.89h-13zm0 40.1h13v3.89h-13zm0 8.02h25.09v3.89H67.1zm0-16.04h13v3.89h-13z"></path><path class="ancls-1" d="M21.38 108.23h-8.43V12.96h77.3v8.42h-3.89v-4.54H16.84v87.5h4.54v3.89z"></path><path class="ancls-1" d="M8.42 95.28H0V0h77.3v8.42h-3.89V3.89H3.88v87.5h4.54v3.89zm94.78-84.7h-3.88V3.89h-6.69V0h10.57v10.58zm-92.62 110.6H0V110.6h3.88v6.7h6.7v3.88z"></path></g></g></svg>
