<svg xmlns="http://www.w3.org/2000/svg" viewBox="0 0 111.84 111.87" id="resource_10"><g id="ajСлой_2" data-name="Слой 2"><g id="ajLayer_1" data-name="Layer 1"><path class="ajcls-1" d="M55.92 85.94a30 30 0 1 1 30-30 30 30 0 0 1-30 30zm0-56.13a26.13 26.13 0 1 0 26.13 26.12 26.15 26.15 0 0 0-26.13-26.12z"></path><path class="ajcls-1" d="M61.61 111.87H50.26l-2.42-12A43.85 43.85 0 0 1 41 98l-8.08 9.2-9.83-5.67L27 89.91a45.26 45.26 0 0 1-5-5l-11.67 3.88L4.67 79l9.18-8.1A43.91 43.91 0 0 1 12 64L0 61.63V50.24l12-2.42A43.49 43.49 0 0 1 13.85 41l-9.18-8.14 5.66-9.78L21.94 27a44.42 44.42 0 0 1 5-5l-3.88-11.69 9.83-5.66 8.11 9.2A44.58 44.58 0 0 1 47.84 12l2.42-12h11.35L64 12a43.91 43.91 0 0 1 6.85 1.84L79 4.65l9.84 5.66-3.96 11.62a43.7 43.7 0 0 1 5.05 5l11.6-3.89 5.66 9.78L98 41a42.81 42.81 0 0 1 1.85 6.87l12 2.41v11.35L99.88 64A44.3 44.3 0 0 1 98 70.9l9.19 8.1-5.66 9.81-11.6-3.91a45.35 45.35 0 0 1-5.05 5l3.92 11.61-9.8 5.69-8.11-9.2A45.16 45.16 0 0 1 64 99.84zM53.44 108h5l2.32-11.55 1.35-.21a40.11 40.11 0 0 0 8.65-2.32L72 93.4l7.77 8.84 4.31-2.49-3.75-11.14 1.06-.85a40.89 40.89 0 0 0 6.38-6.37l.85-1.06 11.14 3.76 2.47-4.3L93.44 72l.49-1.27a40.42 40.42 0 0 0 2.34-8.68l.21-1.34L108 58.44v-5l-11.53-2.33-.2-1.34a40.74 40.74 0 0 0-2.33-8.67l-.5-1.27 8.79-7.77-2.47-4.29-11.14 3.75-.85-1.06a41.26 41.26 0 0 0-6.37-6.37l-1.07-.85 3.77-11.15-4.32-2.48L72 18.44 70.75 18a41 41 0 0 0-8.65-2.33l-1.35-.2-2.32-11.58h-5l-2.31 11.53-1.35.2A39.81 39.81 0 0 0 41.11 18l-1.27.49-7.77-8.88-4.31 2.48 3.76 11.16-1.06.85a41.57 41.57 0 0 0-6.36 6.36l-.85 1.06-11.14-3.75-2.48 4.29 8.81 7.79-.5 1.27a40.61 40.61 0 0 0-2.32 8.64l-.2 1.34-11.53 2.32v5l11.52 2.31.2 1.34A40.14 40.14 0 0 0 18 70.74l.44 1.26-8.81 7.79 2.48 4.3 11.14-3.76.85 1.06a41.57 41.57 0 0 0 6.36 6.36l1.07.85-3.77 11.15 4.31 2.49 7.76-8.84 1.27.5a40.9 40.9 0 0 0 8.67 2.33l1.34.2z"></path><path class="ajcls-1" d="M46.47 65.64l-9.7-9.7 9.7-9.71 2.75 2.75-6.96 6.95 6.96 6.96-2.75 2.75zm18.91 0l-2.75-2.75 6.96-6.96-6.96-6.95 2.75-2.75 9.7 9.7-9.7 9.71z"></path><path class="ajcls-1" transform="rotate(-79.99 55.921 55.932)" d="M41.54 53.99H70.3v3.89H41.54z"></path><path class="ajcls-1" d="M53.98 18.58h3.89v3.89h-3.89zm0 70.82h3.89v3.89h-3.89zM18.57 53.99h3.88v3.89h-3.88zm70.82 0h3.89v3.89h-3.89z"></path></g></g></svg>
