<svg xmlns="http://www.w3.org/2000/svg" viewBox="0 0 129.1 105.58" id="resource_5"><g id="atСлой_2" data-name="Слой 2"><g id="atLayer_1" data-name="Layer 1"><path class="atcls-1" d="M39.26 80.16h3.89v25.42h-3.89zm48.07 0h3.89v25.42h-3.89z"></path><path class="atcls-1" d="M41.2 93.61h48.07v3.89H41.2zm24.04-4.12A44.75 44.75 0 1 1 110 44.74a44.79 44.79 0 0 1-44.76 44.75zm0-85.6a40.86 40.86 0 1 0 40.85 40.85A40.9 40.9 0 0 0 65.24 3.89z"></path><path class="atcls-1" d="M65.24 78.39a33.65 33.65 0 1 1 33.64-33.65 33.69 33.69 0 0 1-33.64 33.65zm0-63.4A29.76 29.76 0 1 0 95 44.74 29.78 29.78 0 0 0 65.24 15z"></path><path class="atcls-1" d="M65.24 67.29a22.55 22.55 0 1 1 22.54-22.55 22.57 22.57 0 0 1-22.54 22.55zm0-41.2a18.66 18.66 0 1 0 18.65 18.65 18.68 18.68 0 0 0-18.65-18.65z"></path><path class="atcls-1" d="M65.24 56.19a11.45 11.45 0 1 1 11.44-11.45 11.46 11.46 0 0 1-11.44 11.45zm0-19a7.56 7.56 0 1 0 7.55 7.55 7.56 7.56 0 0 0-7.55-7.55zM2.75 42.8h19.69v3.89H2.75z"></path><path class="atcls-1" d="M7.36 52.11L0 44.74l7.36-7.36 2.75 2.75-4.61 4.61 4.61 4.62-2.75 2.75zm57.88-9.31h56.5v3.89h-56.5z"></path><path class="atcls-1" d="M118.64 52.11l-7.36-7.37 7.36-7.36 2.75 2.75-4.61 4.61 4.61 4.62-2.75 2.75z"></path><path class="atcls-1" d="M126.35 52.11l-7.37-7.37 7.37-7.36 2.75 2.75-4.62 4.61 4.62 4.62-2.75 2.75z"></path></g></g></svg>
