<svg xmlns="http://www.w3.org/2000/svg" viewBox="0 0 98.89 119.62" id="resource_9"><g id="axСлой_2" data-name="Слой 2"><g id="axLayer_1" data-name="Layer 1"><path class="axcls-1" d="M49.44 89.38a19.22 19.22 0 0 1 0-38.43v3.89a15.33 15.33 0 1 0 15.33 15.33h3.89a19.23 19.23 0 0 1-19.22 19.21zM77 33.86a45.62 45.62 0 0 0-55 0l-2.35-3.1a49.51 49.51 0 0 1 59.75 0z"></path><path class="axcls-1" d="M49.44 119.62A49.5 49.5 0 0 1 0 70.17 49 49 0 0 1 10 40.3l3.1 2.35A45.56 45.56 0 1 0 95 70.17a45.16 45.16 0 0 0-9.25-27.52l3.09-2.35a49 49 0 0 1 10 29.87 49.5 49.5 0 0 1-49.4 49.45z"></path><path class="axcls-1" d="M49.44 111a40.81 40.81 0 1 1 40.81-40.83A40.85 40.85 0 0 1 49.44 111zm0-77.73a36.92 36.92 0 1 0 36.92 36.9 37 37 0 0 0-36.92-36.92z"></path><path class="axcls-1" transform="rotate(-45 83.034 36.586)" d="M74.39 34.64h17.27v3.89H74.39z"></path><path class="axcls-1" transform="rotate(-45 89.131 30.47)" d="M87.19 24h3.89v12.95h-3.89z"></path><path class="axcls-1" transform="rotate(-45 15.862 36.58)" d="M13.91 27.95h3.89v17.27h-3.89z"></path><path class="axcls-1" transform="rotate(-44.99 9.756 30.476)" d="M3.27 28.53h12.95v3.89H3.27z"></path><path class="axcls-1" d="M47.5 7.99h3.89v14.68H47.5z"></path><path class="axcls-1" d="M58.94 16h-19a8 8 0 0 1-5.65-13.66A7.94 7.94 0 0 1 39.94 0h19a8 8 0 0 1 8 8 8 8 0 0 1-8 8zm-19-12.09A4.1 4.1 0 0 0 35.84 8a4.1 4.1 0 0 0 4.1 4.1h19A4.1 4.1 0 0 0 63.05 8a4.11 4.11 0 0 0-4.11-4.1z"></path><path class="axcls-1" transform="rotate(-45 83.034 36.586)" d="M74.39 34.64h17.27v3.89H74.39z"></path><path class="axcls-1" transform="rotate(-45 15.862 36.58)" d="M13.91 27.95h3.89v17.27h-3.89z"></path><path class="axcls-1" d="M49.44 77.29a7.13 7.13 0 1 1 7.13-7.12 7.13 7.13 0 0 1-7.13 7.12zm0-10.36a3.24 3.24 0 1 0 3.24 3.24 3.25 3.25 0 0 0-3.24-3.24z"></path><path class="axcls-1" d="M54.63 68.23h18.09v3.89H54.63zm-7.13-30.4h3.89v4.32H47.5z"></path><path class="axcls-1" transform="rotate(-71.99 58.77 41.472)" d="M56.61 39.53h4.32v3.89h-4.32z"></path><path class="axcls-1" transform="rotate(-53.8 67.332 45.588)" d="M65.02 43.81h4.32v3.89h-4.32z"></path><path class="axcls-1" transform="rotate(-35.99 73.859 52.427)" d="M71.7 50.49h4.32v3.89H71.7z"></path><path class="axcls-1" transform="rotate(-17.97 78.153 60.847)" d="M75.98 58.9h4.32v3.89h-4.32z"></path><path class="axcls-1" d="M77.46 68.23h4.32v3.89h-4.32z"></path></g></g></svg>
