<?xml version="1.0" encoding="utf-8"?>
<!-- Generator: Adobe Illustrator 23.0.2, SVG Export Plug-In . SVG Version: 6.00 Build 0)  -->
<svg version="1.1" id="Слой_1" xmlns="http://www.w3.org/2000/svg" xmlns:xlink="http://www.w3.org/1999/xlink" x="0px" y="0px"
	 viewBox="0 0 512 512" style="enable-background:new 0 0 512 512;" xml:space="preserve">
<style type="text/css">
	.st0{fill-rule:evenodd;clip-rule:evenodd;stroke:#FFFFFF;stroke-width:3;stroke-miterlimit:10;}
	.st1{fill-rule:evenodd;clip-rule:evenodd;stroke:#FFFFFF;stroke-width:4;stroke-miterlimit:10;}
	.st2{fill-rule:evenodd;clip-rule:evenodd;fill:#050505;}
</style>
<g>
	<path class="st0" d="M452.9,211H141.4l299.2-86.7c2.3-0.7,4.3-2.2,5.5-4.4c1.2-2.1,1.4-4.6,0.8-6.9l-15.7-54.1
		c-6.3-21.6-26.4-36.7-48.9-36.7c-4.7,0-9.5,0.7-14.1,2L87.3,105.6c-13,3.8-23.8,12.4-30.3,24.3c-6.6,11.9-8.1,25.6-4.3,38.6
		L68,221.3v217.5c0,28,22.8,50.8,50.8,50.8h109.7c5,0,9.1-4.1,9.1-9.1s-4.1-9.1-9.1-9.1H118.7c-18,0-32.6-14.6-32.6-32.6V314.7h46.8
		l0,0l0,0h71.5l0,0l0,0H276l0,0l0,0h71.5l0,0l0,0h96.1V439c0,18-14.6,32.6-32.6,32.6H301.5c-5,0-9.1,4.1-9.1,9.1s4.1,9.1,9.1,9.1
		h109.7c28,0,50.8-22.8,50.8-50.8V220.1C462,215.1,457.9,211,452.9,211z M291.6,296.2l39-67.6h50.7l-39,67.6H291.6z M220.1,296.2
		l39-67.6h50.7l-39,67.6H220.1z M148.5,296.2l39-67.6h50.7l-39,67.6H148.5z M182.7,178.2l-65-62.4l48.7-14.1c0.3,0.5,0.7,1,1.2,1.4
		l65,62.4l-48.7,14.1C183.6,179.1,183.2,178.6,182.7,178.2z M305.1,63.3l65,62.4l-48.7,14.1c-0.3-0.5-0.7-1-1.2-1.4l-65-62.4
		l48.7-14.1C304.2,62.4,304.6,62.9,305.1,63.3z M236.4,83.2l65,62.4l-48.7,14.1c-0.3-0.5-0.7-1-1.2-1.4l-65-62.4l48.7-14.1
		C235.5,82.3,235.9,82.8,236.4,83.2z M373.3,41.8c2.9-0.8,6-1.3,9-1.3c14.4,0,27.3,9.7,31.3,23.5l13.1,45.3l-36.6,10.6
		c-0.3-0.5-0.7-1-1.2-1.4l-65-62.4L373.3,41.8z M72.9,138.8c4.2-7.6,11.1-13.2,19.4-15.6l5.4-1.6c0.3,0.5,0.7,1,1.2,1.4l65,62.4
		l-80.6,23.4l-13.1-45.3C67.7,155.2,68.7,146.4,72.9,138.8z M86.2,228.6H167l-39,67.6H86.2V228.6z M363.3,296.2l39-67.6h41.8v67.6
		H363.3z"/>
	<path class="st1" d="M328,392.1c0-3.3-1.7-6.3-4.6-7.9l-80.2-46.3c-3.6-2.1-8.4-1.5-11.4,1.8c-1.6,1.7-2.3,4-2.3,6.3v92.2
		c0,2.2,0.7,4.4,2.2,6.1c1.9,2.1,4.4,3.2,7,3.2c1.6,0,3.2-0.4,4.6-1.2l80.2-46.3C326.3,398.4,328,395.4,328,392.1z M247.8,422.6v-61
		l52.8,30.5L247.8,422.6z"/>
	<path class="st2" d="M264.9,471.5c-5,0-9.1,4.1-9.1,9.1s4.1,9.1,9.1,9.1s9.1-4.1,9.1-9.1S270,471.5,264.9,471.5z"/>
</g>
</svg>
