<?xml version="1.0" encoding="iso-8859-1"?>
<!-- Generator: Adobe Illustrator 17.1.0, SVG Export Plug-In . SVG Version: 6.00 Build 0)  -->
<!DOCTYPE svg PUBLIC "-//W3C//DTD SVG 1.1//EN" "http://www.w3.org/Graphics/SVG/1.1/DTD/svg11.dtd">
<svg version="1.1" id="Capa_1" xmlns="http://www.w3.org/2000/svg" xmlns:xlink="http://www.w3.org/1999/xlink" x="0px" y="0px"
	 viewBox="0 0 455 455" style="enable-background:new 0 0 455 455;" xml:space="preserve">
<g>
	<path d="M227.5,295c59.275,0,107.5-48.224,107.5-107.5S286.775,80,227.5,80C168.224,80,120,128.224,120,187.5
		S168.224,295,227.5,295z M227.5,95c51.005,0,92.5,41.495,92.5,92.5S278.505,280,227.5,280S135,238.505,135,187.5
		S176.495,95,227.5,95z"/>
	<path d="M227.5,255c37.22,0,67.5-30.28,67.5-67.5S264.72,120,227.5,120S160,150.28,160,187.5S190.28,255,227.5,255z M227.5,135
		c28.948,0,52.5,23.551,52.5,52.5S256.448,240,227.5,240c-28.949,0-52.5-23.551-52.5-52.5S198.551,135,227.5,135z"/>
	<path d="M227.5,224.986c10.026,0,19.443-3.896,26.517-10.969c14.621-14.621,14.621-38.412,0-53.033
		c-2.93-2.929-7.678-2.929-10.607,0c-2.929,2.929-2.929,7.678,0,10.606c8.773,8.773,8.773,23.047,0,31.82
		c-4.24,4.24-9.89,6.576-15.909,6.576c-6.019,0-11.669-2.335-15.91-6.576c-2.929-2.93-7.678-2.929-10.606,0
		c-2.929,2.929-2.929,7.678,0,10.606C208.057,221.09,217.475,224.986,227.5,224.986z"/>
	<path d="M227.5,375C330.888,375,415,290.888,415,187.5c0-74.563-43.753-139.095-106.931-169.285
		c-0.487-0.298-1.004-0.542-1.547-0.723C282.494,6.278,255.719,0,227.5,0c-28.223,0-55.004,6.28-79.035,17.498
		c-0.534,0.179-1.043,0.42-1.523,0.712C83.759,48.397,40,112.932,40,187.5C40,290.888,124.112,375,227.5,375z M140.46,38.624
		c-0.3,2.945-0.46,5.907-0.46,8.876c0,12.356,2.547,24.333,7.571,35.596c1.245,2.791,3.983,4.447,6.854,4.447
		c1.021,0,2.058-0.209,3.05-0.652c3.783-1.687,5.482-6.122,3.795-9.904C157.109,67.658,155,57.737,155,47.5
		c0-5.901,0.728-11.768,2.149-17.489C178.645,20.37,202.456,15,227.5,15c25.044,0,48.855,5.37,70.351,15.01
		C299.272,35.732,300,41.599,300,47.5c0,10.237-2.109,20.158-6.27,29.487c-1.688,3.783,0.012,8.217,3.795,9.904
		c0.993,0.443,2.029,0.652,3.051,0.652c2.869,0,5.609-1.657,6.854-4.447C312.453,71.832,315,59.855,315,47.5
		c0-2.969-0.16-5.931-0.46-8.876C365.624,68.605,400,124.109,400,187.5c0,95.117-77.383,172.5-172.5,172.5
		C132.383,360,55,282.617,55,187.5C55,124.11,89.376,68.605,140.46,38.624z"/>
	<path d="M356.568,351.5c-3.004-2.851-7.751-2.729-10.604,0.276c-2.852,3.004-2.729,7.751,0.275,10.603
		c22.522,21.38,38.691,48.063,47.125,77.622H61.634c8.435-29.559,24.604-56.242,47.125-77.622c3.004-2.852,3.127-7.599,0.276-10.603
		c-2.851-3.004-7.599-3.128-10.603-0.276c-26.982,25.615-45.575,58.237-53.77,94.34c-0.505,2.224,0.03,4.558,1.453,6.34
		c1.423,1.782,3.58,2.82,5.861,2.82h351.047c2.281,0,4.438-1.038,5.861-2.82c1.423-1.782,1.957-4.115,1.453-6.339
		C402.144,409.736,383.551,377.114,356.568,351.5z"/>
	<path d="M227.5,55.5c4.411,0,8-3.589,8-8s-3.589-8-8-8s-8,3.589-8,8S223.089,55.5,227.5,55.5z"/>
</g>
<g>
</g>
<g>
</g>
<g>
</g>
<g>
</g>
<g>
</g>
<g>
</g>
<g>
</g>
<g>
</g>
<g>
</g>
<g>
</g>
<g>
</g>
<g>
</g>
<g>
</g>
<g>
</g>
<g>
</g>
</svg>
