<svg xmlns="http://www.w3.org/2000/svg" viewBox="0 0 291.23 374" id="resource_0"><g id="ahСлой_2" data-name="Слой 2"><g id="ahСлой_1-2" data-name="Слой 1"><path class="ahcls-1" d="M287.53 75.72L147 .82a7 7 0 0 0-6.65 0L3.63 75.76A7 7 0 0 0 0 81.9v97.84a202.57 202.57 0 0 0 121.42 185.41l19 8.27a7 7 0 0 0 5.57 0l21.38-9.24A202.15 202.15 0 0 0 291.23 177.8V81.9a7 7 0 0 0-3.7-6.18zM277.24 177.8a188.22 188.22 0 0 1-115.38 173.52h-.05l-18.61 8-16.2-7A188.57 188.57 0 0 1 14 179.74V86.05L143.72 15l133.52 71.1z"></path><path id="ahpath40" class="ahcls-1" d="M186.1 82.54h-32c-31.4 0-58 23.91-58 70.32 0 27.85 12.9 48.38 35.89 58.5L89.09 289c-1.4 2.54 0 4.5 2.24 4.5h19.91c1.68 0 2.8-.56 3.37-2l39-76.23h14v76.23a2.1 2.1 0 0 0 2 2H187c1.68 0 2.24-.84 2.24-2.24V85.36c-.05-1.98-1.17-2.82-3.14-2.82zM167.6 197.3h-11.78c-18.5 0-36.45-13.5-36.45-47.25 0-35.17 16.83-49.51 33.93-49.51h14.3z"></path></g></g></svg>
