<svg xmlns="http://www.w3.org/2000/svg" xmlns:xlink="http://www.w3.org/1999/xlink" viewBox="0 0 640.74 192.41"><defs><style>.cls-1{fill:url(#Безымянный_градиент_122);}</style><linearGradient id="Безымянный_градиент_122" x1="-2.97" y1="189.22" x2="632.04" y2="16.51" gradientUnits="userSpaceOnUse"><stop offset="0.02" stop-color="#d9752d"/><stop offset="0.35" stop-color="#e3466d"/><stop offset="0.69" stop-color="#fb8716"/><stop offset="1" stop-color="#e3466d"/></linearGradient></defs><title>Ресурс 3</title><g id="Слой_2" data-name="Слой 2"><g id="Thanks_for_the_choice_good_luck_" data-name="Thanks for the choice, good luck!"><g id="charts_and_graphics" data-name="charts and graphics"><path class="cls-1" d="M0,191.85c.1-.54,11-54.54,80.85-54.54,35.74,0,46.2-10.23,57.28-21.06,10.06-9.85,20.47-20,50.24-21.92,21.3-1.36,35.54,1.21,47,3.27,22.21,4,35.61,6.44,76-21.47,45.34-31.35,64.78-9.47,85.36,13.7,8.16,9.18,16.59,18.68,26.91,24.89,3.74,2.26,7.17,2.81,10.49,1.68,11-3.75,19.54-25.49,28.55-48.52C474.46,37.7,487.85,3.5,511.13.44c28.15-3.69,40.69,16.47,51.75,34.26C570,46.11,576.1,56,585,57.42c22.83,3.73,52.61-43.64,52.91-44.11a1.51,1.51,0,1,1,2.56,1.59c-1.26,2-31.16,49.53-56,45.5-10.3-1.67-17.07-12.57-24.24-24.1-10.58-17-22.6-36.31-48.79-32.87C490,6.26,477,39.58,465.45,69c-9.67,24.73-18,46.08-30.39,50.28-4.14,1.41-8.53.75-13-2-10.71-6.44-19.3-16.11-27.6-25.47-20.53-23.1-38.24-43-81.4-13.22-41.39,28.62-56,26-78.23,22C223,98.43,209.5,96,188.57,97.34c-28.66,1.82-38.22,11.17-48.33,21.06-11,10.78-22.43,21.93-59.39,21.93-67.27,0-77.49,49.95-77.88,52.08"/></g></g></g></svg>